NimbusSanL-ReguCond.ufo
<glyph name="exclam" format="1">
  <advance width="228"/>
  <unicode hex="0021"/>
  <outline>
    <contour>
      <point x="153" y="102" type="line"/>
      <point x="153" y="0" type="line"/>
      <point x="74" y="0" type="line"/>
      <point x="74" y="102" type="line"/>
    </contour>
    <contour>
      <point x="133" y="171" type="line"/>
      <point x="94" y="171" type="line"/>
      <point x="74" y="481" type="line"/>
      <point x="74" y="718" type="line"/>
      <point x="153" y="718" type="line"/>
      <point x="153" y="481" type="line"/>
    </contour>
  </outline>
</glyph>
<glyph name="quotedbl" format="1">
  <advance width="291"/>
  <unicode hex="0022"/>
  <outline>
    <contour>
      <point x="57" y="463" type="line"/>
      <point x="57" y="718" type="line"/>
      <point x="117" y="718" type="line"/>
      <point x="117" y="463" type="line"/>
    </contour>
    <contour>
      <point x="174" y="463" type="line"/>
      <point x="174" y="718" type="line"/>
      <point x="234" y="718" type="line"/>
      <point x="234" y="463" type="line"/>
    </contour>
  </outline>
</glyph>
<glyph name="numbersign" format="1">
  <advance width="456"/>
  <unicode hex="0023"/>
  <outline>
    <contour>
      <point x="318" y="210" type="line"/>
      <point x="295" y="0" type="line"/>
      <point x="240" y="0" type="line"/>
      <point x="264" y="210" type="line"/>
      <point x="162" y="210" type="line"/>
      <point x="138" y="0" type="line"/>
      <point x="84" y="0" type="line"/>
      <point x="107" y="210" type="line"/>
      <point x="23" y="210" type="line"/>
      <point x="30" y="273" type="line"/>
      <point x="115" y="273" type="line"/>
      <point x="130" y="415" type="line"/>
      <point x="46" y="415" type="line"/>
      <point x="53" y="478" type="line"/>
      <point x="138" y="478" type="line"/>
      <point x="162" y="688" type="line"/>
      <point x="217" y="688" type="line"/>
      <point x="193" y="478" type="line"/>
      <point x="295" y="478" type="line"/>
      <point x="318" y="688" type="line"/>
      <point x="373" y="688" type="line"/>
      <point x="350" y="478" type="line"/>
      <point x="434" y="478" type="line"/>
      <point x="427" y="415" type="line"/>
      <point x="342" y="415" type="line"/>
      <point x="326" y="273" type="line"/>
      <point x="410" y="273" type="line"/>
      <point x="403" y="210" type="line"/>
    </contour>
    <contour>
      <point x="287" y="415" type="line"/>
      <point x="185" y="415" type="line"/>
      <point x="169" y="273" type="line"/>
      <point x="272" y="273" type="line"/>
    </contour>
  </outline>
</glyph>
<glyph name="ampersand" format="1">
  <advance width="547"/>
  <unicode hex="0026"/>
  <outline>
    <contour>
      <point x="424" y="155" type="curve"/>
      <point x="529" y="0" type="line"/>
      <point x="436" y="0" type="line"/>
      <point x="381" y="82" type="line"/>
      <point x="327" y="10"/>
      <point x="282" y="-15"/>
      <point x="211" y="-15" type="curve" smooth="yes"/>
      <point x="102" y="-15"/>
      <point x="36" y="60"/>
      <point x="36" y="184" type="curve" smooth="yes"/>
      <point x="36" y="277"/>
      <point x="65" y="324"/>
      <point x="169" y="399" type="curve"/>
      <point x="119" y="475"/>
      <point x="107" y="504"/>
      <point x="107" y="556" type="curve" smooth="yes"/>
      <point x="107" y="652"/>
      <point x="164" y="718"/>
      <point x="247" y="718" type="curve" smooth="yes"/>
      <point x="325" y="718"/>
      <point x="378" y="658"/>
      <point x="378" y="569" type="curve" smooth="yes"/>
      <point x="378" y="495"/>
      <point x="351" y="448"/>
      <point x="272" y="382" type="curve"/>
      <point x="380" y="226" type="line"/>
      <point x="393" y="269"/>
      <point x="396" y="286"/>
      <point x="404" y="338" type="curve"/>
      <point x="472" y="338" type="line"/>
      <point x="467" y="276"/>
      <point x="452" y="220"/>
    </contour>
    <contour>
      <point x="342" y="141" type="curve"/>
      <point x="209" y="339" type="line"/>
      <point x="129" y="276"/>
      <point x="108" y="245"/>
      <point x="108" y="183" type="curve" smooth="yes"/>
      <point x="108" y="113"/>
      <point x="155" y="62"/>
      <point x="218" y="62" type="curve" smooth="yes"/>
      <point x="266" y="62"/>
      <point x="306" y="87"/>
    </contour>
    <contour>
      <point x="235" y="439" type="curve"/>
      <point x="289" y="485"/>
      <point x="308" y="517"/>
      <point x="308" y="564" type="curve" smooth="yes"/>
      <point x="308" y="611"/>
      <point x="283" y="641"/>
      <point x="243" y="641" type="curve" smooth="yes"/>
      <point x="203" y="641"/>
      <point x="177" y="611"/>
      <point x="177" y="565" type="curve" smooth="yes"/>
      <point x="177" y="528"/>
      <point x="195" y="489"/>
    </contour>
  </outline>
</glyph>
<glyph name="quotesingle" format="1">
  <advance width="157"/>
  <unicode hex="0027"/>
  <outline>
    <contour>
      <point x="48" y="463" type="line"/>
      <point x="48" y="718" type="line"/>
      <point x="108" y="718" type="line"/>
      <point x="108" y="463" type="line"/>
    </contour>
  </outline>
</glyph>
<glyph name="parenright" format="1">
  <advance width="273"/>
  <unicode hex="0029"/>
  <outline>
    <contour>
      <point x="79" y="-207" type="curve"/>
      <point x="29" y="-207" type="line"/>
      <point x="116" y="-6"/>
      <point x="140" y="95"/>
      <point x="140" y="272" type="curve" smooth="yes"/>
      <point x="140" y="425"/>
      <point x="119" y="514"/>
      <point x="28" y="733" type="curve"/>
      <point x="76" y="733" type="line"/>
      <point x="186" y="528"/>
      <point x="217" y="425"/>
      <point x="217" y="264" type="curve" smooth="yes"/>
      <point x="217" y="102"/>
      <point x="181" y="-21"/>
    </contour>
  </outline>
</glyph>
<glyph name="asterisk" format="1">
  <advance width="319"/>
  <unicode hex="002A"/>
  <outline>
    <contour>
      <point x="32" y="591" type="line"/>
      <point x="48" y="646" type="line"/>
      <point x="134" y="608" type="line"/>
      <point x="134" y="718" type="line"/>
      <point x="183" y="718" type="line"/>
      <point x="183" y="608" type="line"/>
      <point x="269" y="646" type="line"/>
      <point x="286" y="591" type="line"/>
      <point x="197" y="557" type="line"/>
      <point x="252" y="465" type="line"/>
      <point x="212" y="431" type="line"/>
      <point x="159" y="525" type="line"/>
      <point x="105" y="431" type="line"/>
      <point x="65" y="465" type="line"/>
      <point x="120" y="557" type="line"/>
    </contour>
  </outline>
</glyph>
<glyph name="plus" format="1">
  <advance width="479"/>
  <unicode hex="002B"/>
  <outline>
    <contour>
      <point x="210" y="289" type="line"/>
      <point x="210" y="505" type="line"/>
      <point x="270" y="505" type="line"/>
      <point x="270" y="289" type="line"/>
      <point x="447" y="289" type="line"/>
      <point x="447" y="216" type="line"/>
      <point x="270" y="216" type="line"/>
      <point x="270" y="0" type="line"/>
      <point x="210" y="0" type="line"/>
      <point x="210" y="216" type="line"/>
      <point x="32" y="216" type="line"/>
      <point x="32" y="289" type="line"/>
    </contour>
  </outline>
</glyph>
<glyph name="hyphen" format="1">
  <advance width="273"/>
  <unicode hex="002D"/>
  <outline>
    <contour>
      <point x="237" y="322" type="line"/>
      <point x="237" y="232" type="line"/>
      <point x="36" y="232" type="line"/>
      <point x="36" y="322" type="line"/>
    </contour>
  </outline>
</glyph>
<glyph name="slash" format="1">
  <advance width="228"/>
  <unicode hex="002F"/>
  <outline>
    <contour>
      <point x="242" y="737" type="line"/>
      <point x="41" y="-19" type="line"/>
      <point x="-14" y="-19" type="line"/>
      <point x="188" y="737" type="line"/>
    </contour>
  </outline>
</glyph>
<glyph name="zero" format="1">
  <advance width="456"/>
  <unicode hex="0030"/>
  <outline>
    <contour>
      <point x="230" y="703" type="curve" smooth="yes"/>
      <point x="354" y="703"/>
      <point x="426" y="570"/>
      <point x="426" y="341" type="curve" smooth="yes"/>
      <point x="426" y="112"/>
      <point x="354" y="-19"/>
      <point x="228" y="-19" type="curve" smooth="yes"/>
      <point x="102" y="-19"/>
      <point x="30" y="112"/>
      <point x="30" y="343" type="curve" smooth="yes"/>
      <point x="30" y="574"/>
      <point x="102" y="703"/>
    </contour>
    <contour>
      <point x="229" y="625" type="curve" smooth="yes"/>
      <point x="149" y="625"/>
      <point x="107" y="528"/>
      <point x="107" y="343" type="curve" smooth="yes"/>
      <point x="107" y="157"/>
      <point x="149" y="59"/>
      <point x="228" y="59" type="curve" smooth="yes"/>
      <point x="307" y="59"/>
      <point x="349" y="157"/>
      <point x="349" y="343" type="curve" smooth="yes"/>
      <point x="349" y="526"/>
      <point x="307" y="625"/>
    </contour>
  </outline>
</glyph>
<glyph name="one" format="1">
  <advance width="456"/>
  <unicode hex="0031"/>
  <outline>
    <contour>
      <point x="294" y="703" type="line"/>
      <point x="294" y="0" type="line"/>
      <point x="217" y="0" type="line"/>
      <point x="217" y="499" type="line"/>
      <point x="83" y="499" type="line"/>
      <point x="83" y="569" type="line"/>
      <point x="190" y="577"/>
      <point x="215" y="599"/>
      <point x="238" y="703" type="curve"/>
    </contour>
  </outline>
</glyph>
<glyph name="three" format="1">
  <advance width="456"/>
  <unicode hex="0033"/>
  <outline>
    <contour>
      <point x="184" y="324" type="curve"/>
      <point x="184" y="400" type="line"/>
      <point x="198" y="399"/>
      <point x="213" y="398"/>
      <point x="220" y="398" type="curve" smooth="yes"/>
      <point x="290" y="398"/>
      <point x="331" y="439"/>
      <point x="331" y="511" type="curve" smooth="yes"/>
      <point x="331" y="581"/>
      <point x="290" y="625"/>
      <point x="225" y="625" type="curve" smooth="yes"/>
      <point x="153" y="625"/>
      <point x="120" y="581"/>
      <point x="113" y="473" type="curve"/>
      <point x="42" y="473" type="line"/>
      <point x="45" y="545"/>
      <point x="53" y="582"/>
      <point x="76" y="622" type="curve" smooth="yes"/>
      <point x="107" y="675"/>
      <point x="158" y="703"/>
      <point x="226" y="703" type="curve" smooth="yes"/>
      <point x="335" y="703"/>
      <point x="406" y="630"/>
      <point x="406" y="517" type="curve" smooth="yes"/>
      <point x="406" y="445"/>
      <point x="380" y="396"/>
      <point x="330" y="372" type="curve"/>
      <point x="400" y="340"/>
      <point x="428" y="293"/>
      <point x="428" y="207" type="curve" smooth="yes"/>
      <point x="428" y="70"/>
      <point x="347" y="-19"/>
      <point x="224" y="-19" type="curve" smooth="yes"/>
      <point x="171" y="-19"/>
      <point x="123" y="-1"/>
      <point x="90" y="31" type="curve" smooth="yes"/>
      <point x="52" y="69"/>
      <point x="36" y="118"/>
      <point x="28" y="215" type="curve"/>
      <point x="103" y="215" type="line"/>
      <point x="106" y="159"/>
      <point x="112" y="133"/>
      <point x="127" y="108" type="curve" smooth="yes"/>
      <point x="147" y="76"/>
      <point x="180" y="59"/>
      <point x="223" y="59" type="curve" smooth="yes"/>
      <point x="300" y="59"/>
      <point x="351" y="114"/>
      <point x="351" y="197" type="curve" smooth="yes"/>
      <point x="351" y="277"/>
      <point x="304" y="325"/>
      <point x="226" y="325" type="curve" smooth="yes"/>
      <point x="216" y="325" type="line"/>
      <point x="206" y="324"/>
      <point x="199" y="324"/>
    </contour>
  </outline>
</glyph>
<glyph name="four" format="1">
  <advance width="456"/>
  <unicode hex="0034"/>
  <outline>
    <contour>
      <point x="429" y="171" type="line"/>
      <point x="344" y="171" type="line"/>
      <point x="344" y="0" type="line"/>
      <point x="272" y="0" type="line"/>
      <point x="272" y="171" type="line"/>
      <point x="20" y="171" type="line"/>
      <point x="20" y="258" type="line"/>
      <point x="284" y="703" type="line"/>
      <point x="344" y="703" type="line"/>
      <point x="344" y="248" type="line"/>
      <point x="429" y="248" type="line"/>
    </contour>
    <contour>
      <point x="272" y="569" type="line"/>
      <point x="86" y="248" type="line"/>
      <point x="272" y="248" type="line"/>
    </contour>
  </outline>
</glyph>
<glyph name="five" format="1">
  <advance width="456"/>
  <unicode hex="0035"/>
  <outline>
    <contour>
      <point x="145" y="601" type="line"/>
      <point x="120" y="408" type="line"/>
      <point x="156" y="439"/>
      <point x="188" y="452"/>
      <point x="231" y="452" type="curve" smooth="yes"/>
      <point x="340" y="452"/>
      <point x="421" y="356"/>
      <point x="421" y="226" type="curve" smooth="yes"/>
      <point x="421" y="157"/>
      <point x="401" y="92"/>
      <point x="365" y="47" type="curve" smooth="yes"/>
      <point x="331" y="5"/>
      <point x="277" y="-19"/>
      <point x="214" y="-19" type="curve" smooth="yes"/>
      <point x="143" y="-19"/>
      <point x="89" y="10"/>
      <point x="57" y="66" type="curve" smooth="yes"/>
      <point x="40" y="96"/>
      <point x="33" y="121"/>
      <point x="26" y="175" type="curve"/>
      <point x="101" y="175" type="line"/>
      <point x="105" y="141"/>
      <point x="110" y="124"/>
      <point x="123" y="105" type="curve" smooth="yes"/>
      <point x="143" y="75"/>
      <point x="179" y="58"/>
      <point x="219" y="58" type="curve" smooth="yes"/>
      <point x="293" y="58"/>
      <point x="344" y="124"/>
      <point x="344" y="219" type="curve" smooth="yes"/>
      <point x="344" y="311"/>
      <point x="293" y="374"/>
      <point x="217" y="374" type="curve" smooth="yes"/>
      <point x="174" y="374"/>
      <point x="142" y="354"/>
      <point x="110" y="307" type="curve"/>
      <point x="47" y="311" type="line"/>
      <point x="91" y="688" type="line"/>
      <point x="389" y="688" type="line"/>
      <point x="389" y="601" type="line"/>
    </contour>
  </outline>
</glyph>
<glyph name="seven" format="1">
  <advance width="456"/>
  <unicode hex="0037"/>
  <outline>
    <contour>
      <point x="30" y="601" type="line"/>
      <point x="30" y="688" type="line"/>
      <point x="429" y="688" type="line"/>
      <point x="429" y="610" type="line"/>
      <point x="307" y="444"/>
      <point x="228" y="242"/>
      <point x="192" y="0" type="curve"/>
      <point x="112" y="0" type="line"/>
      <point x="137" y="199"/>
      <point x="222" y="416"/>
      <point x="348" y="601" type="curve"/>
    </contour>
  </outline>
</glyph>
<glyph name="nine" format="1">
  <advance width="456"/>
  <unicode hex="0039"/>
  <outline>
    <contour>
      <point x="41" y="169" type="curve"/>
      <point x="113" y="169" type="line"/>
      <point x="120" y="92"/>
      <point x="152" y="54"/>
      <point x="210" y="54" type="curve" smooth="yes"/>
      <point x="248" y="54"/>
      <point x="277" y="72"/>
      <point x="300" y="113" type="curve" smooth="yes"/>
      <point x="323" y="154"/>
      <point x="336" y="208"/>
      <point x="350" y="325" type="curve"/>
      <point x="324" y="266"/>
      <point x="277" y="235"/>
      <point x="214" y="235" type="curve" smooth="yes"/>
      <point x="106" y="235"/>
      <point x="34" y="326"/>
      <point x="34" y="462" type="curve" smooth="yes"/>
      <point x="34" y="606"/>
      <point x="109" y="703"/>
      <point x="222" y="703" type="curve" smooth="yes"/>
      <point x="351" y="703"/>
      <point x="421" y="590"/>
      <point x="421" y="379" type="curve" smooth="yes"/>
      <point x="421" y="257"/>
      <point x="399" y="146"/>
      <point x="360" y="78" type="curve" smooth="yes"/>
      <point x="323" y="12"/>
      <point x="275" y="-19"/>
      <point x="209" y="-19" type="curve" smooth="yes"/>
      <point x="109" y="-19"/>
      <point x="47" y="51"/>
    </contour>
    <contour>
      <point x="224" y="625" type="curve" smooth="yes"/>
      <point x="152" y="625"/>
      <point x="109" y="564"/>
      <point x="109" y="462" type="curve" smooth="yes"/>
      <point x="109" y="365"/>
      <point x="149" y="313"/>
      <point x="223" y="313" type="curve" smooth="yes"/>
      <point x="294" y="313"/>
      <point x="336" y="371"/>
      <point x="336" y="471" type="curve" smooth="yes"/>
      <point x="336" y="566"/>
      <point x="293" y="625"/>
    </contour>
  </outline>
</glyph>
<glyph name="colon" format="1">
  <advance width="228"/>
  <unicode hex="003A"/>
  <outline>
    <contour>
      <point x="157" y="107" type="line"/>
      <point x="157" y="0" type="line"/>
      <point x="71" y="0" type="line"/>
      <point x="71" y="107" type="line"/>
    </contour>
    <contour>
      <point x="157" y="516" type="line"/>
      <point x="157" y="409" type="line"/>
      <point x="71" y="409" type="line"/>
      <point x="71" y="516" type="line"/>
    </contour>
  </outline>
</glyph>
<glyph name="semicolon" format="1">
  <advance width="228"/>
  <unicode hex="003B"/>
  <outline>
    <contour>
      <point x="71" y="0" type="line"/>
      <point x="71" y="107" type="line"/>
      <point x="157" y="107" type="line"/>
      <point x="157" y="8" type="line" smooth="yes"/>
      <point x="157" y="-82"/>
      <point x="128" y="-134"/>
      <point x="71" y="-147" type="curve"/>
      <point x="71" y="-101" type="line"/>
      <point x="100" y="-97"/>
      <point x="114" y="-64"/>
      <point x="115" y="0" type="curve"/>
    </contour>
    <contour>
      <point x="157" y="409" type="line"/>
      <point x="71" y="409" type="line"/>
      <point x="71" y="516" type="line"/>
      <point x="157" y="516" type="line"/>
    </contour>
  </outline>
</glyph>
<glyph name="less" format="1">
  <advance width="479"/>
  <unicode hex="003C"/>
  <outline>
    <contour>
      <point x="440" y="10" type="line"/>
      <point x="39" y="217" type="line"/>
      <point x="39" y="289" type="line"/>
      <point x="440" y="496" type="line"/>
      <point x="440" y="414" type="line"/>
      <point x="121" y="253" type="line"/>
      <point x="440" y="92" type="line"/>
    </contour>
  </outline>
</glyph>
<glyph name="equal" format="1">
  <advance width="479"/>
  <unicode hex="003D"/>
  <outline>
    <contour>
      <point x="447" y="390" type="line"/>
      <point x="447" y="317" type="line"/>
      <point x="32" y="317" type="line"/>
      <point x="32" y="390" type="line"/>
    </contour>
    <contour>
      <point x="447" y="188" type="line"/>
      <point x="447" y="115" type="line"/>
      <point x="32" y="115" type="line"/>
      <point x="32" y="188" type="line"/>
    </contour>
  </outline>
</glyph>
<glyph name="question" format="1">
  <advance width="456"/>
  <unicode hex="003F"/>
  <outline>
    <contour>
      <point x="118" y="493" type="curve"/>
      <point x="46" y="493" type="line"/>
      <point x="49" y="583"/>
      <point x="59" y="618"/>
      <point x="89" y="658" type="curve"/>
      <point x="124" y="702"/>
      <point x="174" y="727"/>
      <point x="229" y="727" type="curve" smooth="yes"/>
      <point x="331" y="727"/>
      <point x="403" y="647"/>
      <point x="403" y="532" type="curve" smooth="yes"/>
      <point x="403" y="471"/>
      <point x="389" y="439"/>
      <point x="326" y="366" type="curve" smooth="yes"/>
      <point x="263" y="294"/>
      <point x="255" y="271"/>
      <point x="255" y="183" type="curve"/>
      <point x="183" y="183" type="line"/>
      <point x="184" y="287"/>
      <point x="194" y="315"/>
      <point x="260" y="398" type="curve" smooth="yes"/>
      <point x="319" y="471"/>
      <point x="326" y="485"/>
      <point x="326" y="531" type="curve" smooth="yes"/>
      <point x="326" y="605"/>
      <point x="288" y="650"/>
      <point x="226" y="650" type="curve" smooth="yes"/>
      <point x="154" y="650"/>
      <point x="120" y="600"/>
    </contour>
    <contour>
      <point x="261" y="102" type="line"/>
      <point x="261" y="0" type="line"/>
      <point x="181" y="0" type="line"/>
      <point x="181" y="102" type="line"/>
    </contour>
  </outline>
</glyph>
<glyph name="B" format="1">
  <advance width="547"/>
  <unicode hex="0042"/>
  <outline>
    <contour>
      <point x="61" y="0" type="line"/>
      <point x="61" y="718" type="line"/>
      <point x="320" y="718" type="line" smooth="yes"/>
      <point x="420" y="718"/>
      <point x="486" y="646"/>
      <point x="486" y="537" type="curve" smooth="yes"/>
      <point x="486" y="468"/>
      <point x="462" y="422"/>
      <point x="408" y="387" type="curve"/>
      <point x="485" y="349"/>
      <point x="514" y="302"/>
      <point x="514" y="214" type="curve" smooth="yes"/>
      <point x="514" y="85"/>
      <point x="435" y="0"/>
      <point x="315" y="0" type="curve" smooth="yes"/>
    </contour>
    <contour>
      <point x="141" y="635" type="line"/>
      <point x="141" y="414" type="line"/>
      <point x="284" y="414" type="line" smooth="yes"/>
      <point x="367" y="414"/>
      <point x="406" y="450"/>
      <point x="406" y="528" type="curve" smooth="yes"/>
      <point x="406" y="601"/>
      <point x="368" y="635"/>
      <point x="285" y="635" type="curve" smooth="yes"/>
    </contour>
    <contour>
      <point x="141" y="336" type="line"/>
      <point x="141" y="83" type="line"/>
      <point x="311" y="83" type="line" smooth="yes"/>
      <point x="389" y="83"/>
      <point x="434" y="131"/>
      <point x="434" y="214" type="curve" smooth="yes"/>
      <point x="434" y="295"/>
      <point x="388" y="336"/>
      <point x="297" y="336" type="curve" smooth="yes"/>
    </contour>
  </outline>
</glyph>
<glyph name="E" format="1">
  <advance width="547"/>
  <unicode hex="0045"/>
  <outline>
    <contour>
      <point x="505" y="87" type="line"/>
      <point x="505" y="0" type="line"/>
      <point x="71" y="0" type="line"/>
      <point x="71" y="718" type="line"/>
      <point x="499" y="718" type="line"/>
      <point x="499" y="631" type="line"/>
      <point x="151" y="631" type="line"/>
      <point x="151" y="412" type="line"/>
      <point x="472" y="412" type="line"/>
      <point x="472" y="325" type="line"/>
      <point x="151" y="325" type="line"/>
      <point x="151" y="87" type="line"/>
    </contour>
  </outline>
</glyph>
<glyph name="F" format="1">
  <advance width="501"/>
  <unicode hex="0046"/>
  <outline>
    <contour>
      <point x="151" y="325" type="line"/>
      <point x="151" y="0" type="line"/>
      <point x="71" y="0" type="line"/>
      <point x="71" y="718" type="line"/>
      <point x="478" y="718" type="line"/>
      <point x="478" y="631" type="line"/>
      <point x="151" y="631" type="line"/>
      <point x="151" y="412" type="line"/>
      <point x="439" y="412" type="line"/>
      <point x="439" y="325" type="line"/>
    </contour>
  </outline>
</glyph>
<glyph name="H" format="1">
  <advance width="592"/>
  <unicode hex="0048"/>
  <outline>
    <contour>
      <point x="450" y="421" type="line"/>
      <point x="450" y="718" type="line"/>
      <point x="530" y="718" type="line"/>
      <point x="530" y="0" type="line"/>
      <point x="450" y="0" type="line"/>
      <point x="450" y="334" type="line"/>
      <point x="143" y="334" type="line"/>
      <point x="143" y="0" type="line"/>
      <point x="63" y="0" type="line"/>
      <point x="63" y="718" type="line"/>
      <point x="143" y="718" type="line"/>
      <point x="143" y="421" type="line"/>
    </contour>
  </outline>
</glyph>
<glyph name="J" format="1">
  <advance width="410"/>
  <unicode hex="004A"/>
  <outline>
    <contour>
      <point x="14" y="231" type="line"/>
      <point x="89" y="231" type="line"/>
      <point x="89" y="181" type="line" smooth="yes"/>
      <point x="89" y="101"/>
      <point x="117" y="64"/>
      <point x="179" y="64" type="curve" smooth="yes"/>
      <point x="241" y="64"/>
      <point x="271" y="105"/>
      <point x="271" y="188" type="curve" smooth="yes"/>
      <point x="271" y="718" type="line"/>
      <point x="351" y="718" type="line"/>
      <point x="351" y="194" type="line" smooth="yes"/>
      <point x="351" y="58"/>
      <point x="289" y="-19"/>
      <point x="180" y="-19" type="curve" smooth="yes"/>
      <point x="79" y="-19"/>
      <point x="14" y="51"/>
      <point x="14" y="160" type="curve" smooth="yes"/>
    </contour>
  </outline>
</glyph>
<glyph name="K" format="1">
  <advance width="547"/>
  <unicode hex="004B"/>
  <outline>
    <contour>
      <point x="142" y="252" type="line"/>
      <point x="142" y="0" type="line"/>
      <point x="62" y="0" type="line"/>
      <point x="62" y="718" type="line"/>
      <point x="142" y="718" type="line"/>
      <point x="142" y="370" type="line"/>
      <point x="428" y="718" type="line"/>
      <point x="538" y="718" type="line"/>
      <point x="292" y="428" type="line"/>
      <point x="544" y="0" type="line"/>
      <point x="441" y="0" type="line"/>
      <point x="235" y="360" type="line"/>
    </contour>
  </outline>
</glyph>
<glyph name="L" format="1">
  <advance width="456"/>
  <unicode hex="004C"/>
  <outline>
    <contour>
      <point x="142" y="718" type="line"/>
      <point x="142" y="87" type="line"/>
      <point x="440" y="87" type="line"/>
      <point x="440" y="0" type="line"/>
      <point x="62" y="0" type="line"/>
      <point x="62" y="718" type="line"/>
    </contour>
  </outline>
</glyph>
<glyph name="M" format="1">
  <advance width="683"/>
  <unicode hex="004D"/>
  <outline>
    <contour>
      <point x="624" y="0" type="line"/>
      <point x="547" y="0" type="line"/>
      <point x="547" y="424" type="line"/>
      <point x="547" y="469" type="line"/>
      <point x="548" y="493"/>
      <point x="548" y="540"/>
      <point x="549" y="609" type="curve"/>
      <point x="381" y="0" type="line"/>
      <point x="303" y="0" type="line"/>
      <point x="135" y="608" type="line"/>
      <point x="136" y="544"/>
      <point x="136" y="490"/>
      <point x="136" y="470" type="curve" smooth="yes"/>
      <point x="137" y="447"/>
      <point x="137" y="432"/>
      <point x="137" y="424" type="curve" smooth="yes"/>
      <point x="137" y="0" type="line"/>
      <point x="60" y="0" type="line"/>
      <point x="60" y="718" type="line"/>
      <point x="174" y="718" type="line"/>
      <point x="343" y="108" type="line"/>
      <point x="511" y="718" type="line"/>
      <point x="624" y="718" type="line"/>
    </contour>
  </outline>
</glyph>
<glyph name="P" format="1">
  <advance width="547"/>
  <unicode hex="0050"/>
  <outline>
    <contour>
      <point x="151" y="303" type="line"/>
      <point x="151" y="0" type="line"/>
      <point x="71" y="0" type="line"/>
      <point x="71" y="718" type="line"/>
      <point x="335" y="718" type="line" smooth="yes"/>
      <point x="440" y="718"/>
      <point x="510" y="637"/>
      <point x="510" y="515" type="curve" smooth="yes"/>
      <point x="510" y="387"/>
      <point x="441" y="303"/>
      <point x="335" y="303" type="curve" smooth="yes"/>
    </contour>
    <contour>
      <point x="151" y="635" type="line"/>
      <point x="151" y="386" type="line"/>
      <point x="308" y="386" type="line" smooth="yes"/>
      <point x="388" y="386"/>
      <point x="428" y="428"/>
      <point x="428" y="512" type="curve" smooth="yes"/>
      <point x="428" y="595"/>
      <point x="390" y="635"/>
      <point x="311" y="635" type="curve" smooth="yes"/>
    </contour>
  </outline>
</glyph>
<glyph name="T" format="1">
  <advance width="501"/>
  <unicode hex="0054"/>
  <outline>
    <contour>
      <point x="11" y="631" type="line"/>
      <point x="11" y="718" type="line"/>
      <point x="490" y="718" type="line"/>
      <point x="490" y="631" type="line"/>
      <point x="291" y="631" type="line"/>
      <point x="291" y="0" type="line"/>
      <point x="211" y="0" type="line"/>
      <point x="211" y="631" type="line"/>
    </contour>
  </outline>
</glyph>
<glyph name="V" format="1">
  <advance width="547"/>
  <unicode hex="0056"/>
  <outline>
    <contour>
      <point x="274" y="103" type="line"/>
      <point x="441" y="718" type="line"/>
      <point x="531" y="718" type="line"/>
      <point x="316" y="0" type="line"/>
      <point x="231" y="0" type="line"/>
      <point x="16" y="718" type="line"/>
      <point x="105" y="718" type="line"/>
    </contour>
  </outline>
</glyph>
<glyph name="W" format="1">
  <advance width="774"/>
  <unicode hex="0057"/>
  <outline>
    <contour>
      <point x="387" y="599" type="line"/>
      <point x="250" y="0" type="line"/>
      <point x="166" y="0" type="line"/>
      <point x="13" y="718" type="line"/>
      <point x="99" y="718" type="line"/>
      <point x="210" y="130" type="line"/>
      <point x="343" y="718" type="line"/>
      <point x="430" y="718" type="line"/>
      <point x="563" y="130" type="line"/>
      <point x="673" y="718" type="line"/>
      <point x="761" y="718" type="line"/>
      <point x="606" y="0" type="line"/>
      <point x="522" y="0" type="line"/>
    </contour>
  </outline>
</glyph>
<glyph name="X" format="1">
  <advance width="547"/>
  <unicode hex="0058"/>
  <outline>
    <contour>
      <point x="325" y="368" type="line"/>
      <point x="531" y="0" type="line"/>
      <point x="433" y="0" type="line"/>
      <point x="275" y="295" type="line"/>
      <point x="112" y="0" type="line"/>
      <point x="16" y="0" type="line"/>
      <point x="226" y="368" type="line"/>
      <point x="29" y="718" type="line"/>
      <point x="129" y="718" type="line"/>
      <point x="278" y="443" type="line"/>
      <point x="427" y="718" type="line"/>
      <point x="522" y="718" type="line"/>
    </contour>
  </outline>
</glyph>
<glyph name="bracketleft" format="1">
  <advance width="228"/>
  <unicode hex="005B"/>
  <outline>
    <contour>
      <point x="117" y="650" type="line"/>
      <point x="117" y="-124" type="line"/>
      <point x="205" y="-124" type="line"/>
      <point x="205" y="-196" type="line"/>
      <point x="52" y="-196" type="line"/>
      <point x="52" y="722" type="line"/>
      <point x="205" y="722" type="line"/>
      <point x="205" y="650" type="line"/>
    </contour>
  </outline>
</glyph>
<glyph name="bracketright" format="1">
  <advance width="228"/>
  <unicode hex="005D"/>
  <outline>
    <contour>
      <point x="111" y="-124" type="line"/>
      <point x="111" y="650" type="line"/>
      <point x="23" y="650" type="line"/>
      <point x="23" y="722" type="line"/>
      <point x="176" y="722" type="line"/>
      <point x="176" y="-196" type="line"/>
      <point x="23" y="-196" type="line"/>
      <point x="23" y="-124" type="line"/>
    </contour>
  </outline>
</glyph>
<glyph name="b" format="1">
  <advance width="456"/>
  <unicode hex="0062"/>
  <outline>
    <contour>
      <point x="116" y="0" type="line"/>
      <point x="48" y="0" type="line"/>
      <point x="48" y="718" type="line"/>
      <point x="120" y="718" type="line"/>
      <point x="120" y="455" type="line"/>
      <point x="157" y="514"/>
      <point x="194" y="538"/>
      <point x="248" y="538" type="curve" smooth="yes"/>
      <point x="353" y="538"/>
      <point x="424" y="432"/>
      <point x="424" y="274" type="curve" smooth="yes"/>
      <point x="424" y="99"/>
      <point x="350" y="-15"/>
      <point x="237" y="-15" type="curve" smooth="yes"/>
      <point x="181" y="-15"/>
      <point x="147" y="8"/>
      <point x="116" y="68" type="curve"/>
    </contour>
    <contour>
      <point x="235" y="460" type="curve" smooth="yes"/>
      <point x="158" y="460"/>
      <point x="117" y="387"/>
      <point x="117" y="249" type="curve" smooth="yes"/>
      <point x="117" y="180"/>
      <point x="129" y="135"/>
      <point x="155" y="102" type="curve" smooth="yes"/>
      <point x="175" y="77"/>
      <point x="204" y="62"/>
      <point x="234" y="62" type="curve" smooth="yes"/>
      <point x="307" y="62"/>
      <point x="349" y="138"/>
      <point x="349" y="268" type="curve" smooth="yes"/>
      <point x="349" y="395"/>
      <point x="310" y="460"/>
    </contour>
  </outline>
</glyph>
<glyph name="f" format="1">
  <advance width="228"/>
  <unicode hex="0066"/>
  <outline>
    <contour>
      <point x="215" y="450" type="line"/>
      <point x="143" y="450" type="line"/>
      <point x="143" y="0" type="line"/>
      <point x="71" y="0" type="line"/>
      <point x="71" y="450" type="line"/>
      <point x="11" y="450" type="line"/>
      <point x="11" y="523" type="line"/>
      <point x="71" y="523" type="line"/>
      <point x="71" y="613" type="line" smooth="yes"/>
      <point x="71" y="688"/>
      <point x="109" y="728"/>
      <point x="180" y="728" type="curve" smooth="yes"/>
      <point x="188" y="728"/>
      <point x="193" y="728"/>
      <point x="215" y="726" type="curve"/>
      <point x="215" y="647" type="line"/>
      <point x="203" y="648"/>
      <point x="192" y="649"/>
      <point x="185" y="649" type="curve" smooth="yes"/>
      <point x="156" y="649"/>
      <point x="143" y="631"/>
      <point x="143" y="588" type="curve" smooth="yes"/>
      <point x="143" y="523" type="line"/>
      <point x="215" y="523" type="line"/>
    </contour>
  </outline>
</glyph>
<glyph name="h" format="1">
  <advance width="456"/>
  <unicode hex="0068"/>
  <outline>
    <contour>
      <point x="125" y="718" type="line"/>
      <point x="125" y="451" type="line"/>
      <point x="167" y="516"/>
      <point x="201" y="538"/>
      <point x="258" y="538" type="curve" smooth="yes"/>
      <point x="349" y="538"/>
      <point x="403" y="471"/>
      <point x="403" y="356" type="curve" smooth="yes"/>
      <point x="403" y="0" type="line"/>
      <point x="331" y="0" type="line"/>
      <point x="331" y="342" type="line" smooth="yes"/>
      <point x="331" y="425"/>
      <point x="306" y="460"/>
      <point x="247" y="460" type="curve" smooth="yes"/>
      <point x="169" y="460"/>
      <point x="125" y="396"/>
      <point x="125" y="285" type="curve" smooth="yes"/>
      <point x="125" y="0" type="line"/>
      <point x="53" y="0" type="line"/>
      <point x="53" y="718" type="line"/>
    </contour>
  </outline>
</glyph>
<glyph name="j" format="1">
  <advance width="182"/>
  <unicode hex="006A"/>
  <outline>
    <contour>
      <point x="127" y="523" type="line"/>
      <point x="127" y="-77" type="line" smooth="yes"/>
      <point x="127" y="-168"/>
      <point x="93" y="-210"/>
      <point x="20" y="-210" type="curve" smooth="yes"/>
      <point x="9" y="-210"/>
      <point x="-1" y="-209"/>
      <point x="-13" y="-207" type="curve"/>
      <point x="-13" y="-131" type="line"/>
      <point x="2" y="-131" type="line" smooth="yes"/>
      <point x="47" y="-131"/>
      <point x="55" y="-122"/>
      <point x="55" y="-67" type="curve" smooth="yes"/>
      <point x="55" y="523" type="line"/>
    </contour>
    <contour>
      <point x="127" y="718" type="line"/>
      <point x="127" y="618" type="line"/>
      <point x="55" y="618" type="line"/>
      <point x="55" y="718" type="line"/>
    </contour>
  </outline>
</glyph>
<glyph name="k" format="1">
  <advance width="410"/>
  <unicode hex="006B"/>
  <outline>
    <contour>
      <point x="237" y="328" type="line"/>
      <point x="411" y="0" type="line"/>
      <point x="318" y="0" type="line"/>
      <point x="185" y="264" type="line"/>
      <point x="125" y="198" type="line"/>
      <point x="125" y="0" type="line"/>
      <point x="55" y="0" type="line"/>
      <point x="55" y="718" type="line"/>
      <point x="125" y="718" type="line"/>
      <point x="125" y="302" type="line"/>
      <point x="310" y="523" type="line"/>
      <point x="401" y="523" type="line"/>
    </contour>
  </outline>
</glyph>
<glyph name="m" format="1">
  <advance width="683"/>
  <unicode hex="006D"/>
  <outline>
    <contour>
      <point x="53" y="0" type="line"/>
      <point x="53" y="523" type="line"/>
      <point x="121" y="523" type="line"/>
      <point x="121" y="446" type="line"/>
      <point x="158" y="511"/>
      <point x="197" y="538"/>
      <point x="254" y="538" type="curve" smooth="yes"/>
      <point x="307" y="538"/>
      <point x="340" y="514"/>
      <point x="367" y="453" type="curve"/>
      <point x="416" y="520"/>
      <point x="444" y="538"/>
      <point x="496" y="538" type="curve" smooth="yes"/>
      <point x="579" y="538"/>
      <point x="631" y="471"/>
      <point x="631" y="362" type="curve" smooth="yes"/>
      <point x="631" y="0" type="line"/>
      <point x="559" y="0" type="line"/>
      <point x="559" y="338" type="line" smooth="yes"/>
      <point x="559" y="420"/>
      <point x="534" y="460"/>
      <point x="481" y="460" type="curve" smooth="yes"/>
      <point x="423" y="460"/>
      <point x="378" y="398"/>
      <point x="378" y="319" type="curve" smooth="yes"/>
      <point x="378" y="0" type="line"/>
      <point x="306" y="0" type="line"/>
      <point x="306" y="362" type="line" smooth="yes"/>
      <point x="306" y="424"/>
      <point x="281" y="460"/>
      <point x="239" y="460" type="curve" smooth="yes"/>
      <point x="170" y="460"/>
      <point x="125" y="391"/>
      <point x="125" y="285" type="curve" smooth="yes"/>
      <point x="125" y="0" type="line"/>
    </contour>
  </outline>
</glyph>
<glyph name="p" format="1">
  <advance width="456"/>
  <unicode hex="0070"/>
  <outline>
    <contour>
      <point x="48" y="-207" type="line"/>
      <point x="48" y="523" type="line"/>
      <point x="116" y="523" type="line"/>
      <point x="116" y="446" type="line"/>
      <point x="154" y="514"/>
      <point x="189" y="538"/>
      <point x="247" y="538" type="curve" smooth="yes"/>
      <point x="353" y="538"/>
      <point x="424" y="432"/>
      <point x="424" y="274" type="curve" smooth="yes"/>
      <point x="424" y="100"/>
      <point x="350" y="-15"/>
      <point x="237" y="-15" type="curve" smooth="yes"/>
      <point x="184" y="-15"/>
      <point x="149" y="7"/>
      <point x="120" y="58" type="curve"/>
      <point x="120" y="-207" type="line"/>
    </contour>
    <contour>
      <point x="235" y="460" type="curve" smooth="yes"/>
      <point x="157" y="460"/>
      <point x="117" y="387"/>
      <point x="117" y="245" type="curve" smooth="yes"/>
      <point x="117" y="131"/>
      <point x="162" y="62"/>
      <point x="234" y="62" type="curve" smooth="yes"/>
      <point x="307" y="62"/>
      <point x="349" y="139"/>
      <point x="349" y="271" type="curve" smooth="yes"/>
      <point x="349" y="394"/>
      <point x="309" y="460"/>
    </contour>
  </outline>
</glyph>
<glyph name="q" format="1">
  <advance width="456"/>
  <unicode hex="0071"/>
  <outline>
    <contour>
      <point x="405" y="523" type="line"/>
      <point x="405" y="-207" type="line"/>
      <point x="333" y="-207" type="line"/>
      <point x="333" y="58" type="line"/>
      <point x="304" y="7"/>
      <point x="269" y="-15"/>
      <point x="216" y="-15" type="curve" smooth="yes"/>
      <point x="103" y="-15"/>
      <point x="29" y="100"/>
      <point x="29" y="274" type="curve" smooth="yes"/>
      <point x="29" y="432"/>
      <point x="100" y="538"/>
      <point x="206" y="538" type="curve" smooth="yes"/>
      <point x="264" y="538"/>
      <point x="298" y="514"/>
      <point x="337" y="446" type="curve"/>
      <point x="337" y="523" type="line"/>
    </contour>
    <contour>
      <point x="221" y="460" type="curve" smooth="yes"/>
      <point x="143" y="460"/>
      <point x="104" y="397"/>
      <point x="104" y="270" type="curve" smooth="yes"/>
      <point x="104" y="139"/>
      <point x="146" y="62"/>
      <point x="218" y="62" type="curve" smooth="yes"/>
      <point x="292" y="62"/>
      <point x="336" y="131"/>
      <point x="336" y="245" type="curve" smooth="yes"/>
      <point x="336" y="385"/>
      <point x="296" y="460"/>
    </contour>
  </outline>
</glyph>
<glyph name="v" format="1">
  <advance width="410"/>
  <unicode hex="0076"/>
  <outline>
    <contour>
      <point x="202" y="94" type="line"/>
      <point x="324" y="523" type="line"/>
      <point x="403" y="523" type="line"/>
      <point x="240" y="0" type="line"/>
      <point x="163" y="0" type="line"/>
      <point x="7" y="523" type="line"/>
      <point x="90" y="523" type="line"/>
    </contour>
  </outline>
</glyph>
<glyph name="w" format="1">
  <advance width="592"/>
  <unicode hex="0077"/>
  <outline>
    <contour>
      <point x="294" y="409" type="line"/>
      <point x="209" y="0" type="line"/>
      <point x="135" y="0" type="line"/>
      <point x="11" y="523" type="line"/>
      <point x="90" y="523" type="line"/>
      <point x="173" y="108" type="line"/>
      <point x="256" y="523" type="line"/>
      <point x="337" y="523" type="line"/>
      <point x="421" y="108" type="line"/>
      <point x="509" y="523" type="line"/>
      <point x="581" y="523" type="line"/>
      <point x="456" y="0" type="line"/>
      <point x="382" y="0" type="line"/>
    </contour>
  </outline>
</glyph>
<glyph name="x" format="1">
  <advance width="410"/>
  <unicode hex="0078"/>
  <outline>
    <contour>
      <point x="251" y="269" type="line"/>
      <point x="402" y="0" type="line"/>
      <point x="310" y="0" type="line"/>
      <point x="203" y="197" type="line"/>
      <point x="100" y="0" type="line"/>
      <point x="9" y="0" type="line"/>
      <point x="160" y="269" type="line"/>
      <point x="16" y="523" type="line"/>
      <point x="109" y="523" type="line"/>
      <point x="208" y="339" type="line"/>
      <point x="308" y="523" type="line"/>
      <point x="396" y="523" type="line"/>
    </contour>
  </outline>
</glyph>
<glyph name="y" format="1">
  <advance width="410"/>
  <unicode hex="0079"/>
  <outline>
    <contour>
      <point x="205" y="94" type="line"/>
      <point x="321" y="523" type="line"/>
      <point x="401" y="523" type="line"/>
      <point x="246" y="10" type="line"/>
      <point x="182" y="-197"/>
      <point x="169" y="-214"/>
      <point x="83" y="-214" type="curve" smooth="yes"/>
      <point x="73" y="-214"/>
      <point x="67" y="-213"/>
      <point x="54" y="-208" type="curve" smooth="yes"/>
      <point x="48" y="-206" type="line"/>
      <point x="48" y="-126" type="line"/>
      <point x="62" y="-132"/>
      <point x="77" y="-135"/>
      <point x="92" y="-135" type="curve" smooth="yes"/>
      <point x="122" y="-135"/>
      <point x="134" y="-121"/>
      <point x="150" y="-68" type="curve" smooth="yes"/>
      <point x="153" y="-60"/>
      <point x="160" y="-38"/>
      <point x="168" y="-14" type="curve"/>
      <point x="9" y="523" type="line"/>
      <point x="90" y="523" type="line"/>
    </contour>
  </outline>
</glyph>
<glyph name="z" format="1">
  <advance width="410"/>
  <unicode hex="007A"/>
  <outline>
    <contour>
      <point x="378" y="451" type="line"/>
      <point x="121" y="73" type="line"/>
      <point x="385" y="73" type="line"/>
      <point x="385" y="0" type="line"/>
      <point x="25" y="0" type="line"/>
      <point x="25" y="69" type="line"/>
      <point x="284" y="450" type="line"/>
      <point x="45" y="450" type="line"/>
      <point x="45" y="523" type="line"/>
      <point x="378" y="523" type="line"/>
    </contour>
  </outline>
</glyph>
<glyph name="bar" format="1">
  <advance width="213"/>
  <unicode hex="007C"/>
  <outline>
    <contour>
      <point x="77" y="-19" type="line"/>
      <point x="77" y="737" type="line"/>
      <point x="137" y="737" type="line"/>
      <point x="137" y="-19" type="line"/>
    </contour>
  </outline>
</glyph>
<glyph name="braceright" format="1">
  <advance width="274"/>
  <unicode hex="007D"/>
  <outline>
    <contour>
      <point x="239" y="294" type="curve"/>
      <point x="239" y="234" type="line"/>
      <point x="220" y="231"/>
      <point x="213" y="227"/>
      <point x="203" y="214" type="curve" smooth="yes"/>
      <point x="183" y="189"/>
      <point x="173" y="151"/>
      <point x="173" y="104" type="curve" smooth="yes"/>
      <point x="173" y="-67" type="line" smooth="yes"/>
      <point x="173" y="-140"/>
      <point x="137" y="-196"/>
      <point x="89" y="-196" type="curve" smooth="yes"/>
      <point x="34" y="-196" type="line"/>
      <point x="34" y="-131" type="line"/>
      <point x="70" y="-131" type="line" smooth="yes"/>
      <point x="95" y="-131"/>
      <point x="108" y="-102"/>
      <point x="108" y="-49" type="curve" smooth="yes"/>
      <point x="108" y="120" type="line" smooth="yes"/>
      <point x="108" y="187"/>
      <point x="136" y="242"/>
      <point x="182" y="264" type="curve"/>
      <point x="139" y="283"/>
      <point x="108" y="341"/>
      <point x="108" y="405" type="curve" smooth="yes"/>
      <point x="108" y="575" type="line" smooth="yes"/>
      <point x="108" y="629"/>
      <point x="95" y="657"/>
      <point x="70" y="657" type="curve" smooth="yes"/>
      <point x="34" y="657" type="line"/>
      <point x="34" y="722" type="line"/>
      <point x="89" y="722" type="line" smooth="yes"/>
      <point x="137" y="722"/>
      <point x="173" y="666"/>
      <point x="173" y="593" type="curve" smooth="yes"/>
      <point x="173" y="421" type="line" smooth="yes"/>
      <point x="173" y="376"/>
      <point x="183" y="339"/>
      <point x="202" y="314" type="curve" smooth="yes"/>
      <point x="212" y="301"/>
      <point x="220" y="297"/>
    </contour>
  </outline>
</glyph>
<glyph name="asciitilde" format="1">
  <advance width="479"/>
  <unicode hex="007E"/>
  <outline>
    <contour>
      <point x="388" y="305" type="curve"/>
      <point x="429" y="267" type="line"/>
      <point x="395" y="206"/>
      <point x="366" y="181"/>
      <point x="326" y="181" type="curve" smooth="yes"/>
      <point x="301" y="181"/>
      <point x="279" y="190"/>
      <point x="243" y="214" type="curve" smooth="yes"/>
      <point x="205" y="239"/>
      <point x="179" y="249"/>
      <point x="150" y="249" type="curve" smooth="yes"/>
      <point x="124" y="249"/>
      <point x="107" y="235"/>
      <point x="89" y="200" type="curve"/>
      <point x="50" y="236" type="line"/>
      <point x="78" y="297"/>
      <point x="108" y="322"/>
      <point x="151" y="322" type="curve" smooth="yes"/>
      <point x="179" y="322"/>
      <point x="199" y="314"/>
      <point x="267" y="277" type="curve" smooth="yes"/>
      <point x="294" y="262"/>
      <point x="316" y="254"/>
      <point x="329" y="254" type="curve" smooth="yes"/>
      <point x="349" y="254"/>
      <point x="366" y="268"/>
    </contour>
  </outline>
</glyph>
<glyph name="exclamdown" format="1">
  <advance width="273"/>
  <unicode hex="00A1"/>
  <outline>
    <contour>
      <point x="97" y="421" type="line"/>
      <point x="97" y="523" type="line"/>
      <point x="176" y="523" type="line"/>
      <point x="176" y="421" type="line"/>
    </contour>
    <contour>
      <point x="117" y="352" type="line"/>
      <point x="156" y="352" type="line"/>
      <point x="176" y="42" type="line"/>
      <point x="176" y="-195" type="line"/>
      <point x="97" y="-195" type="line"/>
      <point x="97" y="42" type="line"/>
    </contour>
  </outline>
</glyph>
<glyph name="cent" format="1">
  <advance width="456"/>
  <unicode hex="00A2"/>
  <outline>
    <contour>
      <point x="418" y="345" type="curve"/>
      <point x="350" y="345" type="line"/>
      <point x="339" y="404"/>
      <point x="324" y="432"/>
      <point x="295" y="447" type="curve"/>
      <point x="204" y="61" type="line"/>
      <point x="213" y="59"/>
      <point x="220" y="58"/>
      <point x="232" y="58" type="curve" smooth="yes"/>
      <point x="299" y="58"/>
      <point x="331" y="91"/>
      <point x="351" y="183" type="curve"/>
      <point x="421" y="183" type="line"/>
      <point x="402" y="52"/>
      <point x="337" y="-19"/>
      <point x="238" y="-19" type="curve" smooth="yes"/>
      <point x="226" y="-19"/>
      <point x="216" y="-18"/>
      <point x="186" y="-12" type="curve"/>
      <point x="161" y="-115" type="line"/>
      <point x="127" y="-115" type="line"/>
      <point x="155" y="-1" type="line"/>
      <point x="76" y="52"/>
      <point x="42" y="128"/>
      <point x="42" y="251" type="curve" smooth="yes"/>
      <point x="42" y="430"/>
      <point x="118" y="538"/>
      <point x="243" y="538" type="curve" smooth="yes"/>
      <point x="259" y="538"/>
      <point x="269" y="536"/>
      <point x="279" y="532" type="curve"/>
      <point x="300" y="623" type="line"/>
      <point x="332" y="623" type="line"/>
      <point x="312" y="523" type="line"/>
      <point x="371" y="499"/>
      <point x="410" y="434"/>
    </contour>
    <contour>
      <point x="174" y="78" type="curve"/>
      <point x="263" y="459" type="line"/>
      <point x="258" y="460"/>
      <point x="252" y="461"/>
      <point x="245" y="461" type="curve" smooth="yes"/>
      <point x="162" y="461"/>
      <point x="114" y="385"/>
      <point x="114" y="252" type="curve" smooth="yes"/>
      <point x="114" y="172"/>
      <point x="135" y="112"/>
    </contour>
  </outline>
</glyph>
<glyph name="sterling" format="1">
  <advance width="456"/>
  <unicode hex="00A3"/>
  <outline>
    <contour>
      <point x="167" y="380" type="curve"/>
      <point x="304" y="380" type="line"/>
      <point x="304" y="317" type="line"/>
      <point x="191" y="317" type="line"/>
      <point x="196" y="292"/>
      <point x="198" y="273"/>
      <point x="198" y="253" type="curve" smooth="yes"/>
      <point x="198" y="226"/>
      <point x="192" y="198"/>
      <point x="180" y="170" type="curve" smooth="yes"/>
      <point x="161" y="128"/>
      <point x="143" y="104"/>
      <point x="95" y="61" type="curve"/>
      <point x="139" y="90"/>
      <point x="171" y="102"/>
      <point x="207" y="102" type="curve" smooth="yes"/>
      <point x="228" y="102"/>
      <point x="253" y="96"/>
      <point x="290" y="82" type="curve" smooth="yes"/>
      <point x="317" y="72"/>
      <point x="335" y="67"/>
      <point x="345" y="67" type="curve" smooth="yes"/>
      <point x="367" y="67"/>
      <point x="389" y="78"/>
      <point x="408" y="98" type="curve"/>
      <point x="442" y="32" type="line"/>
      <point x="403" y="-3"/>
      <point x="375" y="-16"/>
      <point x="339" y="-16" type="curve" smooth="yes"/>
      <point x="321" y="-16"/>
      <point x="299" y="-10"/>
      <point x="261" y="5" type="curve" smooth="yes"/>
      <point x="218" y="22"/>
      <point x="189" y="29"/>
      <point x="168" y="29" type="curve" smooth="yes"/>
      <point x="138" y="29"/>
      <point x="109" y="17"/>
      <point x="70" y="-11" type="curve"/>
      <point x="30" y="58" type="line"/>
      <point x="64" y="88"/>
      <point x="78" y="103"/>
      <point x="93" y="128" type="curve" smooth="yes"/>
      <point x="116" y="165"/>
      <point x="130" y="209"/>
      <point x="130" y="243" type="curve" smooth="yes"/>
      <point x="130" y="263"/>
      <point x="125" y="286"/>
      <point x="115" y="317" type="curve"/>
      <point x="27" y="317" type="line"/>
      <point x="27" y="380" type="line"/>
      <point x="84" y="380" type="line"/>
      <point x="55" y="451"/>
      <point x="48" y="477"/>
      <point x="48" y="516" type="curve" smooth="yes"/>
      <point x="48" y="635"/>
      <point x="129" y="718"/>
      <point x="245" y="718" type="curve" smooth="yes"/>
      <point x="303" y="718"/>
      <point x="347" y="699"/>
      <point x="378" y="660" type="curve" smooth="yes"/>
      <point x="410" y="621"/>
      <point x="427" y="566"/>
      <point x="427" y="505" type="curve" smooth="yes"/>
      <point x="427" y="490" type="line"/>
      <point x="355" y="490" type="line"/>
      <point x="355" y="499" type="line" smooth="yes"/>
      <point x="355" y="583"/>
      <point x="309" y="641"/>
      <point x="240" y="641" type="curve" smooth="yes"/>
      <point x="176" y="641"/>
      <point x="125" y="586"/>
      <point x="125" y="516" type="curve" smooth="yes"/>
      <point x="125" y="484"/>
      <point x="135" y="451"/>
    </contour>
  </outline>
</glyph>
<glyph name="brokenbar" format="1">
  <advance width="213"/>
  <unicode hex="00A6"/>
  <outline>
    <contour>
      <point x="77" y="-19" type="line"/>
      <point x="77" y="275" type="line"/>
      <point x="137" y="275" type="line"/>
      <point x="137" y="-19" type="line"/>
    </contour>
    <contour>
      <point x="77" y="460" type="line"/>
      <point x="77" y="737" type="line"/>
      <point x="137" y="737" type="line"/>
      <point x="137" y="460" type="line"/>
    </contour>
  </outline>
</glyph>
<glyph name="dieresis" format="1">
  <advance width="273"/>
  <unicode hex="00A8"/>
  <outline>
    <contour>
      <point x="108" y="706" type="line"/>
      <point x="108" y="604" type="line"/>
      <point x="33" y="604" type="line"/>
      <point x="33" y="706" type="line"/>
    </contour>
    <contour>
      <point x="240" y="706" type="line"/>
      <point x="240" y="604" type="line"/>
      <point x="165" y="604" type="line"/>
      <point x="165" y="706" type="line"/>
    </contour>
  </outline>
</glyph>
<glyph name="ordfeminine" format="1">
  <advance width="303"/>
  <unicode hex="00AA"/>
  <outline>
    <contour>
      <point x="284" y="454" type="curve"/>
      <point x="284" y="410" type="line"/>
      <point x="278" y="408" type="line" smooth="yes"/>
      <point x="269" y="406"/>
      <point x="263" y="405"/>
      <point x="257" y="405" type="curve" smooth="yes"/>
      <point x="224" y="405"/>
      <point x="212" y="418"/>
      <point x="209" y="456" type="curve"/>
      <point x="178" y="420"/>
      <point x="149" y="405"/>
      <point x="110" y="405" type="curve" smooth="yes"/>
      <point x="56" y="405"/>
      <point x="20" y="442"/>
      <point x="20" y="498" type="curve" smooth="yes"/>
      <point x="20" y="554"/>
      <point x="53" y="590"/>
      <point x="112" y="598" type="curve" smooth="yes"/>
      <point x="184" y="608" type="line" smooth="yes"/>
      <point x="197" y="610"/>
      <point x="204" y="622"/>
      <point x="204" y="643" type="curve" smooth="yes"/>
      <point x="204" y="670"/>
      <point x="182" y="685"/>
      <point x="142" y="685" type="curve" smooth="yes"/>
      <point x="102" y="685"/>
      <point x="83" y="669"/>
      <point x="79" y="632" type="curve"/>
      <point x="34" y="632" type="line"/>
      <point x="39" y="704"/>
      <point x="74" y="737"/>
      <point x="147" y="737" type="curve" smooth="yes"/>
      <point x="213" y="737"/>
      <point x="254" y="704"/>
      <point x="254" y="649" type="curve" smooth="yes"/>
      <point x="254" y="471" type="line" smooth="yes"/>
      <point x="254" y="458"/>
      <point x="258" y="452"/>
      <point x="269" y="452" type="curve" smooth="yes"/>
      <point x="272" y="452"/>
      <point x="276" y="453"/>
    </contour>
    <contour>
      <point x="204" y="531" type="curve" smooth="yes"/>
      <point x="204" y="570" type="line"/>
      <point x="198" y="563"/>
      <point x="181" y="558"/>
      <point x="129" y="550" type="curve" smooth="yes"/>
      <point x="87" y="543"/>
      <point x="72" y="531"/>
      <point x="72" y="505" type="curve" smooth="yes"/>
      <point x="72" y="474"/>
      <point x="88" y="457"/>
      <point x="119" y="457" type="curve" smooth="yes"/>
      <point x="168" y="457"/>
      <point x="204" y="489"/>
    </contour>
    <contour>
      <point x="29" y="352" type="line"/>
      <point x="272" y="352" type="line"/>
      <point x="272" y="304" type="line"/>
      <point x="29" y="304" type="line"/>
    </contour>
  </outline>
</glyph>
<glyph name="logicalnot" format="1">
  <advance width="479"/>
  <unicode hex="00AC"/>
  <outline>
    <contour>
      <point x="387" y="108" type="line"/>
      <point x="387" y="317" type="line"/>
      <point x="32" y="317" type="line"/>
      <point x="32" y="390" type="line"/>
      <point x="447" y="390" type="line"/>
      <point x="447" y="108" type="line"/>
    </contour>
  </outline>
</glyph>
<glyph name="registered" format="1">
  <advance width="604"/>
  <unicode hex="00AE"/>
  <outline>
    <contour>
      <point x="237" y="329" type="line"/>
      <point x="237" y="141" type="line"/>
      <point x="184" y="141" type="line"/>
      <point x="184" y="577" type="line"/>
      <point x="319" y="577" type="line" smooth="yes"/>
      <point x="403" y="577"/>
      <point x="445" y="536"/>
      <point x="445" y="454" type="curve" smooth="yes"/>
      <point x="445" y="383"/>
      <point x="416" y="345"/>
      <point x="353" y="332" type="curve"/>
      <point x="454" y="141" type="line"/>
      <point x="394" y="141" type="line"/>
      <point x="299" y="329" type="line"/>
    </contour>
    <contour>
      <point x="237" y="386" type="line"/>
      <point x="302" y="386" type="line" smooth="yes"/>
      <point x="366" y="386"/>
      <point x="388" y="404"/>
      <point x="388" y="454" type="curve" smooth="yes"/>
      <point x="388" y="499"/>
      <point x="364" y="520"/>
      <point x="311" y="520" type="curve" smooth="yes"/>
      <point x="237" y="520" type="line"/>
    </contour>
    <contour>
      <point x="307" y="737" type="curve" smooth="yes"/>
      <point x="478" y="737"/>
      <point x="617" y="568"/>
      <point x="617" y="359" type="curve" smooth="yes"/>
      <point x="617" y="149"/>
      <point x="478" y="-19"/>
      <point x="304" y="-19" type="curve" smooth="yes"/>
      <point x="128" y="-19"/>
      <point x="-11" y="148"/>
      <point x="-11" y="359" type="curve" smooth="yes"/>
      <point x="-11" y="572"/>
      <point x="127" y="737"/>
    </contour>
    <contour>
      <point x="307" y="674" type="curve" smooth="yes"/>
      <point x="161" y="674"/>
      <point x="51" y="539"/>
      <point x="51" y="360" type="curve" smooth="yes"/>
      <point x="51" y="180"/>
      <point x="160" y="44"/>
      <point x="303" y="44" type="curve" smooth="yes"/>
      <point x="446" y="44"/>
      <point x="555" y="180"/>
      <point x="555" y="359" type="curve" smooth="yes"/>
      <point x="555" y="535"/>
      <point x="446" y="674"/>
    </contour>
  </outline>
</glyph>
<glyph name="macron" format="1">
  <advance width="273"/>
  <unicode hex="00AF"/>
  <outline>
    <contour>
      <point x="265" y="684" type="line"/>
      <point x="265" y="627" type="line"/>
      <point x="8" y="627" type="line"/>
      <point x="8" y="684" type="line"/>
    </contour>
  </outline>
</glyph>
<glyph name="plusminus" format="1">
  <advance width="479"/>
  <unicode hex="00B1"/>
  <outline>
    <contour>
      <point x="210" y="345" type="line"/>
      <point x="210" y="561" type="line"/>
      <point x="270" y="561" type="line"/>
      <point x="270" y="345" type="line"/>
      <point x="447" y="345" type="line"/>
      <point x="447" y="272" type="line"/>
      <point x="270" y="272" type="line"/>
      <point x="270" y="111" type="line"/>
      <point x="210" y="111" type="line"/>
      <point x="210" y="272" type="line"/>
      <point x="32" y="272" type="line"/>
      <point x="32" y="345" type="line"/>
    </contour>
    <contour>
      <point x="32" y="0" type="line"/>
      <point x="32" y="73" type="line"/>
      <point x="447" y="73" type="line"/>
      <point x="447" y="0" type="line"/>
    </contour>
  </outline>
</glyph>
<glyph name="twosuperior" format="1">
  <advance width="273"/>
  <unicode hex="00B2"/>
  <outline>
    <contour>
      <point x="65" y="552" type="curve"/>
      <point x="15" y="552" type="line"/>
      <point x="17" y="611"/>
      <point x="25" y="640"/>
      <point x="47" y="669" type="curve" smooth="yes"/>
      <point x="68" y="697"/>
      <point x="104" y="714"/>
      <point x="143" y="714" type="curve" smooth="yes"/>
      <point x="215" y="714"/>
      <point x="265" y="658"/>
      <point x="265" y="577" type="curve" smooth="yes"/>
      <point x="265" y="515"/>
      <point x="242" y="481"/>
      <point x="167" y="435" type="curve" smooth="yes"/>
      <point x="130" y="412" type="line" smooth="yes"/>
      <point x="98" y="391"/>
      <point x="79" y="371"/>
      <point x="65" y="342" type="curve"/>
      <point x="265" y="342" type="line"/>
      <point x="265" y="280" type="line"/>
      <point x="3" y="280" type="line"/>
      <point x="6" y="359"/>
      <point x="32" y="409"/>
      <point x="88" y="448" type="curve"/>
      <point x="138" y="481" type="line" smooth="yes"/>
      <point x="200" y="523"/>
      <point x="208" y="534"/>
      <point x="208" y="583" type="curve" smooth="yes"/>
      <point x="208" y="629"/>
      <point x="183" y="656"/>
      <point x="139" y="656" type="curve" smooth="yes"/>
      <point x="91" y="656"/>
      <point x="69" y="625"/>
    </contour>
  </outline>
</glyph>
<glyph name="acute" format="1">
  <advance width="273"/>
  <unicode hex="00B4"/>
  <outline>
    <contour>
      <point x="262" y="734" type="line"/>
      <point x="155" y="593" type="line"/>
      <point x="100" y="593" type="line"/>
      <point x="173" y="734" type="line"/>
    </contour>
  </outline>
</glyph>
<glyph name="onequarter" format="1">
  <advance width="684"/>
  <unicode hex="00BC"/>
  <outline>
    <contour>
      <point x="344" y="94" type="line"/>
      <point x="344" y="154" type="line"/>
      <point x="513" y="422" type="line"/>
      <point x="565" y="422" type="line"/>
      <point x="565" y="152" type="line"/>
      <point x="620" y="152" type="line"/>
      <point x="620" y="94" type="line"/>
      <point x="565" y="94" type="line"/>
      <point x="565" y="0" type="line"/>
      <point x="513" y="0" type="line"/>
      <point x="513" y="94" type="line"/>
    </contour>
    <contour>
      <point x="513" y="152" type="line"/>
      <point x="513" y="342" type="line"/>
      <point x="395" y="152" type="line"/>
    </contour>
    <contour>
      <point x="536" y="703" type="line"/>
      <point x="173" y="-19" type="line"/>
      <point x="126" y="-19" type="line"/>
      <point x="489" y="703" type="line"/>
    </contour>
    <contour>
      <point x="149" y="580" type="line"/>
      <point x="60" y="580" type="line"/>
      <point x="60" y="623" type="line"/>
      <point x="130" y="628"/>
      <point x="147" y="641"/>
      <point x="161" y="703" type="curve"/>
      <point x="205" y="703" type="line"/>
      <point x="205" y="281" type="line"/>
      <point x="149" y="281" type="line"/>
    </contour>
  </outline>
</glyph>
<glyph name="onehalf" format="1">
  <advance width="684"/>
  <unicode hex="00BD"/>
  <outline>
    <contour>
      <point x="506" y="703" type="line"/>
      <point x="143" y="-19" type="line"/>
      <point x="97" y="-19" type="line"/>
      <point x="459" y="703" type="line"/>
    </contour>
    <contour>
      <point x="124" y="577" type="line"/>
      <point x="35" y="577" type="line"/>
      <point x="35" y="623" type="line"/>
      <point x="105" y="628"/>
      <point x="122" y="641"/>
      <point x="136" y="703" type="curve"/>
      <point x="182" y="703" type="line"/>
      <point x="182" y="281" type="line"/>
      <point x="124" y="281" type="line"/>
    </contour>
    <contour>
      <point x="434" y="271" type="curve"/>
      <point x="385" y="271" type="line"/>
      <point x="386" y="330"/>
      <point x="394" y="359"/>
      <point x="416" y="388" type="curve" smooth="yes"/>
      <point x="437" y="416"/>
      <point x="473" y="433"/>
      <point x="512" y="433" type="curve" smooth="yes"/>
      <point x="585" y="433"/>
      <point x="634" y="377"/>
      <point x="634" y="296" type="curve" smooth="yes"/>
      <point x="634" y="234"/>
      <point x="611" y="201"/>
      <point x="536" y="155" type="curve" smooth="yes"/>
      <point x="499" y="132" type="line" smooth="yes"/>
      <point x="468" y="112"/>
      <point x="447" y="90"/>
      <point x="434" y="62" type="curve"/>
      <point x="634" y="62" type="line"/>
      <point x="634" y="0" type="line"/>
      <point x="372" y="0" type="line"/>
      <point x="376" y="79"/>
      <point x="401" y="129"/>
      <point x="458" y="167" type="curve" smooth="yes"/>
      <point x="507" y="200" type="line" smooth="yes"/>
      <point x="569" y="242"/>
      <point x="577" y="253"/>
      <point x="577" y="302" type="curve" smooth="yes"/>
      <point x="577" y="348"/>
      <point x="552" y="375"/>
      <point x="508" y="375" type="curve" smooth="yes"/>
      <point x="461" y="375"/>
      <point x="438" y="343"/>
    </contour>
  </outline>
</glyph>
<glyph name="Acircumflex" format="1">
  <advance width="547"/>
  <unicode hex="00C2"/>
  <outline>
    <contour>
      <point x="391" y="209" type="line"/>
      <point x="155" y="209" type="line"/>
      <point x="93" y="0" type="line"/>
      <point x="11" y="0" type="line"/>
      <point x="232" y="718" type="line"/>
      <point x="323" y="718" type="line"/>
      <point x="536" y="0" type="line"/>
      <point x="449" y="0" type="line"/>
    </contour>
    <contour>
      <point x="179" y="296" type="line"/>
      <point x="362" y="296" type="line"/>
      <point x="274" y="614" type="line"/>
    </contour>
    <contour>
      <point x="273" y="881" type="line"/>
      <point x="219" y="788" type="line"/>
      <point x="154" y="788" type="line"/>
      <point x="235" y="929" type="line"/>
      <point x="312" y="929" type="line"/>
      <point x="393" y="788" type="line"/>
      <point x="327" y="788" type="line"/>
    </contour>
  </outline>
</glyph>
<glyph name="Atilde" format="1">
  <advance width="547"/>
  <unicode hex="00C3"/>
  <outline>
    <contour>
      <point x="391" y="209" type="line"/>
      <point x="155" y="209" type="line"/>
      <point x="93" y="0" type="line"/>
      <point x="11" y="0" type="line"/>
      <point x="232" y="718" type="line"/>
      <point x="323" y="718" type="line"/>
      <point x="536" y="0" type="line"/>
      <point x="449" y="0" type="line"/>
    </contour>
    <contour>
      <point x="179" y="296" type="line"/>
      <point x="362" y="296" type="line"/>
      <point x="274" y="614" type="line"/>
    </contour>
    <contour>
      <point x="371" y="917" type="curve"/>
      <point x="412" y="917" type="line"/>
      <point x="402" y="845"/>
      <point x="374" y="808"/>
      <point x="329" y="808" type="curve" smooth="yes"/>
      <point x="317" y="808"/>
      <point x="304" y="812"/>
      <point x="282" y="821" type="curve" smooth="yes"/>
      <point x="261" y="830" type="line" smooth="yes"/>
      <point x="236" y="841"/>
      <point x="221" y="845"/>
      <point x="210" y="845" type="curve" smooth="yes"/>
      <point x="191" y="845"/>
      <point x="181" y="833"/>
      <point x="172" y="801" type="curve"/>
      <point x="133" y="801" type="line"/>
      <point x="143" y="875"/>
      <point x="170" y="908"/>
      <point x="218" y="908" type="curve" smooth="yes"/>
      <point x="235" y="908"/>
      <point x="255" y="903"/>
      <point x="274" y="893" type="curve" smooth="yes"/>
      <point x="292" y="884" type="line" smooth="yes"/>
      <point x="308" y="876"/>
      <point x="323" y="871"/>
      <point x="333" y="871" type="curve" smooth="yes"/>
      <point x="354" y="871"/>
      <point x="365" y="884"/>
    </contour>
  </outline>
</glyph>
<glyph name="Adieresis" format="1">
  <advance width="547"/>
  <unicode hex="00C4"/>
  <outline>
    <contour>
      <point x="391" y="209" type="line"/>
      <point x="155" y="209" type="line"/>
      <point x="93" y="0" type="line"/>
      <point x="11" y="0" type="line"/>
      <point x="232" y="718" type="line"/>
      <point x="323" y="718" type="line"/>
      <point x="536" y="0" type="line"/>
      <point x="449" y="0" type="line"/>
    </contour>
    <contour>
      <point x="179" y="296" type="line"/>
      <point x="362" y="296" type="line"/>
      <point x="274" y="614" type="line"/>
    </contour>
    <contour>
      <point x="244" y="901" type="line"/>
      <point x="244" y="799" type="line"/>
      <point x="169" y="799" type="line"/>
      <point x="169" y="901" type="line"/>
    </contour>
    <contour>
      <point x="376" y="901" type="line"/>
      <point x="376" y="799" type="line"/>
      <point x="301" y="799" type="line"/>
      <point x="301" y="901" type="line"/>
    </contour>
  </outline>
</glyph>
<glyph name="Aring" format="1">
  <advance width="547"/>
  <unicode hex="00C5"/>
  <outline>
    <contour>
      <point x="391" y="209" type="line"/>
      <point x="155" y="209" type="line"/>
      <point x="93" y="0" type="line"/>
      <point x="11" y="0" type="line"/>
      <point x="232" y="718" type="line"/>
      <point x="323" y="718" type="line"/>
      <point x="536" y="0" type="line"/>
      <point x="449" y="0" type="line"/>
    </contour>
    <contour>
      <point x="179" y="296" type="line"/>
      <point x="362" y="296" type="line"/>
      <point x="274" y="614" type="line"/>
    </contour>
    <contour>
      <point x="274" y="944" type="curve" smooth="yes"/>
      <point x="317" y="944"/>
      <point x="349" y="904"/>
      <point x="349" y="852" type="curve" smooth="yes"/>
      <point x="349" y="799"/>
      <point x="317" y="760"/>
      <point x="273" y="760" type="curve" smooth="yes"/>
      <point x="230" y="760"/>
      <point x="198" y="799"/>
      <point x="198" y="852" type="curve" smooth="yes"/>
      <point x="198" y="905"/>
      <point x="230" y="944"/>
    </contour>
    <contour>
      <point x="274" y="904" type="curve" smooth="yes"/>
      <point x="250" y="904"/>
      <point x="231" y="881"/>
      <point x="231" y="852" type="curve" smooth="yes"/>
      <point x="231" y="823"/>
      <point x="250" y="800"/>
      <point x="273" y="800" type="curve" smooth="yes"/>
      <point x="297" y="800"/>
      <point x="316" y="823"/>
      <point x="316" y="852" type="curve" smooth="yes"/>
      <point x="316" y="880"/>
      <point x="297" y="904"/>
    </contour>
  </outline>
</glyph>
<glyph name="Ccedilla" format="1">
  <advance width="592"/>
  <unicode hex="00C7"/>
  <outline>
    <contour>
      <point x="304" y="-19" type="curve"/>
      <point x="278" y="-62" type="line"/>
      <point x="291" y="-59"/>
      <point x="297" y="-58"/>
      <point x="304" y="-58" type="curve" smooth="yes"/>
      <point x="345" y="-58"/>
      <point x="372" y="-88"/>
      <point x="372" y="-133" type="curve" smooth="yes"/>
      <point x="372" y="-187"/>
      <point x="332" y="-225"/>
      <point x="276" y="-225" type="curve" smooth="yes"/>
      <point x="251" y="-225"/>
      <point x="229" y="-219"/>
      <point x="197" y="-203" type="curve"/>
      <point x="211" y="-163" type="line"/>
      <point x="234" y="-175"/>
      <point x="246" y="-178"/>
      <point x="263" y="-178" type="curve" smooth="yes"/>
      <point x="293" y="-178"/>
      <point x="310" y="-163"/>
      <point x="310" y="-136" type="curve" smooth="yes"/>
      <point x="310" y="-113"/>
      <point x="293" y="-96"/>
      <point x="270" y="-96" type="curve" smooth="yes"/>
      <point x="263" y="-96"/>
      <point x="255" y="-98"/>
      <point x="238" y="-105" type="curve"/>
      <point x="224" y="-86" type="line"/>
      <point x="267" y="-17" type="line"/>
      <point x="122" y="5"/>
      <point x="36" y="145"/>
      <point x="36" y="358" type="curve" smooth="yes"/>
      <point x="36" y="590"/>
      <point x="143" y="737"/>
      <point x="311" y="737" type="curve" smooth="yes"/>
      <point x="399" y="737"/>
      <point x="472" y="696"/>
      <point x="514" y="623" type="curve" smooth="yes"/>
      <point x="536" y="586"/>
      <point x="545" y="558"/>
      <point x="552" y="502" type="curve"/>
      <point x="475" y="502" type="line"/>
      <point x="462" y="559"/>
      <point x="449" y="586"/>
      <point x="420" y="612" type="curve" smooth="yes"/>
      <point x="392" y="636"/>
      <point x="354" y="650"/>
      <point x="313" y="650" type="curve" smooth="yes"/>
      <point x="191" y="650"/>
      <point x="118" y="539"/>
      <point x="118" y="354" type="curve" smooth="yes"/>
      <point x="118" y="173"/>
      <point x="188" y="67"/>
      <point x="308" y="67" type="curve" smooth="yes"/>
      <point x="363" y="67"/>
      <point x="405" y="91"/>
      <point x="438" y="140" type="curve"/>
      <point x="459" y="173"/>
      <point x="469" y="202"/>
      <point x="481" y="264" type="curve"/>
      <point x="558" y="264" type="line"/>
      <point x="532" y="123"/>
      <point x="505" y="72"/>
      <point x="431" y="19" type="curve"/>
      <point x="394" y="-5"/>
      <point x="351" y="-18"/>
    </contour>
  </outline>
</glyph>
<glyph name="Ecircumflex" format="1">
  <advance width="547"/>
  <unicode hex="00CA"/>
  <outline>
    <contour>
      <point x="505" y="87" type="line"/>
      <point x="505" y="0" type="line"/>
      <point x="71" y="0" type="line"/>
      <point x="71" y="718" type="line"/>
      <point x="499" y="718" type="line"/>
      <point x="499" y="631" type="line"/>
      <point x="151" y="631" type="line"/>
      <point x="151" y="412" type="line"/>
      <point x="472" y="412" type="line"/>
      <point x="472" y="325" type="line"/>
      <point x="151" y="325" type="line"/>
      <point x="151" y="87" type="line"/>
    </contour>
    <contour>
      <point x="274" y="881" type="line"/>
      <point x="220" y="788" type="line"/>
      <point x="155" y="788" type="line"/>
      <point x="236" y="929" type="line"/>
      <point x="313" y="929" type="line"/>
      <point x="394" y="788" type="line"/>
      <point x="328" y="788" type="line"/>
    </contour>
  </outline>
</glyph>
<glyph name="Edieresis" format="1">
  <advance width="547"/>
  <unicode hex="00CB"/>
  <outline>
    <contour>
      <point x="505" y="87" type="line"/>
      <point x="505" y="0" type="line"/>
      <point x="71" y="0" type="line"/>
      <point x="71" y="718" type="line"/>
      <point x="499" y="718" type="line"/>
      <point x="499" y="631" type="line"/>
      <point x="151" y="631" type="line"/>
      <point x="151" y="412" type="line"/>
      <point x="472" y="412" type="line"/>
      <point x="472" y="325" type="line"/>
      <point x="151" y="325" type="line"/>
      <point x="151" y="87" type="line"/>
    </contour>
    <contour>
      <point x="245" y="901" type="line"/>
      <point x="245" y="799" type="line"/>
      <point x="170" y="799" type="line"/>
      <point x="170" y="901" type="line"/>
    </contour>
    <contour>
      <point x="377" y="901" type="line"/>
      <point x="377" y="799" type="line"/>
      <point x="302" y="799" type="line"/>
      <point x="302" y="901" type="line"/>
    </contour>
  </outline>
</glyph>
<glyph name="Igrave" format="1">
  <advance width="228"/>
  <unicode hex="00CC"/>
  <outline>
    <contour>
      <point x="154" y="718" type="line"/>
      <point x="154" y="0" type="line"/>
      <point x="74" y="0" type="line"/>
      <point x="74" y="718" type="line"/>
    </contour>
    <contour>
      <point x="96" y="788" type="line"/>
      <point x="-11" y="929" type="line"/>
      <point x="78" y="929" type="line"/>
      <point x="151" y="788" type="line"/>
    </contour>
  </outline>
</glyph>
<glyph name="Iacute" format="1">
  <advance width="228"/>
  <unicode hex="00CD"/>
  <outline>
    <contour>
      <point x="154" y="718" type="line"/>
      <point x="154" y="0" type="line"/>
      <point x="75" y="0" type="line"/>
      <point x="75" y="718" type="line"/>
    </contour>
    <contour>
      <point x="240" y="903" type="line"/>
      <point x="133" y="762" type="line"/>
      <point x="78" y="762" type="line"/>
      <point x="151" y="903" type="line"/>
    </contour>
  </outline>
</glyph>
<glyph name="Icircumflex" format="1">
  <advance width="228"/>
  <unicode hex="00CE"/>
  <outline>
    <contour>
      <point x="155" y="718" type="line"/>
      <point x="155" y="0" type="line"/>
      <point x="75" y="0" type="line"/>
      <point x="75" y="718" type="line"/>
    </contour>
    <contour>
      <point x="114" y="881" type="line"/>
      <point x="60" y="788" type="line"/>
      <point x="-5" y="788" type="line"/>
      <point x="76" y="929" type="line"/>
      <point x="153" y="929" type="line"/>
      <point x="234" y="788" type="line"/>
      <point x="168" y="788" type="line"/>
    </contour>
  </outline>
</glyph>
<glyph name="Idieresis" format="1">
  <advance width="228"/>
  <unicode hex="00CF"/>
  <outline>
    <contour>
      <point x="155" y="718" type="line"/>
      <point x="155" y="0" type="line"/>
      <point x="75" y="0" type="line"/>
      <point x="75" y="718" type="line"/>
    </contour>
    <contour>
      <point x="86" y="901" type="line"/>
      <point x="86" y="799" type="line"/>
      <point x="11" y="799" type="line"/>
      <point x="11" y="901" type="line"/>
    </contour>
    <contour>
      <point x="218" y="901" type="line"/>
      <point x="218" y="799" type="line"/>
      <point x="143" y="799" type="line"/>
      <point x="143" y="901" type="line"/>
    </contour>
  </outline>
</glyph>
<glyph name="Ntilde" format="1">
  <advance width="592"/>
  <unicode hex="00D1"/>
  <outline>
    <contour>
      <point x="453" y="135" type="line"/>
      <point x="453" y="718" type="line"/>
      <point x="530" y="718" type="line"/>
      <point x="530" y="0" type="line"/>
      <point x="441" y="0" type="line"/>
      <point x="139" y="583" type="line"/>
      <point x="139" y="0" type="line"/>
      <point x="62" y="0" type="line"/>
      <point x="62" y="718" type="line"/>
      <point x="156" y="718" type="line"/>
    </contour>
    <contour>
      <point x="403" y="917" type="curve"/>
      <point x="444" y="917" type="line"/>
      <point x="434" y="845"/>
      <point x="406" y="808"/>
      <point x="361" y="808" type="curve" smooth="yes"/>
      <point x="349" y="808"/>
      <point x="336" y="812"/>
      <point x="314" y="821" type="curve" smooth="yes"/>
      <point x="293" y="830" type="line" smooth="yes"/>
      <point x="268" y="841"/>
      <point x="253" y="845"/>
      <point x="242" y="845" type="curve" smooth="yes"/>
      <point x="223" y="845"/>
      <point x="213" y="833"/>
      <point x="204" y="801" type="curve"/>
      <point x="165" y="801" type="line"/>
      <point x="175" y="875"/>
      <point x="202" y="908"/>
      <point x="250" y="908" type="curve" smooth="yes"/>
      <point x="267" y="908"/>
      <point x="287" y="903"/>
      <point x="306" y="893" type="curve" smooth="yes"/>
      <point x="324" y="884" type="line" smooth="yes"/>
      <point x="340" y="876"/>
      <point x="355" y="871"/>
      <point x="365" y="871" type="curve" smooth="yes"/>
      <point x="386" y="871"/>
      <point x="397" y="884"/>
    </contour>
  </outline>
</glyph>
<glyph name="multiply" format="1">
  <advance width="479"/>
  <unicode hex="00D7"/>
  <outline>
    <contour>
      <point x="198" y="253" type="line"/>
      <point x="32" y="455" type="line"/>
      <point x="75" y="506" type="line"/>
      <point x="239" y="305" type="line"/>
      <point x="405" y="506" type="line"/>
      <point x="447" y="455" type="line"/>
      <point x="282" y="253" type="line"/>
      <point x="447" y="51" type="line"/>
      <point x="405" y="0" type="line"/>
      <point x="239" y="201" type="line"/>
      <point x="74" y="0" type="line"/>
      <point x="32" y="51" type="line"/>
    </contour>
  </outline>
</glyph>
<glyph name="Ucircumflex" format="1">
  <advance width="592"/>
  <unicode hex="00DB"/>
  <outline>
    <contour>
      <point x="448" y="718" type="line"/>
      <point x="528" y="718" type="line"/>
      <point x="528" y="252" type="line" smooth="yes"/>
      <point x="528" y="87"/>
      <point x="436" y="-19"/>
      <point x="292" y="-19" type="curve" smooth="yes"/>
      <point x="153" y="-19"/>
      <point x="65" y="81"/>
      <point x="65" y="239" type="curve" smooth="yes"/>
      <point x="65" y="718" type="line"/>
      <point x="145" y="718" type="line"/>
      <point x="145" y="266" type="line" smooth="yes"/>
      <point x="145" y="139"/>
      <point x="199" y="68"/>
      <point x="295" y="68" type="curve" smooth="yes"/>
      <point x="392" y="68"/>
      <point x="448" y="139"/>
      <point x="448" y="264" type="curve" smooth="yes"/>
    </contour>
    <contour>
      <point x="296" y="881" type="line"/>
      <point x="242" y="788" type="line"/>
      <point x="177" y="788" type="line"/>
      <point x="258" y="929" type="line"/>
      <point x="335" y="929" type="line"/>
      <point x="416" y="788" type="line"/>
      <point x="350" y="788" type="line"/>
    </contour>
  </outline>
</glyph>
<glyph name="Yacute" format="1">
  <advance width="547"/>
  <unicode hex="00DD"/>
  <outline>
    <contour>
      <point x="313" y="289" type="line"/>
      <point x="313" y="0" type="line"/>
      <point x="233" y="0" type="line"/>
      <point x="233" y="289" type="line"/>
      <point x="11" y="718" type="line"/>
      <point x="104" y="718" type="line"/>
      <point x="273" y="373" type="line"/>
      <point x="442" y="718" type="line"/>
      <point x="535" y="718" type="line"/>
    </contour>
    <contour>
      <point x="398" y="929" type="line"/>
      <point x="291" y="788" type="line"/>
      <point x="236" y="788" type="line"/>
      <point x="309" y="929" type="line"/>
    </contour>
  </outline>
</glyph>
<glyph name="Thorn" format="1">
  <advance width="547"/>
  <unicode hex="00DE"/>
  <outline>
    <contour>
      <point x="71" y="0" type="line"/>
      <point x="71" y="718" type="line"/>
      <point x="151" y="718" type="line"/>
      <point x="151" y="599" type="line"/>
      <point x="335" y="599" type="line" smooth="yes"/>
      <point x="440" y="599"/>
      <point x="510" y="518"/>
      <point x="510" y="396" type="curve" smooth="yes"/>
      <point x="510" y="268"/>
      <point x="441" y="184"/>
      <point x="335" y="184" type="curve" smooth="yes"/>
      <point x="151" y="184" type="line"/>
      <point x="151" y="0" type="line"/>
    </contour>
    <contour>
      <point x="151" y="516" type="line"/>
      <point x="151" y="267" type="line"/>
      <point x="308" y="267" type="line" smooth="yes"/>
      <point x="388" y="267"/>
      <point x="428" y="309"/>
      <point x="428" y="393" type="curve" smooth="yes"/>
      <point x="428" y="476"/>
      <point x="390" y="516"/>
      <point x="311" y="516" type="curve" smooth="yes"/>
    </contour>
  </outline>
</glyph>
<glyph name="germandbls" format="1">
  <advance width="501"/>
  <unicode hex="00DF"/>
  <outline>
    <contour>
      <point x="218" y="-8" type="line"/>
      <point x="218" y="67" type="line"/>
      <point x="228" y="65"/>
      <point x="242" y="63"/>
      <point x="253" y="63" type="curve" smooth="yes"/>
      <point x="345" y="63"/>
      <point x="393" y="115"/>
      <point x="393" y="214" type="curve" smooth="yes"/>
      <point x="393" y="309"/>
      <point x="348" y="354"/>
      <point x="253" y="354" type="curve" smooth="yes"/>
      <point x="241" y="354"/>
      <point x="232" y="353"/>
      <point x="222" y="350" type="curve"/>
      <point x="222" y="429" type="line"/>
      <point x="227" y="428"/>
      <point x="238" y="427"/>
      <point x="245" y="427" type="curve" smooth="yes"/>
      <point x="323" y="427"/>
      <point x="368" y="468"/>
      <point x="368" y="538" type="curve" smooth="yes"/>
      <point x="368" y="608"/>
      <point x="321" y="651"/>
      <point x="244" y="651" type="curve" smooth="yes"/>
      <point x="162" y="651"/>
      <point x="127" y="609"/>
      <point x="127" y="510" type="curve" smooth="yes"/>
      <point x="127" y="0" type="line"/>
      <point x="55" y="0" type="line"/>
      <point x="55" y="532" type="line" smooth="yes"/>
      <point x="55" y="655"/>
      <point x="127" y="728"/>
      <point x="247" y="728" type="curve" smooth="yes"/>
      <point x="365" y="728"/>
      <point x="440" y="657"/>
      <point x="440" y="546" type="curve" smooth="yes"/>
      <point x="440" y="481"/>
      <point x="420" y="437"/>
      <point x="373" y="400" type="curve"/>
      <point x="434" y="374"/>
      <point x="468" y="311"/>
      <point x="468" y="223" type="curve" smooth="yes"/>
      <point x="468" y="159"/>
      <point x="448" y="95"/>
      <point x="413" y="51" type="curve" smooth="yes"/>
      <point x="380" y="9"/>
      <point x="325" y="-15"/>
      <point x="262" y="-15" type="curve" smooth="yes"/>
      <point x="246" y="-15"/>
      <point x="237" y="-14"/>
      <point x="221" y="-9" type="curve" smooth="yes"/>
    </contour>
  </outline>
</glyph>
<glyph name="igrave" format="1">
  <advance width="228"/>
  <unicode hex="00EC"/>
  <outline>
    <contour>
      <point x="150" y="523" type="line"/>
      <point x="150" y="0" type="line"/>
      <point x="78" y="0" type="line"/>
      <point x="78" y="523" type="line"/>
    </contour>
    <contour>
      <point x="96" y="593" type="line"/>
      <point x="-11" y="734" type="line"/>
      <point x="78" y="734" type="line"/>
      <point x="151" y="593" type="line"/>
    </contour>
  </outline>
</glyph>
<glyph name="iacute" format="1">
  <advance width="228"/>
  <unicode hex="00ED"/>
  <outline>
    <contour>
      <point x="150" y="523" type="line"/>
      <point x="150" y="0" type="line"/>
      <point x="78" y="0" type="line"/>
      <point x="78" y="523" type="line"/>
    </contour>
    <contour>
      <point x="240" y="734" type="line"/>
      <point x="133" y="593" type="line"/>
      <point x="78" y="593" type="line"/>
      <point x="151" y="734" type="line"/>
    </contour>
  </outline>
</glyph>
<glyph name="icircumflex" format="1">
  <advance width="228"/>
  <unicode hex="00EE"/>
  <outline>
    <contour>
      <point x="150" y="523" type="line"/>
      <point x="150" y="0" type="line"/>
      <point x="78" y="0" type="line"/>
      <point x="78" y="523" type="line"/>
    </contour>
    <contour>
      <point x="114" y="686" type="line"/>
      <point x="60" y="593" type="line"/>
      <point x="-5" y="593" type="line"/>
      <point x="76" y="734" type="line"/>
      <point x="153" y="734" type="line"/>
      <point x="234" y="593" type="line"/>
      <point x="168" y="593" type="line"/>
    </contour>
  </outline>
</glyph>
<glyph name="idieresis" format="1">
  <advance width="228"/>
  <unicode hex="00EF"/>
  <outline>
    <contour>
      <point x="150" y="523" type="line"/>
      <point x="150" y="0" type="line"/>
      <point x="78" y="0" type="line"/>
      <point x="78" y="523" type="line"/>
    </contour>
    <contour>
      <point x="86" y="706" type="line"/>
      <point x="86" y="604" type="line"/>
      <point x="11" y="604" type="line"/>
      <point x="11" y="706" type="line"/>
    </contour>
    <contour>
      <point x="218" y="706" type="line"/>
      <point x="218" y="604" type="line"/>
      <point x="143" y="604" type="line"/>
      <point x="143" y="706" type="line"/>
    </contour>
  </outline>
</glyph>
<glyph name="ntilde" format="1">
  <advance width="456"/>
  <unicode hex="00F1"/>
  <outline>
    <contour>
      <point x="121" y="523" type="line"/>
      <point x="121" y="446" type="line"/>
      <point x="158" y="511"/>
      <point x="199" y="538"/>
      <point x="258" y="538" type="curve" smooth="yes"/>
      <point x="349" y="538"/>
      <point x="403" y="471"/>
      <point x="403" y="356" type="curve" smooth="yes"/>
      <point x="403" y="0" type="line"/>
      <point x="331" y="0" type="line"/>
      <point x="331" y="322" type="line" smooth="yes"/>
      <point x="331" y="418"/>
      <point x="304" y="460"/>
      <point x="243" y="460" type="curve" smooth="yes"/>
      <point x="170" y="460"/>
      <point x="125" y="394"/>
      <point x="125" y="285" type="curve" smooth="yes"/>
      <point x="125" y="0" type="line"/>
      <point x="53" y="0" type="line"/>
      <point x="53" y="523" type="line"/>
    </contour>
    <contour>
      <point x="318" y="722" type="curve"/>
      <point x="359" y="722" type="line"/>
      <point x="349" y="650"/>
      <point x="321" y="613"/>
      <point x="276" y="613" type="curve" smooth="yes"/>
      <point x="264" y="613"/>
      <point x="251" y="617"/>
      <point x="229" y="626" type="curve" smooth="yes"/>
      <point x="208" y="635" type="line" smooth="yes"/>
      <point x="183" y="646"/>
      <point x="168" y="650"/>
      <point x="157" y="650" type="curve" smooth="yes"/>
      <point x="138" y="650"/>
      <point x="128" y="638"/>
      <point x="119" y="606" type="curve"/>
      <point x="80" y="606" type="line"/>
      <point x="90" y="680"/>
      <point x="117" y="713"/>
      <point x="165" y="713" type="curve" smooth="yes"/>
      <point x="182" y="713"/>
      <point x="202" y="708"/>
      <point x="221" y="698" type="curve" smooth="yes"/>
      <point x="239" y="689" type="line" smooth="yes"/>
      <point x="255" y="681"/>
      <point x="270" y="676"/>
      <point x="280" y="676" type="curve" smooth="yes"/>
      <point x="301" y="676"/>
      <point x="312" y="689"/>
    </contour>
  </outline>
</glyph>
<glyph name="otilde" format="1">
  <advance width="456"/>
  <unicode hex="00F5"/>
  <outline>
    <contour>
      <point x="231" y="538" type="curve" smooth="yes"/>
      <point x="346" y="538"/>
      <point x="427" y="423"/>
      <point x="427" y="262" type="curve" smooth="yes"/>
      <point x="427" y="99"/>
      <point x="346" y="-14"/>
      <point x="228" y="-14" type="curve" smooth="yes"/>
      <point x="111" y="-14"/>
      <point x="29" y="99"/>
      <point x="29" y="262" type="curve" smooth="yes"/>
      <point x="29" y="427"/>
      <point x="110" y="538"/>
    </contour>
    <contour>
      <point x="230" y="461" type="curve" smooth="yes"/>
      <point x="152" y="461"/>
      <point x="104" y="384"/>
      <point x="104" y="262" type="curve" smooth="yes"/>
      <point x="104" y="141"/>
      <point x="153" y="63"/>
      <point x="228" y="63" type="curve" smooth="yes"/>
      <point x="303" y="63"/>
      <point x="352" y="141"/>
      <point x="352" y="262" type="curve" smooth="yes"/>
      <point x="352" y="382"/>
      <point x="303" y="461"/>
    </contour>
    <contour>
      <point x="327" y="722" type="curve"/>
      <point x="368" y="722" type="line"/>
      <point x="358" y="650"/>
      <point x="330" y="613"/>
      <point x="285" y="613" type="curve" smooth="yes"/>
      <point x="273" y="613"/>
      <point x="260" y="617"/>
      <point x="238" y="626" type="curve" smooth="yes"/>
      <point x="217" y="635" type="line" smooth="yes"/>
      <point x="192" y="646"/>
      <point x="177" y="650"/>
      <point x="166" y="650" type="curve" smooth="yes"/>
      <point x="147" y="650"/>
      <point x="137" y="638"/>
      <point x="128" y="606" type="curve"/>
      <point x="89" y="606" type="line"/>
      <point x="99" y="680"/>
      <point x="126" y="713"/>
      <point x="174" y="713" type="curve" smooth="yes"/>
      <point x="191" y="713"/>
      <point x="211" y="708"/>
      <point x="230" y="698" type="curve" smooth="yes"/>
      <point x="248" y="689" type="line" smooth="yes"/>
      <point x="264" y="681"/>
      <point x="279" y="676"/>
      <point x="289" y="676" type="curve" smooth="yes"/>
      <point x="310" y="676"/>
      <point x="321" y="689"/>
    </contour>
  </outline>
</glyph>
<glyph name="divide" format="1">
  <advance width="479"/>
  <unicode hex="00F7"/>
  <outline>
    <contour>
      <point x="447" y="216" type="line"/>
      <point x="32" y="216" type="line"/>
      <point x="32" y="289" type="line"/>
      <point x="447" y="289" type="line"/>
    </contour>
    <contour>
      <point x="241" y="524" type="curve" smooth="yes"/>
      <point x="270" y="524"/>
      <point x="296" y="492"/>
      <point x="296" y="456" type="curve" smooth="yes"/>
      <point x="296" y="421"/>
      <point x="269" y="388"/>
      <point x="240" y="388" type="curve" smooth="yes"/>
      <point x="210" y="388"/>
      <point x="184" y="420"/>
      <point x="184" y="456" type="curve" smooth="yes"/>
      <point x="184" y="493"/>
      <point x="210" y="524"/>
    </contour>
    <contour>
      <point x="241" y="117" type="curve" smooth="yes"/>
      <point x="270" y="117"/>
      <point x="296" y="85"/>
      <point x="296" y="50" type="curve" smooth="yes"/>
      <point x="296" y="14"/>
      <point x="269" y="-19"/>
      <point x="240" y="-19" type="curve" smooth="yes"/>
      <point x="210" y="-19"/>
      <point x="184" y="13"/>
      <point x="184" y="49" type="curve" smooth="yes"/>
      <point x="184" y="86"/>
      <point x="210" y="117"/>
    </contour>
  </outline>
</glyph>
<glyph name="oslash" format="1">
  <advance width="501"/>
  <unicode hex="00F8"/>
  <outline>
    <contour>
      <point x="440" y="519" type="line"/>
      <point x="383" y="441" type="line"/>
      <point x="414" y="383"/>
      <point x="427" y="331"/>
      <point x="427" y="261" type="curve" smooth="yes"/>
      <point x="427" y="98"/>
      <point x="345" y="-14"/>
      <point x="227" y="-14" type="curve" smooth="yes"/>
      <point x="175" y="-14"/>
      <point x="137" y="4"/>
      <point x="98" y="46" type="curve"/>
      <point x="48" y="-22" type="line"/>
      <point x="23" y="4" type="line"/>
      <point x="75" y="76" type="line"/>
      <point x="43" y="135"/>
      <point x="29" y="191"/>
      <point x="29" y="262" type="curve" smooth="yes"/>
      <point x="29" y="426"/>
      <point x="110" y="538"/>
      <point x="229" y="538" type="curve" smooth="yes"/>
      <point x="283" y="538"/>
      <point x="322" y="519"/>
      <point x="362" y="473" type="curve"/>
      <point x="415" y="545" type="line"/>
    </contour>
    <contour>
      <point x="124" y="143" type="curve"/>
      <point x="317" y="410" type="line"/>
      <point x="292" y="446"/>
      <point x="266" y="461"/>
      <point x="228" y="461" type="curve" smooth="yes"/>
      <point x="153" y="461"/>
      <point x="104" y="383"/>
      <point x="104" y="262" type="curve" smooth="yes"/>
      <point x="104" y="220"/>
      <point x="110" y="183"/>
    </contour>
    <contour>
      <point x="334" y="373" type="curve"/>
      <point x="143" y="108" type="line"/>
      <point x="166" y="77"/>
      <point x="192" y="63"/>
      <point x="227" y="63" type="curve" smooth="yes"/>
      <point x="303" y="63"/>
      <point x="352" y="141"/>
      <point x="352" y="262" type="curve" smooth="yes"/>
      <point x="352" y="303"/>
      <point x="347" y="335"/>
    </contour>
  </outline>
</glyph>
<glyph name="thorn" format="1">
  <advance width="456"/>
  <unicode hex="00FE"/>
  <outline>
    <contour>
      <point x="48" y="-207" type="line"/>
      <point x="48" y="718" type="line"/>
      <point x="120" y="718" type="line"/>
      <point x="120" y="448" type="line"/>
      <point x="155" y="513"/>
      <point x="189" y="538"/>
      <point x="246" y="538" type="curve" smooth="yes"/>
      <point x="353" y="538"/>
      <point x="424" y="433"/>
      <point x="424" y="274" type="curve" smooth="yes"/>
      <point x="424" y="100"/>
      <point x="350" y="-15"/>
      <point x="237" y="-15" type="curve" smooth="yes"/>
      <point x="184" y="-15"/>
      <point x="149" y="7"/>
      <point x="120" y="58" type="curve"/>
      <point x="120" y="-207" type="line"/>
    </contour>
    <contour>
      <point x="235" y="460" type="curve" smooth="yes"/>
      <point x="157" y="460"/>
      <point x="117" y="387"/>
      <point x="117" y="244" type="curve" smooth="yes"/>
      <point x="117" y="131"/>
      <point x="162" y="62"/>
      <point x="234" y="62" type="curve" smooth="yes"/>
      <point x="307" y="62"/>
      <point x="349" y="139"/>
      <point x="349" y="271" type="curve" smooth="yes"/>
      <point x="349" y="394"/>
      <point x="309" y="460"/>
    </contour>
  </outline>
</glyph>
<glyph name="Abreve" format="1">
  <advance width="547"/>
  <unicode hex="0102"/>
  <outline>
    <contour>
      <point x="391" y="209" type="line"/>
      <point x="155" y="209" type="line"/>
      <point x="93" y="0" type="line"/>
      <point x="11" y="0" type="line"/>
      <point x="232" y="718" type="line"/>
      <point x="323" y="718" type="line"/>
      <point x="536" y="0" type="line"/>
      <point x="449" y="0" type="line"/>
    </contour>
    <contour>
      <point x="179" y="296" type="line"/>
      <point x="362" y="296" type="line"/>
      <point x="274" y="614" type="line"/>
    </contour>
    <contour>
      <point x="361" y="926" type="curve"/>
      <point x="400" y="926" type="line"/>
      <point x="388" y="832"/>
      <point x="349" y="790"/>
      <point x="271" y="790" type="curve" smooth="yes"/>
      <point x="196" y="790"/>
      <point x="158" y="832"/>
      <point x="148" y="926" type="curve"/>
      <point x="188" y="926" type="line"/>
      <point x="190" y="919" type="line"/>
      <point x="203" y="869"/>
      <point x="229" y="847"/>
      <point x="276" y="847" type="curve" smooth="yes"/>
      <point x="325" y="847"/>
      <point x="346" y="867"/>
    </contour>
  </outline>
</glyph>
<glyph name="Aogonek" format="1">
  <advance width="547"/>
  <unicode hex="0104"/>
  <outline>
    <contour>
      <point x="391" y="209" type="line"/>
      <point x="155" y="209" type="line"/>
      <point x="93" y="0" type="line"/>
      <point x="11" y="0" type="line"/>
      <point x="232" y="718" type="line"/>
      <point x="323" y="718" type="line"/>
      <point x="536" y="0" type="line"/>
      <point x="536" y="-4" type="line"/>
      <point x="471" y="-49"/>
      <point x="454" y="-74"/>
      <point x="454" y="-124" type="curve" smooth="yes"/>
      <point x="454" y="-161"/>
      <point x="469" y="-178"/>
      <point x="501" y="-178" type="curve" smooth="yes"/>
      <point x="517" y="-178"/>
      <point x="528" y="-175"/>
      <point x="553" y="-163" type="curve"/>
      <point x="567" y="-203" type="line"/>
      <point x="537" y="-218"/>
      <point x="512" y="-225"/>
      <point x="487" y="-225" type="curve" smooth="yes"/>
      <point x="431" y="-225"/>
      <point x="392" y="-187"/>
      <point x="392" y="-133" type="curve" smooth="yes"/>
      <point x="392" y="-95"/>
      <point x="406" y="-57"/>
      <point x="431" y="-31" type="curve" smooth="yes"/>
      <point x="444" y="-17"/>
      <point x="452" y="-13"/>
      <point x="481" y="0" type="curve"/>
      <point x="449" y="0" type="line"/>
    </contour>
    <contour>
      <point x="179" y="296" type="line"/>
      <point x="362" y="296" type="line"/>
      <point x="274" y="614" type="line"/>
    </contour>
  </outline>
</glyph>
<glyph name="cacute" format="1">
  <advance width="410"/>
  <unicode hex="0107"/>
  <outline>
    <contour>
      <point x="391" y="347" type="curve"/>
      <point x="321" y="347" type="line"/>
      <point x="309" y="426"/>
      <point x="278" y="460"/>
      <point x="221" y="460" type="curve" smooth="yes"/>
      <point x="146" y="460"/>
      <point x="102" y="386"/>
      <point x="102" y="259" type="curve" smooth="yes"/>
      <point x="102" y="133"/>
      <point x="143" y="62"/>
      <point x="216" y="62" type="curve" smooth="yes"/>
      <point x="271" y="62"/>
      <point x="306" y="103"/>
      <point x="321" y="185" type="curve"/>
      <point x="391" y="185" type="line"/>
      <point x="374" y="52"/>
      <point x="315" y="-15"/>
      <point x="217" y="-15" type="curve" smooth="yes"/>
      <point x="100" y="-15"/>
      <point x="25" y="89"/>
      <point x="25" y="252" type="curve" smooth="yes"/>
      <point x="25" y="427"/>
      <point x="104" y="538"/>
      <point x="228" y="538" type="curve" smooth="yes"/>
      <point x="324" y="538"/>
      <point x="378" y="475"/>
    </contour>
    <contour>
      <point x="351" y="734" type="line"/>
      <point x="244" y="593" type="line"/>
      <point x="189" y="593" type="line"/>
      <point x="262" y="734" type="line"/>
    </contour>
  </outline>
</glyph>
<glyph name="Dcaron" format="1">
  <advance width="592"/>
  <unicode hex="010E"/>
  <outline>
    <contour>
      <point x="66" y="0" type="line"/>
      <point x="66" y="718" type="line"/>
      <point x="305" y="718" type="line" smooth="yes"/>
      <point x="456" y="718"/>
      <point x="553" y="580"/>
      <point x="553" y="367" type="curve" smooth="yes"/>
      <point x="553" y="248"/>
      <point x="523" y="146"/>
      <point x="469" y="77" type="curve" smooth="yes"/>
      <point x="429" y="27"/>
      <point x="370" y="0"/>
      <point x="302" y="0" type="curve" smooth="yes"/>
    </contour>
    <contour>
      <point x="146" y="635" type="line"/>
      <point x="146" y="83" type="line"/>
      <point x="300" y="83" type="line" smooth="yes"/>
      <point x="406" y="83"/>
      <point x="471" y="188"/>
      <point x="471" y="359" type="curve" smooth="yes"/>
      <point x="471" y="537"/>
      <point x="408" y="635"/>
      <point x="295" y="635" type="curve" smooth="yes"/>
    </contour>
    <contour>
      <point x="242" y="929" type="line"/>
      <point x="296" y="836" type="line"/>
      <point x="350" y="929" type="line"/>
      <point x="416" y="929" type="line"/>
      <point x="335" y="788" type="line"/>
      <point x="258" y="788" type="line"/>
      <point x="177" y="929" type="line"/>
    </contour>
  </outline>
</glyph>
<glyph name="dcaron" format="1">
  <advance width="496"/>
  <unicode hex="010F"/>
  <outline>
    <contour>
      <point x="409" y="718" type="line"/>
      <point x="409" y="0" type="line"/>
      <point x="341" y="0" type="line"/>
      <point x="341" y="75" type="line"/>
      <point x="310" y="10"/>
      <point x="275" y="-15"/>
      <point x="217" y="-15" type="curve" smooth="yes"/>
      <point x="103" y="-15"/>
      <point x="29" y="99"/>
      <point x="29" y="274" type="curve" smooth="yes"/>
      <point x="29" y="432"/>
      <point x="100" y="538"/>
      <point x="206" y="538" type="curve" smooth="yes"/>
      <point x="265" y="538"/>
      <point x="303" y="511"/>
      <point x="337" y="444" type="curve"/>
      <point x="337" y="718" type="line"/>
    </contour>
    <contour>
      <point x="221" y="460" type="curve" smooth="yes"/>
      <point x="143" y="460"/>
      <point x="104" y="397"/>
      <point x="104" y="269" type="curve" smooth="yes"/>
      <point x="104" y="138"/>
      <point x="146" y="62"/>
      <point x="218" y="62" type="curve" smooth="yes"/>
      <point x="249" y="62"/>
      <point x="278" y="77"/>
      <point x="298" y="102" type="curve" smooth="yes"/>
      <point x="324" y="135"/>
      <point x="336" y="180"/>
      <point x="336" y="248" type="curve" smooth="yes"/>
      <point x="336" y="385"/>
      <point x="295" y="460"/>
    </contour>
    <contour>
      <point x="433" y="718" type="line"/>
      <point x="516" y="718" type="line"/>
      <point x="516" y="625" type="line" smooth="yes"/>
      <point x="516" y="539"/>
      <point x="489" y="496"/>
      <point x="434" y="496" type="curve"/>
      <point x="434" y="532" type="line"/>
      <point x="465" y="530"/>
      <point x="481" y="561"/>
      <point x="479" y="621" type="curve"/>
      <point x="433" y="621" type="line"/>
    </contour>
  </outline>
</glyph>
<glyph name="Dcroat" format="1">
  <advance width="592"/>
  <unicode hex="0110"/>
  <outline>
    <contour>
      <point x="0" y="325" type="line"/>
      <point x="0" y="412" type="line"/>
      <point x="66" y="412" type="line"/>
      <point x="66" y="718" type="line"/>
      <point x="306" y="718" type="line" smooth="yes"/>
      <point x="455" y="718"/>
      <point x="553" y="580"/>
      <point x="553" y="372" type="curve" smooth="yes"/>
      <point x="553" y="273"/>
      <point x="531" y="178"/>
      <point x="495" y="114" type="curve"/>
      <point x="450" y="38"/>
      <point x="387" y="0"/>
      <point x="302" y="0" type="curve" smooth="yes"/>
      <point x="66" y="0" type="line"/>
      <point x="66" y="325" type="line"/>
    </contour>
    <contour>
      <point x="304" y="412" type="line"/>
      <point x="304" y="325" type="line"/>
      <point x="146" y="325" type="line"/>
      <point x="146" y="83" type="line"/>
      <point x="301" y="83" type="line" smooth="yes"/>
      <point x="406" y="83"/>
      <point x="471" y="188"/>
      <point x="471" y="359" type="curve" smooth="yes"/>
      <point x="471" y="537"/>
      <point x="408" y="635"/>
      <point x="295" y="635" type="curve" smooth="yes"/>
      <point x="146" y="635" type="line"/>
      <point x="146" y="412" type="line"/>
    </contour>
  </outline>
</glyph>
<glyph name="Emacron" format="1">
  <advance width="547"/>
  <unicode hex="0112"/>
  <outline>
    <contour>
      <point x="505" y="87" type="line"/>
      <point x="505" y="0" type="line"/>
      <point x="71" y="0" type="line"/>
      <point x="71" y="718" type="line"/>
      <point x="499" y="718" type="line"/>
      <point x="499" y="631" type="line"/>
      <point x="151" y="631" type="line"/>
      <point x="151" y="412" type="line"/>
      <point x="472" y="412" type="line"/>
      <point x="472" y="325" type="line"/>
      <point x="151" y="325" type="line"/>
      <point x="151" y="87" type="line"/>
    </contour>
    <contour>
      <point x="412" y="879" type="line"/>
      <point x="412" y="822" type="line"/>
      <point x="155" y="822" type="line"/>
      <point x="155" y="879" type="line"/>
    </contour>
  </outline>
</glyph>
<glyph name="Ebreve" format="1">
  <advance width="547"/>
  <unicode hex="0114"/>
  <outline>
    <contour>
      <point x="372" y="954" type="curve"/>
      <point x="411" y="954" type="line"/>
      <point x="399" y="860"/>
      <point x="360" y="818"/>
      <point x="282" y="818" type="curve" smooth="yes"/>
      <point x="207" y="818"/>
      <point x="169" y="860"/>
      <point x="159" y="954" type="curve"/>
      <point x="199" y="954" type="line"/>
      <point x="201" y="947" type="line"/>
      <point x="214" y="897"/>
      <point x="240" y="875"/>
      <point x="287" y="875" type="curve" smooth="yes"/>
      <point x="336" y="875"/>
      <point x="357" y="895"/>
    </contour>
    <contour>
      <point x="505" y="87" type="line"/>
      <point x="505" y="0" type="line"/>
      <point x="71" y="0" type="line"/>
      <point x="71" y="718" type="line"/>
      <point x="499" y="718" type="line"/>
      <point x="499" y="631" type="line"/>
      <point x="151" y="631" type="line"/>
      <point x="151" y="412" type="line"/>
      <point x="472" y="412" type="line"/>
      <point x="472" y="325" type="line"/>
      <point x="151" y="325" type="line"/>
      <point x="151" y="87" type="line"/>
    </contour>
  </outline>
</glyph>
<glyph name="Eogonek" format="1">
  <advance width="547"/>
  <unicode hex="0118"/>
  <outline>
    <contour>
      <point x="499" y="718" type="line"/>
      <point x="499" y="631" type="line"/>
      <point x="151" y="631" type="line"/>
      <point x="151" y="412" type="line"/>
      <point x="472" y="412" type="line"/>
      <point x="472" y="325" type="line"/>
      <point x="151" y="325" type="line"/>
      <point x="151" y="87" type="line"/>
      <point x="505" y="87" type="line"/>
      <point x="505" y="-4" type="line"/>
      <point x="440" y="-49"/>
      <point x="423" y="-74"/>
      <point x="423" y="-124" type="curve" smooth="yes"/>
      <point x="423" y="-161"/>
      <point x="438" y="-178"/>
      <point x="470" y="-178" type="curve" smooth="yes"/>
      <point x="486" y="-178"/>
      <point x="497" y="-175"/>
      <point x="522" y="-163" type="curve"/>
      <point x="536" y="-203" type="line"/>
      <point x="506" y="-218"/>
      <point x="481" y="-225"/>
      <point x="456" y="-225" type="curve" smooth="yes"/>
      <point x="400" y="-225"/>
      <point x="361" y="-187"/>
      <point x="361" y="-133" type="curve" smooth="yes"/>
      <point x="361" y="-95"/>
      <point x="375" y="-57"/>
      <point x="400" y="-31" type="curve" smooth="yes"/>
      <point x="413" y="-17"/>
      <point x="421" y="-13"/>
      <point x="450" y="0" type="curve"/>
      <point x="71" y="0" type="line"/>
      <point x="71" y="718" type="line"/>
    </contour>
  </outline>
</glyph>
<glyph name="eogonek" format="1">
  <advance width="456"/>
  <unicode hex="0119"/>
  <outline>
    <contour>
      <point x="373" y="-163" type="curve"/>
      <point x="387" y="-203" type="line"/>
      <point x="356" y="-218"/>
      <point x="331" y="-225"/>
      <point x="306" y="-225" type="curve" smooth="yes"/>
      <point x="250" y="-225"/>
      <point x="211" y="-187"/>
      <point x="211" y="-133" type="curve" smooth="yes"/>
      <point x="211" y="-79"/>
      <point x="238" y="-31"/>
      <point x="279" y="-9" type="curve"/>
      <point x="261" y="-13"/>
      <point x="246" y="-15"/>
      <point x="230" y="-15" type="curve" smooth="yes"/>
      <point x="108" y="-15"/>
      <point x="33" y="86"/>
      <point x="33" y="252" type="curve" smooth="yes"/>
      <point x="33" y="427"/>
      <point x="112" y="538"/>
      <point x="236" y="538" type="curve" smooth="yes"/>
      <point x="305" y="538"/>
      <point x="353" y="506"/>
      <point x="386" y="437" type="curve" smooth="yes"/>
      <point x="411" y="385"/>
      <point x="420" y="336"/>
      <point x="423" y="233" type="curve"/>
      <point x="110" y="233" type="line"/>
      <point x="112" y="174"/>
      <point x="118" y="146"/>
      <point x="135" y="117" type="curve" smooth="yes"/>
      <point x="156" y="81"/>
      <point x="190" y="62"/>
      <point x="232" y="62" type="curve" smooth="yes"/>
      <point x="290" y="62"/>
      <point x="338" y="105"/>
      <point x="345" y="164" type="curve"/>
      <point x="417" y="164" type="line"/>
      <point x="407" y="106"/>
      <point x="401" y="93"/>
      <point x="360" y="46" type="curve"/>
      <point x="300" y="-26"/>
      <point x="273" y="-78"/>
      <point x="273" y="-126" type="curve" smooth="yes"/>
      <point x="273" y="-161"/>
      <point x="289" y="-178"/>
      <point x="320" y="-178" type="curve" smooth="yes"/>
      <point x="337" y="-178"/>
      <point x="348" y="-175"/>
    </contour>
    <contour>
      <point x="110" y="303" type="curve"/>
      <point x="348" y="303" type="line"/>
      <point x="344" y="357"/>
      <point x="337" y="383"/>
      <point x="321" y="410" type="curve" smooth="yes"/>
      <point x="301" y="442"/>
      <point x="270" y="460"/>
      <point x="233" y="460" type="curve" smooth="yes"/>
      <point x="164" y="460"/>
      <point x="114" y="397"/>
    </contour>
  </outline>
</glyph>
<glyph name="gcircumflex" format="1">
  <advance width="456"/>
  <unicode hex="011D"/>
  <outline>
    <contour>
      <point x="258" y="716" type="line"/>
      <point x="204" y="623" type="line"/>
      <point x="139" y="623" type="line"/>
      <point x="220" y="764" type="line"/>
      <point x="297" y="764" type="line"/>
      <point x="378" y="623" type="line"/>
      <point x="312" y="623" type="line"/>
    </contour>
    <contour>
      <point x="409" y="523" type="line"/>
      <point x="409" y="43" type="line" smooth="yes"/>
      <point x="409" y="-41"/>
      <point x="399" y="-93"/>
      <point x="374" y="-136" type="curve" smooth="yes"/>
      <point x="342" y="-191"/>
      <point x="286" y="-220"/>
      <point x="211" y="-220" type="curve" smooth="yes"/>
      <point x="169" y="-220"/>
      <point x="133" y="-209"/>
      <point x="105" y="-188" type="curve" smooth="yes"/>
      <point x="71" y="-161"/>
      <point x="57" y="-131"/>
      <point x="46" y="-64" type="curve"/>
      <point x="118" y="-64" type="line"/>
      <point x="131" y="-123"/>
      <point x="159" y="-147"/>
      <point x="214" y="-147" type="curve" smooth="yes"/>
      <point x="265" y="-147"/>
      <point x="299" y="-128"/>
      <point x="318" y="-88" type="curve" smooth="yes"/>
      <point x="332" y="-60"/>
      <point x="337" y="-27"/>
      <point x="337" y="37" type="curve" smooth="yes"/>
      <point x="337" y="58" type="line"/>
      <point x="309" y="7"/>
      <point x="273" y="-15"/>
      <point x="220" y="-15" type="curve" smooth="yes"/>
      <point x="107" y="-15"/>
      <point x="33" y="100"/>
      <point x="33" y="274" type="curve" smooth="yes"/>
      <point x="33" y="432"/>
      <point x="104" y="538"/>
      <point x="210" y="538" type="curve" smooth="yes"/>
      <point x="268" y="538"/>
      <point x="302" y="514"/>
      <point x="341" y="446" type="curve"/>
      <point x="341" y="523" type="line"/>
    </contour>
    <contour>
      <point x="225" y="460" type="curve" smooth="yes"/>
      <point x="147" y="460"/>
      <point x="108" y="397"/>
      <point x="108" y="269" type="curve" smooth="yes"/>
      <point x="108" y="138"/>
      <point x="150" y="62"/>
      <point x="222" y="62" type="curve" smooth="yes"/>
      <point x="296" y="62"/>
      <point x="340" y="132"/>
      <point x="340" y="247" type="curve" smooth="yes"/>
      <point x="340" y="385"/>
      <point x="299" y="460"/>
    </contour>
  </outline>
</glyph>
<glyph name="Gbreve" format="1">
  <advance width="638"/>
  <unicode hex="011E"/>
  <outline>
    <contour>
      <point x="319" y="301" type="line"/>
      <point x="319" y="384" type="line"/>
      <point x="577" y="384" type="line"/>
      <point x="577" y="0" type="line"/>
      <point x="525" y="0" type="line"/>
      <point x="507" y="93" type="line"/>
      <point x="479" y="52"/>
      <point x="462" y="35"/>
      <point x="431" y="15" type="curve"/>
      <point x="393" y="-8"/>
      <point x="353" y="-19"/>
      <point x="308" y="-19" type="curve" smooth="yes"/>
      <point x="235" y="-19"/>
      <point x="179" y="7"/>
      <point x="132" y="62" type="curve" smooth="yes"/>
      <point x="68" y="138"/>
      <point x="39" y="227"/>
      <point x="39" y="350" type="curve" smooth="yes"/>
      <point x="39" y="581"/>
      <point x="151" y="737"/>
      <point x="317" y="737" type="curve" smooth="yes"/>
      <point x="404" y="737"/>
      <point x="484" y="692"/>
      <point x="529" y="618" type="curve" smooth="yes"/>
      <point x="550" y="583"/>
      <point x="559" y="555"/>
      <point x="567" y="500" type="curve"/>
      <point x="490" y="500" type="line"/>
      <point x="476" y="558"/>
      <point x="461" y="584"/>
      <point x="430" y="611" type="curve" smooth="yes"/>
      <point x="402" y="636"/>
      <point x="360" y="650"/>
      <point x="318" y="650" type="curve" smooth="yes"/>
      <point x="197" y="650"/>
      <point x="121" y="535"/>
      <point x="121" y="353" type="curve" smooth="yes"/>
      <point x="121" y="165"/>
      <point x="190" y="64"/>
      <point x="320" y="64" type="curve" smooth="yes"/>
      <point x="375" y="64"/>
      <point x="420" y="86"/>
      <point x="455" y="129" type="curve" smooth="yes"/>
      <point x="488" y="171"/>
      <point x="501" y="215"/>
      <point x="502" y="301" type="curve"/>
    </contour>
    <contour>
      <point x="407" y="926" type="curve"/>
      <point x="446" y="926" type="line"/>
      <point x="434" y="832"/>
      <point x="395" y="790"/>
      <point x="317" y="790" type="curve" smooth="yes"/>
      <point x="242" y="790"/>
      <point x="204" y="832"/>
      <point x="194" y="926" type="curve"/>
      <point x="234" y="926" type="line"/>
      <point x="236" y="919" type="line"/>
      <point x="249" y="869"/>
      <point x="275" y="847"/>
      <point x="322" y="847" type="curve" smooth="yes"/>
      <point x="371" y="847"/>
      <point x="392" y="867"/>
    </contour>
  </outline>
</glyph>
<glyph name="Hcircumflex" format="1">
  <advance width="592"/>
  <unicode hex="0124"/>
  <outline>
    <contour>
      <point x="296" y="911" type="line"/>
      <point x="242" y="818" type="line"/>
      <point x="177" y="818" type="line"/>
      <point x="258" y="959" type="line"/>
      <point x="335" y="959" type="line"/>
      <point x="416" y="818" type="line"/>
      <point x="350" y="818" type="line"/>
    </contour>
    <contour>
      <point x="450" y="421" type="line"/>
      <point x="450" y="718" type="line"/>
      <point x="530" y="718" type="line"/>
      <point x="530" y="0" type="line"/>
      <point x="450" y="0" type="line"/>
      <point x="450" y="334" type="line"/>
      <point x="143" y="334" type="line"/>
      <point x="143" y="0" type="line"/>
      <point x="63" y="0" type="line"/>
      <point x="63" y="718" type="line"/>
      <point x="143" y="718" type="line"/>
      <point x="143" y="421" type="line"/>
    </contour>
  </outline>
</glyph>
<glyph name="hcircumflex" format="1">
  <advance width="456"/>
  <unicode hex="0125"/>
  <outline>
    <contour>
      <point x="88" y="911" type="line"/>
      <point x="34" y="818" type="line"/>
      <point x="-31" y="818" type="line"/>
      <point x="50" y="959" type="line"/>
      <point x="127" y="959" type="line"/>
      <point x="208" y="818" type="line"/>
      <point x="142" y="818" type="line"/>
    </contour>
    <contour>
      <point x="125" y="718" type="line"/>
      <point x="125" y="451" type="line"/>
      <point x="167" y="516"/>
      <point x="201" y="538"/>
      <point x="258" y="538" type="curve" smooth="yes"/>
      <point x="349" y="538"/>
      <point x="403" y="471"/>
      <point x="403" y="356" type="curve" smooth="yes"/>
      <point x="403" y="0" type="line"/>
      <point x="331" y="0" type="line"/>
      <point x="331" y="342" type="line" smooth="yes"/>
      <point x="331" y="425"/>
      <point x="306" y="460"/>
      <point x="247" y="460" type="curve" smooth="yes"/>
      <point x="169" y="460"/>
      <point x="125" y="396"/>
      <point x="125" y="285" type="curve" smooth="yes"/>
      <point x="125" y="0" type="line"/>
      <point x="53" y="0" type="line"/>
      <point x="53" y="718" type="line"/>
    </contour>
  </outline>
</glyph>
<glyph name="Hbar" format="1">
  <advance width="645"/>
  <unicode hex="0126"/>
  <outline>
    <contour>
      <point x="556" y="639" type="line"/>
      <point x="629" y="639" type="line"/>
      <point x="629" y="566" type="line"/>
      <point x="556" y="566" type="line"/>
      <point x="556" y="0" type="line"/>
      <point x="476" y="0" type="line"/>
      <point x="476" y="334" type="line"/>
      <point x="169" y="334" type="line"/>
      <point x="169" y="0" type="line"/>
      <point x="89" y="0" type="line"/>
      <point x="89" y="566" type="line"/>
      <point x="16" y="566" type="line"/>
      <point x="16" y="639" type="line"/>
      <point x="89" y="639" type="line"/>
      <point x="89" y="718" type="line"/>
      <point x="169" y="718" type="line"/>
      <point x="169" y="639" type="line"/>
      <point x="476" y="639" type="line"/>
      <point x="476" y="718" type="line"/>
      <point x="556" y="718" type="line"/>
    </contour>
    <contour>
      <point x="169" y="566" type="line"/>
      <point x="169" y="421" type="line"/>
      <point x="476" y="421" type="line"/>
      <point x="476" y="566" type="line"/>
    </contour>
  </outline>
</glyph>
<glyph name="hbar" format="1">
  <advance width="490"/>
  <unicode hex="0127"/>
  <outline>
    <contour>
      <point x="87" y="659" type="line"/>
      <point x="87" y="718" type="line"/>
      <point x="159" y="718" type="line"/>
      <point x="159" y="659" type="line"/>
      <point x="291" y="659" type="line"/>
      <point x="291" y="586" type="line"/>
      <point x="159" y="586" type="line"/>
      <point x="159" y="451" type="line"/>
      <point x="201" y="516"/>
      <point x="235" y="538"/>
      <point x="292" y="538" type="curve" smooth="yes"/>
      <point x="383" y="538"/>
      <point x="437" y="471"/>
      <point x="437" y="356" type="curve" smooth="yes"/>
      <point x="437" y="0" type="line"/>
      <point x="365" y="0" type="line"/>
      <point x="365" y="342" type="line" smooth="yes"/>
      <point x="365" y="425"/>
      <point x="340" y="460"/>
      <point x="281" y="460" type="curve" smooth="yes"/>
      <point x="203" y="460"/>
      <point x="159" y="396"/>
      <point x="159" y="285" type="curve" smooth="yes"/>
      <point x="159" y="0" type="line"/>
      <point x="87" y="0" type="line"/>
      <point x="87" y="586" type="line"/>
      <point x="16" y="586" type="line"/>
      <point x="16" y="659" type="line"/>
    </contour>
  </outline>
</glyph>
<glyph name="Itilde" format="1">
  <advance width="228"/>
  <unicode hex="0128"/>
  <outline>
    <contour>
      <point x="213" y="934" type="curve"/>
      <point x="254" y="934" type="line"/>
      <point x="244" y="862"/>
      <point x="216" y="825"/>
      <point x="171" y="825" type="curve" smooth="yes"/>
      <point x="159" y="825"/>
      <point x="146" y="829"/>
      <point x="124" y="838" type="curve" smooth="yes"/>
      <point x="103" y="847" type="line" smooth="yes"/>
      <point x="78" y="858"/>
      <point x="63" y="862"/>
      <point x="52" y="862" type="curve" smooth="yes"/>
      <point x="33" y="862"/>
      <point x="23" y="850"/>
      <point x="14" y="818" type="curve"/>
      <point x="-25" y="818" type="line"/>
      <point x="-15" y="892"/>
      <point x="12" y="925"/>
      <point x="60" y="925" type="curve" smooth="yes"/>
      <point x="77" y="925"/>
      <point x="97" y="920"/>
      <point x="116" y="910" type="curve" smooth="yes"/>
      <point x="134" y="901" type="line" smooth="yes"/>
      <point x="150" y="893"/>
      <point x="165" y="888"/>
      <point x="175" y="888" type="curve" smooth="yes"/>
      <point x="196" y="888"/>
      <point x="207" y="901"/>
    </contour>
    <contour>
      <point x="154" y="718" type="line"/>
      <point x="154" y="0" type="line"/>
      <point x="75" y="0" type="line"/>
      <point x="75" y="718" type="line"/>
    </contour>
  </outline>
</glyph>
<glyph name="itilde" format="1">
  <advance width="228"/>
  <unicode hex="0129"/>
  <outline>
    <contour>
      <point x="213" y="739" type="curve"/>
      <point x="254" y="739" type="line"/>
      <point x="244" y="667"/>
      <point x="216" y="630"/>
      <point x="171" y="630" type="curve" smooth="yes"/>
      <point x="159" y="630"/>
      <point x="146" y="634"/>
      <point x="124" y="643" type="curve" smooth="yes"/>
      <point x="103" y="652" type="line" smooth="yes"/>
      <point x="78" y="663"/>
      <point x="63" y="667"/>
      <point x="52" y="667" type="curve" smooth="yes"/>
      <point x="33" y="667"/>
      <point x="23" y="655"/>
      <point x="14" y="623" type="curve"/>
      <point x="-25" y="623" type="line"/>
      <point x="-15" y="697"/>
      <point x="12" y="730"/>
      <point x="60" y="730" type="curve" smooth="yes"/>
      <point x="77" y="730"/>
      <point x="97" y="725"/>
      <point x="116" y="715" type="curve" smooth="yes"/>
      <point x="134" y="706" type="line" smooth="yes"/>
      <point x="150" y="698"/>
      <point x="165" y="693"/>
      <point x="175" y="693" type="curve" smooth="yes"/>
      <point x="196" y="693"/>
      <point x="207" y="706"/>
    </contour>
    <contour>
      <point x="150" y="523" type="line"/>
      <point x="150" y="0" type="line"/>
      <point x="78" y="0" type="line"/>
      <point x="78" y="523" type="line"/>
    </contour>
  </outline>
</glyph>
<glyph name="Imacron" format="1">
  <advance width="228"/>
  <unicode hex="012A"/>
  <outline>
    <contour>
      <point x="154" y="718" type="line"/>
      <point x="154" y="0" type="line"/>
      <point x="75" y="0" type="line"/>
      <point x="75" y="718" type="line"/>
    </contour>
    <contour>
      <point x="242" y="879" type="line"/>
      <point x="242" y="822" type="line"/>
      <point x="-15" y="822" type="line"/>
      <point x="-15" y="879" type="line"/>
    </contour>
  </outline>
</glyph>
<glyph name="imacron" format="1">
  <advance width="228"/>
  <unicode hex="012B"/>
  <outline>
    <contour>
      <point x="150" y="523" type="line"/>
      <point x="150" y="0" type="line"/>
      <point x="78" y="0" type="line"/>
      <point x="78" y="523" type="line"/>
    </contour>
    <contour>
      <point x="242" y="684" type="line"/>
      <point x="242" y="627" type="line"/>
      <point x="-15" y="627" type="line"/>
      <point x="-15" y="684" type="line"/>
    </contour>
  </outline>
</glyph>
<glyph name="Ibreve" format="1">
  <advance width="228"/>
  <unicode hex="012C"/>
  <outline>
    <contour>
      <point x="202" y="954" type="curve"/>
      <point x="241" y="954" type="line"/>
      <point x="229" y="860"/>
      <point x="190" y="818"/>
      <point x="112" y="818" type="curve" smooth="yes"/>
      <point x="37" y="818"/>
      <point x="-1" y="860"/>
      <point x="-11" y="954" type="curve"/>
      <point x="29" y="954" type="line"/>
      <point x="31" y="947" type="line"/>
      <point x="44" y="897"/>
      <point x="70" y="875"/>
      <point x="117" y="875" type="curve" smooth="yes"/>
      <point x="166" y="875"/>
      <point x="187" y="895"/>
    </contour>
    <contour>
      <point x="154" y="718" type="line"/>
      <point x="154" y="0" type="line"/>
      <point x="75" y="0" type="line"/>
      <point x="75" y="718" type="line"/>
    </contour>
  </outline>
</glyph>
<glyph name="ibreve" format="1">
  <advance width="228"/>
  <unicode hex="012D"/>
  <outline>
    <contour>
      <point x="201" y="759" type="curve"/>
      <point x="240" y="759" type="line"/>
      <point x="228" y="665"/>
      <point x="189" y="623"/>
      <point x="111" y="623" type="curve" smooth="yes"/>
      <point x="36" y="623"/>
      <point x="-2" y="665"/>
      <point x="-12" y="759" type="curve"/>
      <point x="28" y="759" type="line"/>
      <point x="30" y="752" type="line"/>
      <point x="43" y="702"/>
      <point x="69" y="680"/>
      <point x="116" y="680" type="curve" smooth="yes"/>
      <point x="165" y="680"/>
      <point x="186" y="700"/>
    </contour>
    <contour>
      <point x="150" y="523" type="line"/>
      <point x="150" y="0" type="line"/>
      <point x="78" y="0" type="line"/>
      <point x="78" y="523" type="line"/>
    </contour>
  </outline>
</glyph>
<glyph name="Iogonek" format="1">
  <advance width="228"/>
  <unicode hex="012E"/>
  <outline>
    <contour>
      <point x="154" y="718" type="line"/>
      <point x="154" y="-4" type="line"/>
      <point x="89" y="-49"/>
      <point x="72" y="-74"/>
      <point x="72" y="-124" type="curve" smooth="yes"/>
      <point x="72" y="-161"/>
      <point x="87" y="-178"/>
      <point x="119" y="-178" type="curve" smooth="yes"/>
      <point x="135" y="-178"/>
      <point x="146" y="-175"/>
      <point x="171" y="-163" type="curve"/>
      <point x="185" y="-203" type="line"/>
      <point x="155" y="-218"/>
      <point x="130" y="-225"/>
      <point x="105" y="-225" type="curve" smooth="yes"/>
      <point x="49" y="-225"/>
      <point x="10" y="-187"/>
      <point x="10" y="-133" type="curve" smooth="yes"/>
      <point x="10" y="-95"/>
      <point x="24" y="-57"/>
      <point x="49" y="-31" type="curve" smooth="yes"/>
      <point x="62" y="-17"/>
      <point x="70" y="-13"/>
      <point x="99" y="0" type="curve"/>
      <point x="75" y="0" type="line"/>
      <point x="75" y="718" type="line"/>
    </contour>
  </outline>
</glyph>
<glyph name="Idotaccent" format="1">
  <advance width="228"/>
  <unicode hex="0130"/>
  <outline>
    <contour>
      <point x="154" y="718" type="line"/>
      <point x="154" y="0" type="line"/>
      <point x="75" y="0" type="line"/>
      <point x="75" y="718" type="line"/>
    </contour>
    <contour>
      <point x="152" y="901" type="line"/>
      <point x="152" y="799" type="line"/>
      <point x="77" y="799" type="line"/>
      <point x="77" y="901" type="line"/>
    </contour>
  </outline>
</glyph>
<glyph name="IJ" format="1">
  <advance width="644"/>
  <unicode hex="0132"/>
  <outline>
    <contour>
      <point x="229" y="231" type="line"/>
      <point x="304" y="231" type="line"/>
      <point x="304" y="181" type="line" smooth="yes"/>
      <point x="304" y="101"/>
      <point x="332" y="64"/>
      <point x="394" y="64" type="curve" smooth="yes"/>
      <point x="456" y="64"/>
      <point x="486" y="105"/>
      <point x="486" y="188" type="curve" smooth="yes"/>
      <point x="486" y="718" type="line"/>
      <point x="566" y="718" type="line"/>
      <point x="566" y="194" type="line" smooth="yes"/>
      <point x="566" y="58"/>
      <point x="504" y="-19"/>
      <point x="395" y="-19" type="curve" smooth="yes"/>
      <point x="294" y="-19"/>
      <point x="229" y="51"/>
      <point x="229" y="160" type="curve" smooth="yes"/>
    </contour>
    <contour>
      <point x="154" y="718" type="line"/>
      <point x="154" y="0" type="line"/>
      <point x="75" y="0" type="line"/>
      <point x="75" y="718" type="line"/>
    </contour>
  </outline>
</glyph>
<glyph name="ij" format="1">
  <advance width="308"/>
  <unicode hex="0133"/>
  <outline>
    <contour>
      <point x="254" y="523" type="line"/>
      <point x="254" y="-77" type="line" smooth="yes"/>
      <point x="254" y="-168"/>
      <point x="220" y="-210"/>
      <point x="147" y="-210" type="curve" smooth="yes"/>
      <point x="136" y="-210"/>
      <point x="126" y="-209"/>
      <point x="114" y="-207" type="curve"/>
      <point x="114" y="-131" type="line"/>
      <point x="129" y="-131" type="line" smooth="yes"/>
      <point x="174" y="-131"/>
      <point x="182" y="-122"/>
      <point x="182" y="-67" type="curve" smooth="yes"/>
      <point x="182" y="523" type="line"/>
    </contour>
    <contour>
      <point x="254" y="718" type="line"/>
      <point x="254" y="618" type="line"/>
      <point x="182" y="618" type="line"/>
      <point x="182" y="718" type="line"/>
    </contour>
    <contour>
      <point x="127" y="523" type="line"/>
      <point x="127" y="0" type="line"/>
      <point x="55" y="0" type="line"/>
      <point x="55" y="523" type="line"/>
    </contour>
    <contour>
      <point x="127" y="618" type="line"/>
      <point x="55" y="618" type="line"/>
      <point x="55" y="718" type="line"/>
      <point x="127" y="718" type="line"/>
    </contour>
  </outline>
</glyph>
<glyph name="jcircumflex" format="1">
  <advance width="182"/>
  <unicode hex="0135"/>
  <outline>
    <contour>
      <point x="127" y="523" type="line"/>
      <point x="127" y="-77" type="line" smooth="yes"/>
      <point x="127" y="-168"/>
      <point x="93" y="-210"/>
      <point x="20" y="-210" type="curve" smooth="yes"/>
      <point x="9" y="-210"/>
      <point x="-1" y="-209"/>
      <point x="-13" y="-207" type="curve"/>
      <point x="-13" y="-131" type="line"/>
      <point x="2" y="-131" type="line" smooth="yes"/>
      <point x="47" y="-131"/>
      <point x="55" y="-122"/>
      <point x="55" y="-67" type="curve" smooth="yes"/>
      <point x="55" y="523" type="line"/>
    </contour>
    <contour>
      <point x="136" y="686" type="line"/>
      <point x="82" y="593" type="line"/>
      <point x="17" y="593" type="line"/>
      <point x="98" y="734" type="line"/>
      <point x="175" y="734" type="line"/>
      <point x="256" y="593" type="line"/>
      <point x="190" y="593" type="line"/>
    </contour>
  </outline>
</glyph>
<glyph name="Kcommaaccent" format="1">
  <advance width="547"/>
  <unicode hex="0136"/>
  <outline>
    <contour>
      <point x="142" y="252" type="line"/>
      <point x="142" y="0" type="line"/>
      <point x="62" y="0" type="line"/>
      <point x="62" y="718" type="line"/>
      <point x="142" y="718" type="line"/>
      <point x="142" y="370" type="line"/>
      <point x="428" y="718" type="line"/>
      <point x="538" y="718" type="line"/>
      <point x="292" y="428" type="line"/>
      <point x="544" y="0" type="line"/>
      <point x="441" y="0" type="line"/>
      <point x="235" y="360" type="line"/>
    </contour>
    <contour>
      <point x="232" y="-60" type="line"/>
      <point x="315" y="-60" type="line"/>
      <point x="315" y="-153" type="line" smooth="yes"/>
      <point x="315" y="-239"/>
      <point x="288" y="-282"/>
      <point x="233" y="-282" type="curve"/>
      <point x="233" y="-246" type="line"/>
      <point x="264" y="-248"/>
      <point x="280" y="-217"/>
      <point x="278" y="-157" type="curve"/>
      <point x="232" y="-157" type="line"/>
    </contour>
  </outline>
</glyph>
<glyph name="Lacute" format="1">
  <advance width="456"/>
  <unicode hex="0139"/>
  <outline>
    <contour>
      <point x="142" y="718" type="line"/>
      <point x="142" y="87" type="line"/>
      <point x="440" y="87" type="line"/>
      <point x="440" y="0" type="line"/>
      <point x="62" y="0" type="line"/>
      <point x="62" y="718" type="line"/>
    </contour>
    <contour>
      <point x="254" y="903" type="line"/>
      <point x="147" y="762" type="line"/>
      <point x="92" y="762" type="line"/>
      <point x="165" y="903" type="line"/>
    </contour>
  </outline>
</glyph>
<glyph name="lacute" format="1">
  <advance width="182"/>
  <unicode hex="013A"/>
  <outline>
    <contour>
      <point x="128" y="718" type="line"/>
      <point x="128" y="0" type="line"/>
      <point x="56" y="0" type="line"/>
      <point x="56" y="718" type="line"/>
    </contour>
    <contour>
      <point x="217" y="903" type="line"/>
      <point x="110" y="762" type="line"/>
      <point x="55" y="762" type="line"/>
      <point x="128" y="903" type="line"/>
    </contour>
  </outline>
</glyph>
<glyph name="Lcommaaccent" format="1">
  <advance width="456"/>
  <unicode hex="013B"/>
  <outline>
    <contour>
      <point x="142" y="718" type="line"/>
      <point x="142" y="87" type="line"/>
      <point x="440" y="87" type="line"/>
      <point x="440" y="0" type="line"/>
      <point x="62" y="0" type="line"/>
      <point x="62" y="718" type="line"/>
    </contour>
    <contour>
      <point x="187" y="-60" type="line"/>
      <point x="270" y="-60" type="line"/>
      <point x="270" y="-153" type="line" smooth="yes"/>
      <point x="270" y="-239"/>
      <point x="243" y="-282"/>
      <point x="188" y="-282" type="curve"/>
      <point x="188" y="-246" type="line"/>
      <point x="219" y="-248"/>
      <point x="235" y="-217"/>
      <point x="233" y="-157" type="curve"/>
      <point x="187" y="-157" type="line"/>
    </contour>
  </outline>
</glyph>
<glyph name="lcommaaccent" format="1">
  <advance width="182"/>
  <unicode hex="013C"/>
  <outline>
    <contour>
      <point x="127" y="718" type="line"/>
      <point x="127" y="0" type="line"/>
      <point x="55" y="0" type="line"/>
      <point x="55" y="718" type="line"/>
    </contour>
    <contour>
      <point x="50" y="-60" type="line"/>
      <point x="133" y="-60" type="line"/>
      <point x="133" y="-153" type="line" smooth="yes"/>
      <point x="133" y="-239"/>
      <point x="106" y="-282"/>
      <point x="51" y="-282" type="curve"/>
      <point x="51" y="-246" type="line"/>
      <point x="82" y="-248"/>
      <point x="98" y="-217"/>
      <point x="96" y="-157" type="curve"/>
      <point x="50" y="-157" type="line"/>
    </contour>
  </outline>
</glyph>
<glyph name="Lcaron" format="1">
  <advance width="456"/>
  <unicode hex="013D"/>
  <outline>
    <contour>
      <point x="142" y="718" type="line"/>
      <point x="142" y="87" type="line"/>
      <point x="440" y="87" type="line"/>
      <point x="440" y="0" type="line"/>
      <point x="62" y="0" type="line"/>
      <point x="62" y="718" type="line"/>
    </contour>
    <contour>
      <point x="306" y="718" type="line"/>
      <point x="389" y="718" type="line"/>
      <point x="389" y="625" type="line" smooth="yes"/>
      <point x="389" y="539"/>
      <point x="362" y="496"/>
      <point x="307" y="496" type="curve"/>
      <point x="307" y="532" type="line"/>
      <point x="338" y="530"/>
      <point x="354" y="561"/>
      <point x="352" y="621" type="curve"/>
      <point x="306" y="621" type="line"/>
    </contour>
  </outline>
</glyph>
<glyph name="lcaron" format="1">
  <advance width="212"/>
  <unicode hex="013E"/>
  <outline>
    <contour>
      <point x="127" y="718" type="line"/>
      <point x="127" y="0" type="line"/>
      <point x="55" y="0" type="line"/>
      <point x="55" y="718" type="line"/>
    </contour>
    <contour>
      <point x="149" y="718" type="line"/>
      <point x="232" y="718" type="line"/>
      <point x="232" y="625" type="line" smooth="yes"/>
      <point x="232" y="539"/>
      <point x="205" y="496"/>
      <point x="150" y="496" type="curve"/>
      <point x="150" y="532" type="line"/>
      <point x="181" y="530"/>
      <point x="197" y="561"/>
      <point x="195" y="621" type="curve"/>
      <point x="149" y="621" type="line"/>
    </contour>
  </outline>
</glyph>
<glyph name="Ldot" format="1">
  <advance width="456"/>
  <unicode hex="013F"/>
  <outline>
    <contour>
      <point x="251" y="421" type="curve" smooth="yes"/>
      <point x="278" y="421"/>
      <point x="302" y="391"/>
      <point x="302" y="358" type="curve" smooth="yes"/>
      <point x="302" y="325"/>
      <point x="278" y="296"/>
      <point x="250" y="296" type="curve" smooth="yes"/>
      <point x="222" y="296"/>
      <point x="199" y="325"/>
      <point x="199" y="359" type="curve" smooth="yes"/>
      <point x="199" y="393"/>
      <point x="222" y="421"/>
    </contour>
    <contour>
      <point x="142" y="718" type="line"/>
      <point x="142" y="87" type="line"/>
      <point x="440" y="87" type="line"/>
      <point x="440" y="0" type="line"/>
      <point x="62" y="0" type="line"/>
      <point x="62" y="718" type="line"/>
    </contour>
  </outline>
</glyph>
<glyph name="ldot" format="1">
  <advance width="410"/>
  <unicode hex="0140"/>
  <outline>
    <contour>
      <point x="297" y="315" type="curve" smooth="yes"/>
      <point x="324" y="315"/>
      <point x="348" y="285"/>
      <point x="348" y="252" type="curve" smooth="yes"/>
      <point x="348" y="219"/>
      <point x="324" y="190"/>
      <point x="296" y="190" type="curve" smooth="yes"/>
      <point x="268" y="190"/>
      <point x="245" y="219"/>
      <point x="245" y="253" type="curve" smooth="yes"/>
      <point x="245" y="287"/>
      <point x="268" y="315"/>
    </contour>
    <contour>
      <point x="127" y="718" type="line"/>
      <point x="127" y="0" type="line"/>
      <point x="55" y="0" type="line"/>
      <point x="55" y="718" type="line"/>
    </contour>
  </outline>
</glyph>
<glyph name="Lslash" format="1">
  <advance width="456"/>
  <unicode hex="0141"/>
  <outline>
    <contour>
      <point x="239" y="520" type="line"/>
      <point x="239" y="462" type="line"/>
      <point x="143" y="396" type="line"/>
      <point x="143" y="87" type="line"/>
      <point x="440" y="87" type="line"/>
      <point x="440" y="0" type="line"/>
      <point x="63" y="0" type="line"/>
      <point x="63" y="345" type="line"/>
      <point x="-16" y="290" type="line"/>
      <point x="-16" y="348" type="line"/>
      <point x="63" y="403" type="line"/>
      <point x="63" y="718" type="line"/>
      <point x="143" y="718" type="line"/>
      <point x="143" y="453" type="line"/>
    </contour>
  </outline>
</glyph>
<glyph name="lslash" format="1">
  <advance width="182"/>
  <unicode hex="0142"/>
  <outline>
    <contour>
      <point x="198" y="435" type="line"/>
      <point x="127" y="385" type="line"/>
      <point x="127" y="0" type="line"/>
      <point x="55" y="0" type="line"/>
      <point x="55" y="339" type="line"/>
      <point x="-16" y="289" type="line"/>
      <point x="-16" y="347" type="line"/>
      <point x="55" y="397" type="line"/>
      <point x="55" y="718" type="line"/>
      <point x="127" y="718" type="line"/>
      <point x="127" y="443" type="line"/>
      <point x="198" y="493" type="line"/>
    </contour>
  </outline>
</glyph>
<glyph name="Nacute" format="1">
  <advance width="592"/>
  <unicode hex="0143"/>
  <outline>
    <contour>
      <point x="453" y="135" type="line"/>
      <point x="453" y="718" type="line"/>
      <point x="530" y="718" type="line"/>
      <point x="530" y="0" type="line"/>
      <point x="441" y="0" type="line"/>
      <point x="139" y="583" type="line"/>
      <point x="139" y="0" type="line"/>
      <point x="62" y="0" type="line"/>
      <point x="62" y="718" type="line"/>
      <point x="156" y="718" type="line"/>
    </contour>
    <contour>
      <point x="422" y="903" type="line"/>
      <point x="315" y="762" type="line"/>
      <point x="260" y="762" type="line"/>
      <point x="333" y="903" type="line"/>
    </contour>
  </outline>
</glyph>
<glyph name="Ncommaaccent" format="1">
  <advance width="592"/>
  <unicode hex="0145"/>
  <outline>
    <contour>
      <point x="453" y="135" type="line"/>
      <point x="453" y="718" type="line"/>
      <point x="530" y="718" type="line"/>
      <point x="530" y="0" type="line"/>
      <point x="441" y="0" type="line"/>
      <point x="139" y="583" type="line"/>
      <point x="139" y="0" type="line"/>
      <point x="62" y="0" type="line"/>
      <point x="62" y="718" type="line"/>
      <point x="156" y="718" type="line"/>
    </contour>
    <contour>
      <point x="255" y="-60" type="line"/>
      <point x="338" y="-60" type="line"/>
      <point x="338" y="-153" type="line" smooth="yes"/>
      <point x="338" y="-239"/>
      <point x="311" y="-282"/>
      <point x="256" y="-282" type="curve"/>
      <point x="256" y="-246" type="line"/>
      <point x="287" y="-248"/>
      <point x="303" y="-217"/>
      <point x="301" y="-157" type="curve"/>
      <point x="255" y="-157" type="line"/>
    </contour>
  </outline>
</glyph>
<glyph name="ncommaaccent" format="1">
  <advance width="456"/>
  <unicode hex="0146"/>
  <outline>
    <contour>
      <point x="121" y="523" type="line"/>
      <point x="121" y="446" type="line"/>
      <point x="158" y="511"/>
      <point x="199" y="538"/>
      <point x="258" y="538" type="curve" smooth="yes"/>
      <point x="349" y="538"/>
      <point x="403" y="471"/>
      <point x="403" y="356" type="curve" smooth="yes"/>
      <point x="403" y="0" type="line"/>
      <point x="331" y="0" type="line"/>
      <point x="331" y="322" type="line" smooth="yes"/>
      <point x="331" y="418"/>
      <point x="304" y="460"/>
      <point x="243" y="460" type="curve" smooth="yes"/>
      <point x="170" y="460"/>
      <point x="125" y="394"/>
      <point x="125" y="285" type="curve" smooth="yes"/>
      <point x="125" y="0" type="line"/>
      <point x="53" y="0" type="line"/>
      <point x="53" y="523" type="line"/>
    </contour>
    <contour>
      <point x="187" y="-60" type="line"/>
      <point x="270" y="-60" type="line"/>
      <point x="270" y="-153" type="line" smooth="yes"/>
      <point x="270" y="-239"/>
      <point x="243" y="-282"/>
      <point x="188" y="-282" type="curve"/>
      <point x="188" y="-246" type="line"/>
      <point x="219" y="-248"/>
      <point x="235" y="-217"/>
      <point x="233" y="-157" type="curve"/>
      <point x="187" y="-157" type="line"/>
    </contour>
  </outline>
</glyph>
<glyph name="Ncaron" format="1">
  <advance width="592"/>
  <unicode hex="0147"/>
  <outline>
    <contour>
      <point x="453" y="135" type="line"/>
      <point x="453" y="718" type="line"/>
      <point x="530" y="718" type="line"/>
      <point x="530" y="0" type="line"/>
      <point x="441" y="0" type="line"/>
      <point x="139" y="583" type="line"/>
      <point x="139" y="0" type="line"/>
      <point x="62" y="0" type="line"/>
      <point x="62" y="718" type="line"/>
      <point x="156" y="718" type="line"/>
    </contour>
    <contour>
      <point x="242" y="929" type="line"/>
      <point x="296" y="836" type="line"/>
      <point x="350" y="929" type="line"/>
      <point x="416" y="929" type="line"/>
      <point x="335" y="788" type="line"/>
      <point x="258" y="788" type="line"/>
      <point x="177" y="929" type="line"/>
    </contour>
  </outline>
</glyph>
<glyph name="ncaron" format="1">
  <advance width="456"/>
  <unicode hex="0148"/>
  <outline>
    <contour>
      <point x="121" y="523" type="line"/>
      <point x="121" y="446" type="line"/>
      <point x="158" y="511"/>
      <point x="199" y="538"/>
      <point x="258" y="538" type="curve" smooth="yes"/>
      <point x="349" y="538"/>
      <point x="403" y="471"/>
      <point x="403" y="356" type="curve" smooth="yes"/>
      <point x="403" y="0" type="line"/>
      <point x="331" y="0" type="line"/>
      <point x="331" y="322" type="line" smooth="yes"/>
      <point x="331" y="418"/>
      <point x="304" y="460"/>
      <point x="243" y="460" type="curve" smooth="yes"/>
      <point x="170" y="460"/>
      <point x="125" y="394"/>
      <point x="125" y="285" type="curve" smooth="yes"/>
      <point x="125" y="0" type="line"/>
      <point x="53" y="0" type="line"/>
      <point x="53" y="523" type="line"/>
    </contour>
    <contour>
      <point x="174" y="734" type="line"/>
      <point x="228" y="641" type="line"/>
      <point x="282" y="734" type="line"/>
      <point x="348" y="734" type="line"/>
      <point x="267" y="593" type="line"/>
      <point x="190" y="593" type="line"/>
      <point x="109" y="734" type="line"/>
    </contour>
  </outline>
</glyph>
<glyph name="napostrophe" format="1">
  <advance width="456"/>
  <unicode hex="0149"/>
  <outline>
    <contour>
      <point x="52" y="720" type="line"/>
      <point x="52" y="827" type="line"/>
      <point x="138" y="827" type="line"/>
      <point x="138" y="728" type="line" smooth="yes"/>
      <point x="138" y="636"/>
      <point x="114" y="593"/>
      <point x="52" y="571" type="curve"/>
      <point x="52" y="618" type="line"/>
      <point x="84" y="625"/>
      <point x="96" y="655"/>
      <point x="96" y="720" type="curve"/>
    </contour>
    <contour>
      <point x="121" y="523" type="line"/>
      <point x="121" y="446" type="line"/>
      <point x="158" y="511"/>
      <point x="199" y="538"/>
      <point x="258" y="538" type="curve" smooth="yes"/>
      <point x="349" y="538"/>
      <point x="403" y="471"/>
      <point x="403" y="356" type="curve" smooth="yes"/>
      <point x="403" y="0" type="line"/>
      <point x="331" y="0" type="line"/>
      <point x="331" y="322" type="line" smooth="yes"/>
      <point x="331" y="418"/>
      <point x="304" y="460"/>
      <point x="243" y="460" type="curve" smooth="yes"/>
      <point x="170" y="460"/>
      <point x="125" y="394"/>
      <point x="125" y="285" type="curve" smooth="yes"/>
      <point x="125" y="0" type="line"/>
      <point x="53" y="0" type="line"/>
      <point x="53" y="523" type="line"/>
    </contour>
  </outline>
</glyph>
<glyph name="Eng" format="1">
  <advance width="592"/>
  <unicode hex="014A"/>
  <outline>
    <contour>
      <point x="441" y="0" type="curve"/>
      <point x="139" y="583" type="line"/>
      <point x="139" y="0" type="line"/>
      <point x="62" y="0" type="line"/>
      <point x="62" y="718" type="line"/>
      <point x="156" y="718" type="line"/>
      <point x="453" y="135" type="line"/>
      <point x="453" y="718" type="line"/>
      <point x="530" y="718" type="line"/>
      <point x="530" y="0" type="line" smooth="yes"/>
      <point x="530" y="-99"/>
      <point x="400" y="-131"/>
      <point x="319" y="-131" type="curve"/>
      <point x="319" y="-49" type="line"/>
      <point x="370" y="-49"/>
      <point x="441" y="-35"/>
    </contour>
  </outline>
</glyph>
<glyph name="eng" format="1">
  <advance width="456"/>
  <unicode hex="014B"/>
  <outline>
    <contour>
      <point x="403" y="-53" type="line" smooth="yes"/>
      <point x="403" y="-152"/>
      <point x="313" y="-184"/>
      <point x="232" y="-184" type="curve"/>
      <point x="232" y="-102" type="line"/>
      <point x="283" y="-102"/>
      <point x="331" y="-88"/>
      <point x="331" y="-45" type="curve" smooth="yes"/>
      <point x="331" y="322" type="line" smooth="yes"/>
      <point x="331" y="418"/>
      <point x="304" y="460"/>
      <point x="243" y="460" type="curve" smooth="yes"/>
      <point x="170" y="460"/>
      <point x="125" y="394"/>
      <point x="125" y="285" type="curve" smooth="yes"/>
      <point x="125" y="0" type="line"/>
      <point x="53" y="0" type="line"/>
      <point x="53" y="523" type="line"/>
      <point x="121" y="523" type="line"/>
      <point x="121" y="446" type="line"/>
      <point x="158" y="511"/>
      <point x="199" y="538"/>
      <point x="258" y="538" type="curve" smooth="yes"/>
      <point x="349" y="538"/>
      <point x="403" y="471"/>
      <point x="403" y="356" type="curve" smooth="yes"/>
    </contour>
  </outline>
</glyph>
<glyph name="obreve" format="1">
  <advance width="456"/>
  <unicode hex="014F"/>
  <outline>
    <contour>
      <point x="315" y="759" type="curve"/>
      <point x="354" y="759" type="line"/>
      <point x="342" y="665"/>
      <point x="303" y="623"/>
      <point x="225" y="623" type="curve" smooth="yes"/>
      <point x="150" y="623"/>
      <point x="112" y="665"/>
      <point x="102" y="759" type="curve"/>
      <point x="142" y="759" type="line"/>
      <point x="144" y="752" type="line"/>
      <point x="157" y="702"/>
      <point x="183" y="680"/>
      <point x="230" y="680" type="curve" smooth="yes"/>
      <point x="279" y="680"/>
      <point x="300" y="700"/>
    </contour>
    <contour>
      <point x="231" y="538" type="curve" smooth="yes"/>
      <point x="346" y="538"/>
      <point x="427" y="423"/>
      <point x="427" y="262" type="curve" smooth="yes"/>
      <point x="427" y="99"/>
      <point x="346" y="-14"/>
      <point x="228" y="-14" type="curve" smooth="yes"/>
      <point x="111" y="-14"/>
      <point x="29" y="99"/>
      <point x="29" y="262" type="curve" smooth="yes"/>
      <point x="29" y="427"/>
      <point x="110" y="538"/>
    </contour>
    <contour>
      <point x="230" y="461" type="curve" smooth="yes"/>
      <point x="152" y="461"/>
      <point x="104" y="384"/>
      <point x="104" y="262" type="curve" smooth="yes"/>
      <point x="104" y="141"/>
      <point x="153" y="63"/>
      <point x="228" y="63" type="curve" smooth="yes"/>
      <point x="303" y="63"/>
      <point x="352" y="141"/>
      <point x="352" y="262" type="curve" smooth="yes"/>
      <point x="352" y="382"/>
      <point x="303" y="461"/>
    </contour>
  </outline>
</glyph>
<glyph name="OE" format="1">
  <advance width="820"/>
  <unicode hex="0152"/>
  <outline>
    <contour>
      <point x="430" y="641" type="curve"/>
      <point x="430" y="718" type="line"/>
      <point x="789" y="718" type="line"/>
      <point x="789" y="631" type="line"/>
      <point x="504" y="631" type="line"/>
      <point x="504" y="412" type="line"/>
      <point x="776" y="412" type="line"/>
      <point x="776" y="325" type="line"/>
      <point x="504" y="325" type="line"/>
      <point x="504" y="87" type="line"/>
      <point x="791" y="87" type="line"/>
      <point x="791" y="0" type="line"/>
      <point x="429" y="0" type="line"/>
      <point x="429" y="78" type="line"/>
      <point x="380" y="4"/>
      <point x="344" y="-19"/>
      <point x="273" y="-19" type="curve" smooth="yes"/>
      <point x="125" y="-19"/>
      <point x="30" y="126"/>
      <point x="30" y="351" type="curve" smooth="yes"/>
      <point x="30" y="456"/>
      <point x="51" y="550"/>
      <point x="90" y="618" type="curve" smooth="yes"/>
      <point x="135" y="698"/>
      <point x="198" y="737"/>
      <point x="279" y="737" type="curve" smooth="yes"/>
      <point x="351" y="737"/>
      <point x="390" y="712"/>
    </contour>
    <contour>
      <point x="424" y="230" type="curve" smooth="yes"/>
      <point x="424" y="492" type="line" smooth="yes"/>
      <point x="424" y="589"/>
      <point x="367" y="654"/>
      <point x="282" y="654" type="curve" smooth="yes"/>
      <point x="172" y="654"/>
      <point x="112" y="544"/>
      <point x="112" y="343" type="curve" smooth="yes"/>
      <point x="112" y="162"/>
      <point x="172" y="64"/>
      <point x="283" y="64" type="curve" smooth="yes"/>
      <point x="368" y="64"/>
      <point x="424" y="130"/>
    </contour>
  </outline>
</glyph>
<glyph name="Racute" format="1">
  <advance width="592"/>
  <unicode hex="0154"/>
  <outline>
    <contour>
      <point x="152" y="308" type="line"/>
      <point x="152" y="0" type="line"/>
      <point x="72" y="0" type="line"/>
      <point x="72" y="718" type="line"/>
      <point x="345" y="718" type="line" smooth="yes"/>
      <point x="470" y="718"/>
      <point x="538" y="650"/>
      <point x="538" y="524" type="curve" smooth="yes"/>
      <point x="538" y="443"/>
      <point x="517" y="399"/>
      <point x="456" y="353" type="curve"/>
      <point x="507" y="329"/>
      <point x="522" y="300"/>
      <point x="527" y="218" type="curve"/>
      <point x="531" y="88" type="line" smooth="yes"/>
      <point x="533" y="44"/>
      <point x="537" y="33"/>
      <point x="561" y="16" type="curve"/>
      <point x="561" y="0" type="line"/>
      <point x="463" y="0" type="line"/>
      <point x="456" y="29"/>
      <point x="450" y="104"/>
      <point x="450" y="180" type="curve"/>
      <point x="448" y="272"/>
      <point x="419" y="308"/>
      <point x="345" y="308" type="curve" smooth="yes"/>
    </contour>
    <contour>
      <point x="152" y="635" type="line"/>
      <point x="152" y="391" type="line"/>
      <point x="336" y="391" type="line" smooth="yes"/>
      <point x="418" y="391"/>
      <point x="456" y="431"/>
      <point x="456" y="516" type="curve" smooth="yes"/>
      <point x="456" y="596"/>
      <point x="421" y="635"/>
      <point x="350" y="635" type="curve" smooth="yes"/>
    </contour>
    <contour>
      <point x="422" y="903" type="line"/>
      <point x="315" y="762" type="line"/>
      <point x="260" y="762" type="line"/>
      <point x="333" y="903" type="line"/>
    </contour>
  </outline>
</glyph>
<glyph name="racute" format="1">
  <advance width="273"/>
  <unicode hex="0155"/>
  <outline>
    <contour>
      <point x="272" y="445" type="line"/>
      <point x="245" y="445" type="line" smooth="yes"/>
      <point x="181" y="445"/>
      <point x="135" y="386"/>
      <point x="135" y="305" type="curve" smooth="yes"/>
      <point x="135" y="0" type="line"/>
      <point x="63" y="0" type="line"/>
      <point x="63" y="523" type="line"/>
      <point x="131" y="523" type="line"/>
      <point x="131" y="434" type="line"/>
      <point x="169" y="509"/>
      <point x="203" y="538"/>
      <point x="253" y="538" type="curve" smooth="yes"/>
      <point x="260" y="538"/>
      <point x="265" y="537"/>
      <point x="272" y="535" type="curve"/>
    </contour>
    <contour>
      <point x="262" y="734" type="line"/>
      <point x="155" y="593" type="line"/>
      <point x="100" y="593" type="line"/>
      <point x="173" y="734" type="line"/>
    </contour>
  </outline>
</glyph>
<glyph name="rcommaaccent" format="1">
  <advance width="273"/>
  <unicode hex="0157"/>
  <outline>
    <contour>
      <point x="272" y="445" type="line"/>
      <point x="245" y="445" type="line" smooth="yes"/>
      <point x="181" y="445"/>
      <point x="135" y="386"/>
      <point x="135" y="305" type="curve" smooth="yes"/>
      <point x="135" y="0" type="line"/>
      <point x="63" y="0" type="line"/>
      <point x="63" y="523" type="line"/>
      <point x="131" y="523" type="line"/>
      <point x="131" y="434" type="line"/>
      <point x="169" y="509"/>
      <point x="203" y="538"/>
      <point x="253" y="538" type="curve" smooth="yes"/>
      <point x="260" y="538"/>
      <point x="265" y="537"/>
      <point x="272" y="535" type="curve"/>
    </contour>
    <contour>
      <point x="57" y="-60" type="line"/>
      <point x="140" y="-60" type="line"/>
      <point x="140" y="-153" type="line" smooth="yes"/>
      <point x="140" y="-239"/>
      <point x="113" y="-282"/>
      <point x="58" y="-282" type="curve"/>
      <point x="58" y="-246" type="line"/>
      <point x="89" y="-248"/>
      <point x="105" y="-217"/>
      <point x="103" y="-157" type="curve"/>
      <point x="57" y="-157" type="line"/>
    </contour>
  </outline>
</glyph>
<glyph name="Scedilla" format="1">
  <advance width="547"/>
  <unicode hex="015E"/>
  <outline>
    <contour>
      <point x="281" y="-19" type="curve"/>
      <point x="255" y="-62" type="line"/>
      <point x="258" y="-61" type="line"/>
      <point x="260" y="-61" type="line"/>
      <point x="269" y="-59"/>
      <point x="274" y="-58"/>
      <point x="281" y="-58" type="curve" smooth="yes"/>
      <point x="322" y="-58"/>
      <point x="349" y="-88"/>
      <point x="349" y="-133" type="curve" smooth="yes"/>
      <point x="349" y="-187"/>
      <point x="310" y="-225"/>
      <point x="253" y="-225" type="curve" smooth="yes"/>
      <point x="228" y="-225"/>
      <point x="206" y="-219"/>
      <point x="174" y="-203" type="curve"/>
      <point x="188" y="-163" type="line"/>
      <point x="211" y="-175"/>
      <point x="224" y="-178"/>
      <point x="240" y="-178" type="curve" smooth="yes"/>
      <point x="270" y="-178"/>
      <point x="287" y="-162"/>
      <point x="287" y="-136" type="curve" smooth="yes"/>
      <point x="287" y="-113"/>
      <point x="270" y="-96"/>
      <point x="247" y="-96" type="curve" smooth="yes"/>
      <point x="240" y="-96"/>
      <point x="232" y="-98"/>
      <point x="216" y="-105" type="curve"/>
      <point x="202" y="-86" type="line"/>
      <point x="244" y="-17" type="line"/>
      <point x="117" y="-9"/>
      <point x="35" y="91"/>
      <point x="40" y="232" type="curve"/>
      <point x="115" y="232" type="line"/>
      <point x="116" y="185"/>
      <point x="122" y="161"/>
      <point x="138" y="134" type="curve" smooth="yes"/>
      <point x="165" y="89"/>
      <point x="214" y="64"/>
      <point x="280" y="64" type="curve" smooth="yes"/>
      <point x="375" y="64"/>
      <point x="431" y="109"/>
      <point x="431" y="188" type="curve" smooth="yes"/>
      <point x="431" y="257"/>
      <point x="403" y="284"/>
      <point x="306" y="312" type="curve" smooth="yes"/>
      <point x="185" y="346" type="line" smooth="yes"/>
      <point x="102" y="369"/>
      <point x="60" y="427"/>
      <point x="60" y="518" type="curve" smooth="yes"/>
      <point x="60" y="576"/>
      <point x="78" y="630"/>
      <point x="109" y="670" type="curve" smooth="yes"/>
      <point x="145" y="715"/>
      <point x="199" y="737"/>
      <point x="270" y="737" type="curve" smooth="yes"/>
      <point x="359" y="737"/>
      <point x="427" y="701"/>
      <point x="462" y="637" type="curve"/>
      <point x="480" y="602"/>
      <point x="487" y="572"/>
      <point x="492" y="508" type="curve"/>
      <point x="417" y="508" type="line"/>
      <point x="414" y="548"/>
      <point x="408" y="569"/>
      <point x="394" y="593" type="curve"/>
      <point x="369" y="632"/>
      <point x="325" y="654"/>
      <point x="270" y="654" type="curve" smooth="yes"/>
      <point x="186" y="654"/>
      <point x="137" y="608"/>
      <point x="137" y="530" type="curve" smooth="yes"/>
      <point x="137" y="479"/>
      <point x="159" y="450"/>
      <point x="206" y="437" type="curve" smooth="yes"/>
      <point x="374" y="390" type="line" smooth="yes"/>
      <point x="462" y="366"/>
      <point x="508" y="299"/>
      <point x="508" y="197" type="curve" smooth="yes"/>
      <point x="508" y="64"/>
      <point x="425" y="-15"/>
    </contour>
  </outline>
</glyph>
<glyph name="Tcommaaccent" format="1">
  <advance width="501"/>
  <unicode hex="0162"/>
  <outline>
    <contour>
      <point x="11" y="631" type="line"/>
      <point x="11" y="718" type="line"/>
      <point x="490" y="718" type="line"/>
      <point x="490" y="631" type="line"/>
      <point x="291" y="631" type="line"/>
      <point x="291" y="0" type="line"/>
      <point x="211" y="0" type="line"/>
      <point x="211" y="631" type="line"/>
    </contour>
    <contour>
      <point x="209" y="-60" type="line"/>
      <point x="292" y="-60" type="line"/>
      <point x="292" y="-153" type="line" smooth="yes"/>
      <point x="292" y="-239"/>
      <point x="265" y="-282"/>
      <point x="210" y="-282" type="curve"/>
      <point x="210" y="-246" type="line"/>
      <point x="241" y="-248"/>
      <point x="257" y="-217"/>
      <point x="255" y="-157" type="curve"/>
      <point x="209" y="-157" type="line"/>
    </contour>
  </outline>
</glyph>
<glyph name="tcommaaccent" format="1">
  <advance width="228"/>
  <unicode hex="0163"/>
  <outline>
    <contour>
      <point x="211" y="450" type="line"/>
      <point x="141" y="450" type="line"/>
      <point x="141" y="110" type="line" smooth="yes"/>
      <point x="141" y="81"/>
      <point x="153" y="69"/>
      <point x="185" y="69" type="curve" smooth="yes"/>
      <point x="210" y="69" type="line"/>
      <point x="210" y="0" type="line"/>
      <point x="194" y="-2"/>
      <point x="184" y="-3"/>
      <point x="178" y="-4" type="curve" smooth="yes"/>
      <point x="162" y="-7"/>
      <point x="158" y="-7"/>
      <point x="153" y="-7" type="curve" smooth="yes"/>
      <point x="96" y="-7"/>
      <point x="69" y="29"/>
      <point x="69" y="105" type="curve" smooth="yes"/>
      <point x="69" y="450" type="line"/>
      <point x="11" y="450" type="line"/>
      <point x="11" y="523" type="line"/>
      <point x="69" y="523" type="line"/>
      <point x="69" y="669" type="line"/>
      <point x="141" y="669" type="line"/>
      <point x="141" y="523" type="line"/>
      <point x="211" y="523" type="line"/>
    </contour>
    <contour>
      <point x="73" y="-60" type="line"/>
      <point x="156" y="-60" type="line"/>
      <point x="156" y="-153" type="line" smooth="yes"/>
      <point x="156" y="-239"/>
      <point x="129" y="-282"/>
      <point x="74" y="-282" type="curve"/>
      <point x="74" y="-246" type="line"/>
      <point x="105" y="-248"/>
      <point x="121" y="-217"/>
      <point x="119" y="-157" type="curve"/>
      <point x="73" y="-157" type="line"/>
    </contour>
  </outline>
</glyph>
<glyph name="tcaron" format="1">
  <advance width="248"/>
  <unicode hex="0165"/>
  <outline>
    <contour>
      <point x="186" y="523" type="line"/>
      <point x="186" y="532" type="line"/>
      <point x="218" y="530"/>
      <point x="233" y="560"/>
      <point x="231" y="621" type="curve"/>
      <point x="185" y="621" type="line"/>
      <point x="185" y="718" type="line"/>
      <point x="268" y="718" type="line"/>
      <point x="268" y="625" type="line" smooth="yes"/>
      <point x="268" y="556"/>
      <point x="248" y="512"/>
      <point x="211" y="498" type="curve"/>
      <point x="211" y="450" type="line"/>
      <point x="141" y="450" type="line"/>
      <point x="141" y="110" type="line" smooth="yes"/>
      <point x="141" y="81"/>
      <point x="153" y="69"/>
      <point x="184" y="69" type="curve" smooth="yes"/>
      <point x="210" y="69" type="line"/>
      <point x="210" y="0" type="line"/>
      <point x="202" y="-1" type="line" smooth="yes"/>
      <point x="189" y="-3"/>
      <point x="181" y="-4"/>
      <point x="178" y="-4" type="curve" smooth="yes"/>
      <point x="162" y="-7"/>
      <point x="158" y="-7"/>
      <point x="153" y="-7" type="curve" smooth="yes"/>
      <point x="96" y="-7"/>
      <point x="69" y="29"/>
      <point x="69" y="105" type="curve" smooth="yes"/>
      <point x="69" y="450" type="line"/>
      <point x="11" y="450" type="line"/>
      <point x="11" y="523" type="line"/>
      <point x="69" y="523" type="line"/>
      <point x="69" y="669" type="line"/>
      <point x="141" y="669" type="line"/>
      <point x="141" y="523" type="line"/>
    </contour>
  </outline>
</glyph>
<glyph name="Tbar" format="1">
  <advance width="501"/>
  <unicode hex="0166"/>
  <outline>
    <contour>
      <point x="11" y="631" type="line"/>
      <point x="11" y="718" type="line"/>
      <point x="490" y="718" type="line"/>
      <point x="490" y="631" type="line"/>
      <point x="291" y="631" type="line"/>
      <point x="291" y="469" type="line"/>
      <point x="427" y="469" type="line"/>
      <point x="427" y="396" type="line"/>
      <point x="291" y="396" type="line"/>
      <point x="291" y="0" type="line"/>
      <point x="211" y="0" type="line"/>
      <point x="211" y="396" type="line"/>
      <point x="72" y="396" type="line"/>
      <point x="72" y="469" type="line"/>
      <point x="211" y="469" type="line"/>
      <point x="211" y="631" type="line"/>
    </contour>
  </outline>
</glyph>
<glyph name="tbar" format="1">
  <advance width="228"/>
  <unicode hex="0167"/>
  <outline>
    <contour>
      <point x="211" y="450" type="line"/>
      <point x="141" y="450" type="line"/>
      <point x="141" y="369" type="line"/>
      <point x="213" y="369" type="line"/>
      <point x="213" y="296" type="line"/>
      <point x="141" y="296" type="line"/>
      <point x="141" y="110" type="line" smooth="yes"/>
      <point x="141" y="81"/>
      <point x="153" y="69"/>
      <point x="185" y="69" type="curve" smooth="yes"/>
      <point x="210" y="69" type="line"/>
      <point x="210" y="0" type="line"/>
      <point x="194" y="-2"/>
      <point x="184" y="-3"/>
      <point x="178" y="-4" type="curve" smooth="yes"/>
      <point x="162" y="-7"/>
      <point x="158" y="-7"/>
      <point x="153" y="-7" type="curve" smooth="yes"/>
      <point x="96" y="-7"/>
      <point x="69" y="29"/>
      <point x="69" y="105" type="curve" smooth="yes"/>
      <point x="69" y="296" type="line"/>
      <point x="11" y="296" type="line"/>
      <point x="11" y="369" type="line"/>
      <point x="69" y="369" type="line"/>
      <point x="69" y="450" type="line"/>
      <point x="11" y="450" type="line"/>
      <point x="11" y="523" type="line"/>
      <point x="69" y="523" type="line"/>
      <point x="69" y="669" type="line"/>
      <point x="141" y="669" type="line"/>
      <point x="141" y="523" type="line"/>
      <point x="211" y="523" type="line"/>
    </contour>
  </outline>
</glyph>
<glyph name="Utilde" format="1">
  <advance width="592"/>
  <unicode hex="0168"/>
  <outline>
    <contour>
      <point x="395" y="934" type="curve"/>
      <point x="436" y="934" type="line"/>
      <point x="426" y="862"/>
      <point x="398" y="825"/>
      <point x="353" y="825" type="curve" smooth="yes"/>
      <point x="341" y="825"/>
      <point x="328" y="829"/>
      <point x="306" y="838" type="curve" smooth="yes"/>
      <point x="285" y="847" type="line" smooth="yes"/>
      <point x="260" y="858"/>
      <point x="245" y="862"/>
      <point x="234" y="862" type="curve" smooth="yes"/>
      <point x="215" y="862"/>
      <point x="205" y="850"/>
      <point x="196" y="818" type="curve"/>
      <point x="157" y="818" type="line"/>
      <point x="167" y="892"/>
      <point x="194" y="925"/>
      <point x="242" y="925" type="curve" smooth="yes"/>
      <point x="259" y="925"/>
      <point x="279" y="920"/>
      <point x="298" y="910" type="curve" smooth="yes"/>
      <point x="316" y="901" type="line" smooth="yes"/>
      <point x="332" y="893"/>
      <point x="347" y="888"/>
      <point x="357" y="888" type="curve" smooth="yes"/>
      <point x="378" y="888"/>
      <point x="389" y="901"/>
    </contour>
    <contour>
      <point x="448" y="718" type="line"/>
      <point x="528" y="718" type="line"/>
      <point x="528" y="252" type="line" smooth="yes"/>
      <point x="528" y="87"/>
      <point x="436" y="-19"/>
      <point x="292" y="-19" type="curve" smooth="yes"/>
      <point x="153" y="-19"/>
      <point x="65" y="81"/>
      <point x="65" y="239" type="curve" smooth="yes"/>
      <point x="65" y="718" type="line"/>
      <point x="145" y="718" type="line"/>
      <point x="145" y="266" type="line" smooth="yes"/>
      <point x="145" y="139"/>
      <point x="199" y="68"/>
      <point x="295" y="68" type="curve" smooth="yes"/>
      <point x="392" y="68"/>
      <point x="448" y="139"/>
      <point x="448" y="264" type="curve" smooth="yes"/>
    </contour>
  </outline>
</glyph>
<glyph name="utilde" format="1">
  <advance width="456"/>
  <unicode hex="0169"/>
  <outline>
    <contour>
      <point x="327" y="739" type="curve"/>
      <point x="368" y="739" type="line"/>
      <point x="358" y="667"/>
      <point x="330" y="630"/>
      <point x="285" y="630" type="curve" smooth="yes"/>
      <point x="273" y="630"/>
      <point x="260" y="634"/>
      <point x="238" y="643" type="curve" smooth="yes"/>
      <point x="217" y="652" type="line" smooth="yes"/>
      <point x="192" y="663"/>
      <point x="177" y="667"/>
      <point x="166" y="667" type="curve" smooth="yes"/>
      <point x="147" y="667"/>
      <point x="137" y="655"/>
      <point x="128" y="623" type="curve"/>
      <point x="89" y="623" type="line"/>
      <point x="99" y="697"/>
      <point x="126" y="730"/>
      <point x="174" y="730" type="curve" smooth="yes"/>
      <point x="191" y="730"/>
      <point x="211" y="725"/>
      <point x="230" y="715" type="curve" smooth="yes"/>
      <point x="248" y="706" type="line" smooth="yes"/>
      <point x="264" y="698"/>
      <point x="279" y="693"/>
      <point x="289" y="693" type="curve" smooth="yes"/>
      <point x="310" y="693"/>
      <point x="321" y="706"/>
    </contour>
    <contour>
      <point x="401" y="0" type="line"/>
      <point x="333" y="0" type="line"/>
      <point x="333" y="81" type="line"/>
      <point x="295" y="9"/>
      <point x="261" y="-15"/>
      <point x="197" y="-15" type="curve" smooth="yes"/>
      <point x="109" y="-15"/>
      <point x="56" y="45"/>
      <point x="56" y="147" type="curve" smooth="yes"/>
      <point x="56" y="523" type="line"/>
      <point x="128" y="523" type="line"/>
      <point x="128" y="176" type="line" smooth="yes"/>
      <point x="128" y="101"/>
      <point x="156" y="62"/>
      <point x="211" y="62" type="curve" smooth="yes"/>
      <point x="283" y="62"/>
      <point x="329" y="129"/>
      <point x="329" y="235" type="curve" smooth="yes"/>
      <point x="329" y="523" type="line"/>
      <point x="401" y="523" type="line"/>
    </contour>
  </outline>
</glyph>
<glyph name="Ubreve" format="1">
  <advance width="592"/>
  <unicode hex="016C"/>
  <outline>
    <contour>
      <point x="384" y="954" type="curve"/>
      <point x="423" y="954" type="line"/>
      <point x="411" y="860"/>
      <point x="372" y="818"/>
      <point x="294" y="818" type="curve" smooth="yes"/>
      <point x="219" y="818"/>
      <point x="181" y="860"/>
      <point x="171" y="954" type="curve"/>
      <point x="211" y="954" type="line"/>
      <point x="213" y="947" type="line"/>
      <point x="226" y="897"/>
      <point x="252" y="875"/>
      <point x="299" y="875" type="curve" smooth="yes"/>
      <point x="348" y="875"/>
      <point x="369" y="895"/>
    </contour>
    <contour>
      <point x="448" y="718" type="line"/>
      <point x="528" y="718" type="line"/>
      <point x="528" y="252" type="line" smooth="yes"/>
      <point x="528" y="87"/>
      <point x="436" y="-19"/>
      <point x="292" y="-19" type="curve" smooth="yes"/>
      <point x="153" y="-19"/>
      <point x="65" y="81"/>
      <point x="65" y="239" type="curve" smooth="yes"/>
      <point x="65" y="718" type="line"/>
      <point x="145" y="718" type="line"/>
      <point x="145" y="266" type="line" smooth="yes"/>
      <point x="145" y="139"/>
      <point x="199" y="68"/>
      <point x="295" y="68" type="curve" smooth="yes"/>
      <point x="392" y="68"/>
      <point x="448" y="139"/>
      <point x="448" y="264" type="curve" smooth="yes"/>
    </contour>
  </outline>
</glyph>
<glyph name="ubreve" format="1">
  <advance width="456"/>
  <unicode hex="016D"/>
  <outline>
    <contour>
      <point x="316" y="759" type="curve"/>
      <point x="355" y="759" type="line"/>
      <point x="343" y="665"/>
      <point x="304" y="623"/>
      <point x="226" y="623" type="curve" smooth="yes"/>
      <point x="151" y="623"/>
      <point x="113" y="665"/>
      <point x="103" y="759" type="curve"/>
      <point x="143" y="759" type="line"/>
      <point x="145" y="752" type="line"/>
      <point x="158" y="702"/>
      <point x="184" y="680"/>
      <point x="231" y="680" type="curve" smooth="yes"/>
      <point x="280" y="680"/>
      <point x="301" y="700"/>
    </contour>
    <contour>
      <point x="401" y="0" type="line"/>
      <point x="333" y="0" type="line"/>
      <point x="333" y="81" type="line"/>
      <point x="295" y="9"/>
      <point x="261" y="-15"/>
      <point x="197" y="-15" type="curve" smooth="yes"/>
      <point x="109" y="-15"/>
      <point x="56" y="45"/>
      <point x="56" y="147" type="curve" smooth="yes"/>
      <point x="56" y="523" type="line"/>
      <point x="128" y="523" type="line"/>
      <point x="128" y="176" type="line" smooth="yes"/>
      <point x="128" y="101"/>
      <point x="156" y="62"/>
      <point x="211" y="62" type="curve" smooth="yes"/>
      <point x="283" y="62"/>
      <point x="329" y="129"/>
      <point x="329" y="235" type="curve" smooth="yes"/>
      <point x="329" y="523" type="line"/>
      <point x="401" y="523" type="line"/>
    </contour>
  </outline>
</glyph>
<glyph name="uring" format="1">
  <advance width="456"/>
  <unicode hex="016F"/>
  <outline>
    <contour>
      <point x="401" y="0" type="line"/>
      <point x="333" y="0" type="line"/>
      <point x="333" y="81" type="line"/>
      <point x="295" y="9"/>
      <point x="261" y="-15"/>
      <point x="197" y="-15" type="curve" smooth="yes"/>
      <point x="109" y="-15"/>
      <point x="56" y="45"/>
      <point x="56" y="147" type="curve" smooth="yes"/>
      <point x="56" y="523" type="line"/>
      <point x="128" y="523" type="line"/>
      <point x="128" y="176" type="line" smooth="yes"/>
      <point x="128" y="101"/>
      <point x="156" y="62"/>
      <point x="211" y="62" type="curve" smooth="yes"/>
      <point x="283" y="62"/>
      <point x="329" y="129"/>
      <point x="329" y="235" type="curve" smooth="yes"/>
      <point x="329" y="523" type="line"/>
      <point x="401" y="523" type="line"/>
    </contour>
    <contour>
      <point x="228" y="756" type="curve" smooth="yes"/>
      <point x="271" y="756"/>
      <point x="303" y="716"/>
      <point x="303" y="664" type="curve" smooth="yes"/>
      <point x="303" y="611"/>
      <point x="271" y="572"/>
      <point x="227" y="572" type="curve" smooth="yes"/>
      <point x="184" y="572"/>
      <point x="152" y="611"/>
      <point x="152" y="664" type="curve" smooth="yes"/>
      <point x="152" y="717"/>
      <point x="184" y="756"/>
    </contour>
    <contour>
      <point x="228" y="716" type="curve" smooth="yes"/>
      <point x="204" y="716"/>
      <point x="185" y="693"/>
      <point x="185" y="664" type="curve" smooth="yes"/>
      <point x="185" y="635"/>
      <point x="204" y="612"/>
      <point x="227" y="612" type="curve" smooth="yes"/>
      <point x="251" y="612"/>
      <point x="270" y="635"/>
      <point x="270" y="664" type="curve" smooth="yes"/>
      <point x="270" y="692"/>
      <point x="251" y="716"/>
    </contour>
  </outline>
</glyph>
<glyph name="Uogonek" format="1">
  <advance width="592"/>
  <unicode hex="0172"/>
  <outline>
    <contour>
      <point x="528" y="718" type="line"/>
      <point x="528" y="252" type="line" smooth="yes"/>
      <point x="528" y="195"/>
      <point x="514" y="132"/>
      <point x="492" y="95" type="curve" smooth="yes"/>
      <point x="481" y="76"/>
      <point x="456" y="43"/>
      <point x="407" y="-17" type="curve" smooth="yes"/>
      <point x="364" y="-69"/>
      <point x="355" y="-87"/>
      <point x="355" y="-124" type="curve" smooth="yes"/>
      <point x="355" y="-161"/>
      <point x="370" y="-178"/>
      <point x="402" y="-178" type="curve" smooth="yes"/>
      <point x="418" y="-178"/>
      <point x="429" y="-175"/>
      <point x="454" y="-163" type="curve"/>
      <point x="468" y="-203" type="line"/>
      <point x="437" y="-218"/>
      <point x="413" y="-225"/>
      <point x="388" y="-225" type="curve" smooth="yes"/>
      <point x="332" y="-225"/>
      <point x="293" y="-187"/>
      <point x="293" y="-133" type="curve" smooth="yes"/>
      <point x="293" y="-81"/>
      <point x="319" y="-33"/>
      <point x="358" y="-11" type="curve"/>
      <point x="335" y="-17"/>
      <point x="316" y="-19"/>
      <point x="293" y="-19" type="curve" smooth="yes"/>
      <point x="153" y="-19"/>
      <point x="65" y="81"/>
      <point x="65" y="239" type="curve" smooth="yes"/>
      <point x="65" y="718" type="line"/>
      <point x="145" y="718" type="line"/>
      <point x="145" y="266" type="line" smooth="yes"/>
      <point x="145" y="139"/>
      <point x="199" y="68"/>
      <point x="295" y="68" type="curve" smooth="yes"/>
      <point x="392" y="68"/>
      <point x="448" y="139"/>
      <point x="448" y="264" type="curve" smooth="yes"/>
      <point x="448" y="718" type="line"/>
    </contour>
  </outline>
</glyph>
<glyph name="uogonek" format="1">
  <advance width="456"/>
  <unicode hex="0173"/>
  <outline>
    <contour>
      <point x="401" y="523" type="line"/>
      <point x="401" y="-4" type="line"/>
      <point x="336" y="-49"/>
      <point x="319" y="-74"/>
      <point x="319" y="-124" type="curve" smooth="yes"/>
      <point x="319" y="-161"/>
      <point x="334" y="-178"/>
      <point x="366" y="-178" type="curve" smooth="yes"/>
      <point x="382" y="-178"/>
      <point x="393" y="-175"/>
      <point x="418" y="-163" type="curve"/>
      <point x="432" y="-203" type="line"/>
      <point x="402" y="-218"/>
      <point x="377" y="-225"/>
      <point x="352" y="-225" type="curve" smooth="yes"/>
      <point x="296" y="-225"/>
      <point x="257" y="-187"/>
      <point x="257" y="-133" type="curve" smooth="yes"/>
      <point x="257" y="-95"/>
      <point x="271" y="-57"/>
      <point x="296" y="-31" type="curve" smooth="yes"/>
      <point x="309" y="-17"/>
      <point x="317" y="-13"/>
      <point x="346" y="0" type="curve"/>
      <point x="333" y="0" type="line"/>
      <point x="333" y="81" type="line"/>
      <point x="295" y="9"/>
      <point x="261" y="-15"/>
      <point x="197" y="-15" type="curve" smooth="yes"/>
      <point x="109" y="-15"/>
      <point x="56" y="45"/>
      <point x="56" y="147" type="curve" smooth="yes"/>
      <point x="56" y="523" type="line"/>
      <point x="128" y="523" type="line"/>
      <point x="128" y="176" type="line" smooth="yes"/>
      <point x="128" y="101"/>
      <point x="156" y="62"/>
      <point x="211" y="62" type="curve" smooth="yes"/>
      <point x="283" y="62"/>
      <point x="329" y="129"/>
      <point x="329" y="235" type="curve" smooth="yes"/>
      <point x="329" y="523" type="line"/>
    </contour>
  </outline>
</glyph>
<glyph name="wcircumflex" format="1">
  <advance width="592"/>
  <unicode hex="0175"/>
  <outline>
    <contour>
      <point x="296" y="716" type="line"/>
      <point x="242" y="623" type="line"/>
      <point x="177" y="623" type="line"/>
      <point x="258" y="764" type="line"/>
      <point x="335" y="764" type="line"/>
      <point x="416" y="623" type="line"/>
      <point x="350" y="623" type="line"/>
    </contour>
    <contour>
      <point x="294" y="409" type="line"/>
      <point x="209" y="0" type="line"/>
      <point x="135" y="0" type="line"/>
      <point x="11" y="523" type="line"/>
      <point x="90" y="523" type="line"/>
      <point x="173" y="108" type="line"/>
      <point x="256" y="523" type="line"/>
      <point x="337" y="523" type="line"/>
      <point x="421" y="108" type="line"/>
      <point x="509" y="523" type="line"/>
      <point x="581" y="523" type="line"/>
      <point x="456" y="0" type="line"/>
      <point x="382" y="0" type="line"/>
    </contour>
  </outline>
</glyph>
<glyph name="Ycircumflex" format="1">
  <advance width="547"/>
  <unicode hex="0176"/>
  <outline>
    <contour>
      <point x="272" y="911" type="line"/>
      <point x="218" y="818" type="line"/>
      <point x="153" y="818" type="line"/>
      <point x="234" y="959" type="line"/>
      <point x="311" y="959" type="line"/>
      <point x="392" y="818" type="line"/>
      <point x="326" y="818" type="line"/>
    </contour>
    <contour>
      <point x="313" y="289" type="line"/>
      <point x="313" y="0" type="line"/>
      <point x="233" y="0" type="line"/>
      <point x="233" y="289" type="line"/>
      <point x="11" y="718" type="line"/>
      <point x="104" y="718" type="line"/>
      <point x="273" y="373" type="line"/>
      <point x="442" y="718" type="line"/>
      <point x="535" y="718" type="line"/>
    </contour>
  </outline>
</glyph>
<glyph name="Ydieresis" format="1">
  <advance width="547"/>
  <unicode hex="0178"/>
  <outline>
    <contour>
      <point x="313" y="289" type="line"/>
      <point x="313" y="0" type="line"/>
      <point x="233" y="0" type="line"/>
      <point x="233" y="289" type="line"/>
      <point x="11" y="718" type="line"/>
      <point x="104" y="718" type="line"/>
      <point x="273" y="373" type="line"/>
      <point x="442" y="718" type="line"/>
      <point x="535" y="718" type="line"/>
    </contour>
    <contour>
      <point x="244" y="901" type="line"/>
      <point x="244" y="799" type="line"/>
      <point x="169" y="799" type="line"/>
      <point x="169" y="901" type="line"/>
    </contour>
    <contour>
      <point x="376" y="901" type="line"/>
      <point x="376" y="799" type="line"/>
      <point x="301" y="799" type="line"/>
      <point x="301" y="901" type="line"/>
    </contour>
  </outline>
</glyph>
<glyph name="Zacute" format="1">
  <advance width="501"/>
  <unicode hex="0179"/>
  <outline>
    <contour>
      <point x="482" y="87" type="line"/>
      <point x="482" y="0" type="line"/>
      <point x="19" y="0" type="line"/>
      <point x="19" y="82" type="line"/>
      <point x="380" y="631" type="line"/>
      <point x="46" y="631" type="line"/>
      <point x="46" y="718" type="line"/>
      <point x="482" y="718" type="line"/>
      <point x="482" y="633" type="line"/>
      <point x="120" y="87" type="line"/>
    </contour>
    <contour>
      <point x="376" y="903" type="line"/>
      <point x="269" y="762" type="line"/>
      <point x="214" y="762" type="line"/>
      <point x="287" y="903" type="line"/>
    </contour>
  </outline>
</glyph>
<glyph name="zacute" format="1">
  <advance width="410"/>
  <unicode hex="017A"/>
  <outline>
    <contour>
      <point x="378" y="451" type="line"/>
      <point x="121" y="73" type="line"/>
      <point x="385" y="73" type="line"/>
      <point x="385" y="0" type="line"/>
      <point x="25" y="0" type="line"/>
      <point x="25" y="69" type="line"/>
      <point x="284" y="450" type="line"/>
      <point x="45" y="450" type="line"/>
      <point x="45" y="523" type="line"/>
      <point x="378" y="523" type="line"/>
    </contour>
    <contour>
      <point x="331" y="734" type="line"/>
      <point x="224" y="593" type="line"/>
      <point x="169" y="593" type="line"/>
      <point x="242" y="734" type="line"/>
    </contour>
  </outline>
</glyph>
<glyph name="Zdotaccent" format="1">
  <advance width="501"/>
  <unicode hex="017B"/>
  <outline>
    <contour>
      <point x="482" y="87" type="line"/>
      <point x="482" y="0" type="line"/>
      <point x="19" y="0" type="line"/>
      <point x="19" y="82" type="line"/>
      <point x="380" y="631" type="line"/>
      <point x="46" y="631" type="line"/>
      <point x="46" y="718" type="line"/>
      <point x="482" y="718" type="line"/>
      <point x="482" y="633" type="line"/>
      <point x="120" y="87" type="line"/>
    </contour>
    <contour>
      <point x="308" y="901" type="line"/>
      <point x="308" y="799" type="line"/>
      <point x="233" y="799" type="line"/>
      <point x="233" y="901" type="line"/>
    </contour>
  </outline>
</glyph>
<glyph name="zdotaccent" format="1">
  <advance width="410"/>
  <unicode hex="017C"/>
  <outline>
    <contour>
      <point x="378" y="451" type="line"/>
      <point x="121" y="73" type="line"/>
      <point x="385" y="73" type="line"/>
      <point x="385" y="0" type="line"/>
      <point x="25" y="0" type="line"/>
      <point x="25" y="69" type="line"/>
      <point x="284" y="450" type="line"/>
      <point x="45" y="450" type="line"/>
      <point x="45" y="523" type="line"/>
      <point x="378" y="523" type="line"/>
    </contour>
    <contour>
      <point x="243" y="706" type="line"/>
      <point x="243" y="604" type="line"/>
      <point x="168" y="604" type="line"/>
      <point x="168" y="706" type="line"/>
    </contour>
  </outline>
</glyph>
<glyph name="Zcaron" format="1">
  <advance width="501"/>
  <unicode hex="017D"/>
  <outline>
    <contour>
      <point x="482" y="87" type="line"/>
      <point x="482" y="0" type="line"/>
      <point x="19" y="0" type="line"/>
      <point x="19" y="82" type="line"/>
      <point x="380" y="631" type="line"/>
      <point x="46" y="631" type="line"/>
      <point x="46" y="718" type="line"/>
      <point x="482" y="718" type="line"/>
      <point x="482" y="633" type="line"/>
      <point x="120" y="87" type="line"/>
    </contour>
    <contour>
      <point x="216" y="929" type="line"/>
      <point x="270" y="836" type="line"/>
      <point x="324" y="929" type="line"/>
      <point x="390" y="929" type="line"/>
      <point x="309" y="788" type="line"/>
      <point x="232" y="788" type="line"/>
      <point x="151" y="929" type="line"/>
    </contour>
  </outline>
</glyph>
<glyph name="florin" format="1">
  <advance width="456"/>
  <unicode hex="0192"/>
  <outline>
    <contour>
      <point x="411" y="722" type="curve"/>
      <point x="399" y="644" type="line"/>
      <point x="395" y="646" type="line"/>
      <point x="392" y="647" type="line"/>
      <point x="373" y="657"/>
      <point x="362" y="660"/>
      <point x="352" y="660" type="curve" smooth="yes"/>
      <point x="320" y="660"/>
      <point x="295" y="624"/>
      <point x="286" y="564" type="curve" smooth="yes"/>
      <point x="269" y="461" type="line"/>
      <point x="363" y="461" type="line"/>
      <point x="363" y="391" type="line"/>
      <point x="259" y="391" type="line"/>
      <point x="210" y="64" type="line" smooth="yes"/>
      <point x="182" y="-123"/>
      <point x="129" y="-207"/>
      <point x="40" y="-207" type="curve" smooth="yes"/>
      <point x="19" y="-207"/>
      <point x="7" y="-204"/>
      <point x="-9" y="-195" type="curve"/>
      <point x="4" y="-114" type="line"/>
      <point x="20" y="-125"/>
      <point x="32" y="-129"/>
      <point x="46" y="-129" type="curve" smooth="yes"/>
      <point x="91" y="-129"/>
      <point x="110" y="-89"/>
      <point x="131" y="46" type="curve" smooth="yes"/>
      <point x="183" y="391" type="line"/>
      <point x="94" y="391" type="line"/>
      <point x="94" y="461" type="line"/>
      <point x="195" y="461" type="line"/>
      <point x="218" y="585" type="line" smooth="yes"/>
      <point x="235" y="676"/>
      <point x="288" y="737"/>
      <point x="350" y="737" type="curve" smooth="yes"/>
      <point x="372" y="737"/>
      <point x="387" y="733"/>
    </contour>
  </outline>
</glyph>
<glyph name="circumflex" format="1">
  <advance width="273"/>
  <unicode hex="02C6"/>
  <outline>
    <contour>
      <point x="136" y="686" type="line"/>
      <point x="82" y="593" type="line"/>
      <point x="17" y="593" type="line"/>
      <point x="98" y="734" type="line"/>
      <point x="175" y="734" type="line"/>
      <point x="256" y="593" type="line"/>
      <point x="190" y="593" type="line"/>
    </contour>
  </outline>
</glyph>
<glyph name="caron" format="1">
  <advance width="273"/>
  <unicode hex="02C7"/>
  <outline>
    <contour>
      <point x="82" y="734" type="line"/>
      <point x="136" y="641" type="line"/>
      <point x="190" y="734" type="line"/>
      <point x="256" y="734" type="line"/>
      <point x="175" y="593" type="line"/>
      <point x="98" y="593" type="line"/>
      <point x="17" y="734" type="line"/>
    </contour>
  </outline>
</glyph>
<glyph name="breve" format="1">
  <advance width="273"/>
  <unicode hex="02D8"/>
  <outline>
    <contour>
      <point x="224" y="731" type="curve"/>
      <point x="263" y="731" type="line"/>
      <point x="251" y="637"/>
      <point x="212" y="595"/>
      <point x="134" y="595" type="curve" smooth="yes"/>
      <point x="59" y="595"/>
      <point x="21" y="637"/>
      <point x="11" y="731" type="curve"/>
      <point x="51" y="731" type="line"/>
      <point x="53" y="724" type="line"/>
      <point x="66" y="674"/>
      <point x="92" y="652"/>
      <point x="139" y="652" type="curve" smooth="yes"/>
      <point x="188" y="652"/>
      <point x="209" y="672"/>
    </contour>
  </outline>
</glyph>
<glyph name="dotaccent" format="1">
  <advance width="273"/>
  <unicode hex="02D9"/>
  <outline>
    <contour>
      <point x="174" y="706" type="line"/>
      <point x="174" y="604" type="line"/>
      <point x="99" y="604" type="line"/>
      <point x="99" y="706" type="line"/>
    </contour>
  </outline>
</glyph>
<glyph name="ogonek" format="1">
  <advance width="273"/>
  <unicode hex="02DB"/>
  <outline>
    <contour>
      <point x="221" y="-163" type="curve"/>
      <point x="235" y="-203" type="line"/>
      <point x="205" y="-218"/>
      <point x="180" y="-225"/>
      <point x="155" y="-225" type="curve" smooth="yes"/>
      <point x="99" y="-225"/>
      <point x="60" y="-187"/>
      <point x="60" y="-133" type="curve" smooth="yes"/>
      <point x="60" y="-103"/>
      <point x="69" y="-72"/>
      <point x="85" y="-48" type="curve" smooth="yes"/>
      <point x="101" y="-25"/>
      <point x="116" y="-14"/>
      <point x="149" y="0" type="curve"/>
      <point x="204" y="0" type="line"/>
      <point x="204" y="-4" type="line"/>
      <point x="139" y="-49"/>
      <point x="122" y="-74"/>
      <point x="122" y="-124" type="curve" smooth="yes"/>
      <point x="122" y="-161"/>
      <point x="137" y="-178"/>
      <point x="169" y="-178" type="curve" smooth="yes"/>
      <point x="185" y="-178"/>
      <point x="196" y="-175"/>
    </contour>
  </outline>
</glyph>
<glyph name="tilde" format="1">
  <advance width="273"/>
  <unicode hex="02DC"/>
  <outline>
    <contour>
      <point x="235" y="722" type="curve"/>
      <point x="276" y="722" type="line"/>
      <point x="266" y="650"/>
      <point x="238" y="613"/>
      <point x="193" y="613" type="curve" smooth="yes"/>
      <point x="181" y="613"/>
      <point x="168" y="617"/>
      <point x="146" y="626" type="curve" smooth="yes"/>
      <point x="125" y="635" type="line" smooth="yes"/>
      <point x="100" y="646"/>
      <point x="85" y="650"/>
      <point x="74" y="650" type="curve" smooth="yes"/>
      <point x="55" y="650"/>
      <point x="45" y="638"/>
      <point x="36" y="606" type="curve"/>
      <point x="-3" y="606" type="line"/>
      <point x="7" y="680"/>
      <point x="34" y="713"/>
      <point x="82" y="713" type="curve" smooth="yes"/>
      <point x="99" y="713"/>
      <point x="119" y="708"/>
      <point x="138" y="698" type="curve" smooth="yes"/>
      <point x="156" y="689" type="line" smooth="yes"/>
      <point x="172" y="681"/>
      <point x="187" y="676"/>
      <point x="197" y="676" type="curve" smooth="yes"/>
      <point x="218" y="676"/>
      <point x="229" y="689"/>
    </contour>
  </outline>
</glyph>
<glyph name="hungarumlaut" format="1">
  <advance width="273"/>
  <unicode hex="02DD"/>
  <outline>
    <contour>
      <point x="187" y="734" type="line"/>
      <point x="80" y="593" type="line"/>
      <point x="25" y="593" type="line"/>
      <point x="98" y="734" type="line"/>
    </contour>
    <contour>
      <point x="335" y="734" type="line"/>
      <point x="228" y="593" type="line"/>
      <point x="173" y="593" type="line"/>
      <point x="246" y="734" type="line"/>
    </contour>
  </outline>
</glyph>
<glyph name="Delta" format="1">
  <advance width="502"/>
  <unicode hex="0394"/>
  <outline>
    <contour>
      <point x="5" y="0" type="line"/>
      <point x="268" y="688" type="line"/>
      <point x="499" y="0" type="line"/>
    </contour>
    <contour>
      <point x="63" y="51" type="line"/>
      <point x="393" y="51" type="line"/>
      <point x="238" y="509" type="line"/>
    </contour>
  </outline>
</glyph>
<glyph name="mu" format="1">
  <advance width="456"/>
  <unicode hex="03BC"/>
  <outline>
    <contour>
      <point x="401" y="0" type="line"/>
      <point x="333" y="0" type="line"/>
      <point x="333" y="81" type="line"/>
      <point x="296" y="10"/>
      <point x="261" y="-15"/>
      <point x="199" y="-15" type="curve" smooth="yes"/>
      <point x="165" y="-15"/>
      <point x="146" y="-5"/>
      <point x="128" y="21" type="curve"/>
      <point x="128" y="-207" type="line"/>
      <point x="56" y="-207" type="line"/>
      <point x="56" y="523" type="line"/>
      <point x="128" y="523" type="line"/>
      <point x="128" y="176" type="line" smooth="yes"/>
      <point x="128" y="101"/>
      <point x="156" y="62"/>
      <point x="211" y="62" type="curve" smooth="yes"/>
      <point x="283" y="62"/>
      <point x="329" y="129"/>
      <point x="329" y="235" type="curve" smooth="yes"/>
      <point x="329" y="523" type="line"/>
      <point x="401" y="523" type="line"/>
    </contour>
  </outline>
</glyph>
<glyph name="afii10023" format="1">
  <advance width="537"/>
  <unicode hex="0401"/>
  <outline>
    <contour>
      <point x="495" y="87" type="line"/>
      <point x="495" y="0" type="line"/>
      <point x="61" y="0" type="line"/>
      <point x="61" y="718" type="line"/>
      <point x="489" y="718" type="line"/>
      <point x="489" y="631" type="line"/>
      <point x="141" y="631" type="line"/>
      <point x="141" y="412" type="line"/>
      <point x="462" y="412" type="line"/>
      <point x="462" y="325" type="line"/>
      <point x="141" y="325" type="line"/>
      <point x="141" y="87" type="line"/>
    </contour>
    <contour>
      <point x="235" y="901" type="line"/>
      <point x="235" y="799" type="line"/>
      <point x="160" y="799" type="line"/>
      <point x="160" y="901" type="line"/>
    </contour>
    <contour>
      <point x="367" y="901" type="line"/>
      <point x="367" y="799" type="line"/>
      <point x="292" y="799" type="line"/>
      <point x="292" y="901" type="line"/>
    </contour>
  </outline>
</glyph>
<glyph name="afii10051" format="1">
  <advance width="631"/>
  <unicode hex="0402"/>
  <outline>
    <contour>
      <point x="378" y="-131" type="curve"/>
      <point x="378" y="-49" type="line"/>
      <point x="429" y="-49"/>
      <point x="509" y="-35"/>
      <point x="509" y="8" type="curve" smooth="yes"/>
      <point x="509" y="324" type="line" smooth="yes"/>
      <point x="509" y="367"/>
      <point x="429" y="381"/>
      <point x="378" y="381" type="curve" smooth="yes"/>
      <point x="320" y="381"/>
      <point x="251" y="361"/>
      <point x="251" y="331" type="curve" smooth="yes"/>
      <point x="251" y="0" type="line"/>
      <point x="172" y="0" type="line"/>
      <point x="172" y="631" type="line"/>
      <point x="12" y="631" type="line"/>
      <point x="12" y="718" type="line"/>
      <point x="411" y="718" type="line"/>
      <point x="411" y="631" type="line"/>
      <point x="252" y="631" type="line"/>
      <point x="252" y="427" type="line"/>
      <point x="259" y="438"/>
      <point x="327" y="463"/>
      <point x="378" y="463" type="curve" smooth="yes"/>
      <point x="459" y="463"/>
      <point x="589" y="431"/>
      <point x="589" y="332" type="curve" smooth="yes"/>
      <point x="589" y="0" type="line" smooth="yes"/>
      <point x="589" y="-99"/>
      <point x="459" y="-131"/>
    </contour>
  </outline>
</glyph>
<glyph name="afii10052" format="1">
  <advance width="489"/>
  <unicode hex="0403"/>
  <outline>
    <contour>
      <point x="246" y="919" type="line"/>
      <point x="139" y="778" type="line"/>
      <point x="84" y="778" type="line"/>
      <point x="157" y="919" type="line"/>
    </contour>
    <contour>
      <point x="141" y="0" type="line"/>
      <point x="61" y="0" type="line"/>
      <point x="61" y="718" type="line"/>
      <point x="468" y="718" type="line"/>
      <point x="468" y="631" type="line"/>
      <point x="141" y="631" type="line"/>
    </contour>
  </outline>
</glyph>
<glyph name="afii10056" format="1">
  <advance width="341"/>
  <unicode hex="0407"/>
  <outline>
    <contour>
      <point x="211" y="718" type="line"/>
      <point x="211" y="0" type="line"/>
      <point x="131" y="0" type="line"/>
      <point x="131" y="718" type="line"/>
    </contour>
    <contour>
      <point x="142" y="901" type="line"/>
      <point x="142" y="799" type="line"/>
      <point x="67" y="799" type="line"/>
      <point x="67" y="901" type="line"/>
    </contour>
    <contour>
      <point x="274" y="901" type="line"/>
      <point x="274" y="799" type="line"/>
      <point x="199" y="799" type="line"/>
      <point x="199" y="901" type="line"/>
    </contour>
  </outline>
</glyph>
